<?xml version="1.0" encoding="UTF-8"?>
<svg id="Layer_2" data-name="Layer 2" xmlns="http://www.w3.org/2000/svg" viewBox="0 0 46.56 51.12">
  <defs>
    <style>
      .cls-1 {
        fill: #e94f1e;
      }
    </style>
  </defs>
  <g id="Capa_2" data-name="Capa 2">
    <path class="cls-1" d="M46.56,13.89v23.34c0,3.84-1.31,7.31-3.41,9.83-2.11,2.51-5.02,4.06-8.24,4.06-6.42,0-11.64-6.22-11.64-13.89,0,3.84-1.31,7.31-3.41,9.83-2.1,2.51-5.01,4.06-8.23,4.06-6.42,0-11.64-6.22-11.64-13.89V13.89c0-3.84,1.31-7.31,3.41-9.83C5.52,1.56,8.42,0,11.64,0c6.43,0,11.64,6.22,11.64,13.89,0-3.84,1.31-7.31,3.41-9.83,2.11-2.51,5.02-4.06,8.23-4.06,6.43,0,11.64,6.22,11.64,13.89Z"/>
  </g>
</svg>