<?xml version="1.0" encoding="UTF-8"?>
<svg id="Layer_2" data-name="Layer 2" xmlns="http://www.w3.org/2000/svg" viewBox="0 0 46.67 50.74">
  <defs>
    <style>
      .cls-1 {
        fill: #f087b5;
      }
    </style>
  </defs>
  <g id="Capa_2" data-name="Capa 2">
    <path class="cls-1" d="M42.95,29.09c2.3,2.29,3.72,5.46,3.72,8.96,0,7.01-5.68,12.69-12.68,12.69H12.68c-3.5,0-6.67-1.42-8.96-3.72-2.3-2.29-3.72-5.47-3.72-8.97,0-7,5.68-12.68,12.68-12.68-3.5,0-6.67-1.42-8.96-3.72-2.3-2.29-3.72-5.46-3.72-8.96C0,5.68,5.68,0,12.68,0h21.31c3.5,0,6.67,1.42,8.96,3.72,2.3,2.29,3.72,5.47,3.72,8.97,0,7-5.68,12.68-12.68,12.68,3.5,0,6.67,1.42,8.96,3.72Z"/>
  </g>
</svg>