<?xml version="1.0" encoding="UTF-8"?>
<svg id="Layer_2" data-name="Layer 2" xmlns="http://www.w3.org/2000/svg" viewBox="0 0 53.24 52.37">
  <defs>
    <style>
      .cls-1 {
        fill: #2eaa53;
      }
    </style>
  </defs>
  <g id="Capa_2" data-name="Capa 2">
    <path class="cls-1" d="M26.62,4.4l1.11-1.28c5.97-6.89,17.22-1.48,15.55,7.49l-.31,1.66,1.69.07c9.11.37,11.89,12.54,3.84,16.82l-1.49.79,1,1.36c5.39,7.35-2.39,17.11-10.76,13.49l-1.55-.67-.44,1.63c-2.39,8.8-14.87,8.8-17.26,0l-.44-1.63-1.55.67C7.63,48.43-.15,38.67,5.24,31.32l1-1.36-1.49-.79C-3.3,24.88-.52,12.71,8.59,12.34l1.69-.07-.31-1.66C8.3,1.65,19.55-3.77,25.52,3.12l1.11,1.28Z"/>
  </g>
</svg>