<?xml version="1.0" encoding="UTF-8"?>
<svg id="Layer_2" data-name="Layer 2" xmlns="http://www.w3.org/2000/svg" viewBox="0 0 55.69 54.54">
  <defs>
    <style>
      .cls-1 {
        fill: #e94f1e;
      }
    </style>
  </defs>
  <g id="Capa_2" data-name="Capa 2">
    <path class="cls-1" d="M31.08,4.79l3.8-3.51c3.18-2.93,8.3-.46,7.99,3.85l-.38,5.16c-.18,2.48,1.58,4.68,4.03,5.06l5.11.78c4.27.65,5.54,6.2,1.97,8.64l-4.27,2.92c-2.05,1.41-2.68,4.15-1.44,6.31l2.58,4.48c2.15,3.75-1.39,8.2-5.53,6.93l-4.95-1.51c-2.38-.73-4.92.49-5.83,2.81l-1.9,4.81c-1.59,4.02-7.28,4.02-8.87,0l-1.9-4.81c-.91-2.31-3.45-3.54-5.83-2.81l-4.95,1.51c-4.13,1.27-7.68-3.18-5.53-6.93l2.58-4.48c1.24-2.16.61-4.9-1.44-6.31l-4.27-2.92c-3.57-2.44-2.3-7.99,1.97-8.64l5.11-.78c2.46-.38,4.21-2.58,4.03-5.06l-.38-5.16c-.31-4.31,4.81-6.78,7.99-3.85l3.8,3.51c1.83,1.69,4.64,1.69,6.47,0Z"/>
  </g>
</svg>