<?xml version="1.0" encoding="UTF-8"?>
<svg id="Layer_2" data-name="Layer 2" xmlns="http://www.w3.org/2000/svg" viewBox="0 0 51.06 50.46">
  <defs>
    <style>
      .cls-1 {
        fill: #2eaa53;
      }
    </style>
  </defs>
  <g id="Capa_2" data-name="Capa 2">
    <path class="cls-1" d="M37.84,25.23c-.12,0-.24,0-.35,0,0-.02,0-.03,0-.05.32.02.64.04.96.04,7.16,0,12.93-5.97,12.6-13.21C50.74,5.33,45.04-.05,38.35,0s-12.29,5.47-12.5,12.21c0,0-.01,0-.02,0C25.61,5.47,20.11.05,13.32,0,6.63-.05.93,5.33.62,12.02c-.33,7.24,5.44,13.21,12.6,13.21,0,0,0,0,0,0,0,0,0,.01,0,.02-.2,0-.41-.02-.61-.02C5.45,25.23-.32,31.2.01,38.44c.3,6.42,5.58,11.71,12,12,7.24.33,13.21-5.44,13.21-12.6,0,0,0,0,0,0h0s0,0,0,0c0,7.16,5.97,12.93,13.21,12.6,6.42-.3,11.71-5.58,12-12,.33-7.24-5.44-13.21-12.6-13.21Z"/>
  </g>
</svg>