<?xml version="1.0" encoding="UTF-8"?>
<svg id="Layer_2" data-name="Layer 2" xmlns="http://www.w3.org/2000/svg" viewBox="0 0 51.25 51.14">
  <defs>
    <style>
      .cls-1 {
        fill: #54c1dc;
      }
    </style>
  </defs>
  <g id="Capa_2" data-name="Capa 2">
    <path class="cls-1" d="M0,2.72v45.71c0,1.62,1.42,2.89,3.03,2.7,8.95-1.05,16.5-6.7,20.21-14.52.55-1.16,2.28-.8,2.28.49v11.33c0,1.62,1.41,2.89,3.02,2.7,12.79-1.49,22.71-12.36,22.71-25.55S41.32,1.51,28.53.02c-1.61-.19-3.02,1.08-3.02,2.7v11.33c0,1.28-1.73,1.65-2.28.49C19.52,6.72,11.98,1.07,3.03.02,1.42-.17,0,1.1,0,2.72Z"/>
  </g>
</svg>