<svg width="297" height="325" viewBox="0 0 297 325" fill="none" xmlns="http://www.w3.org/2000/svg">
<path d="M271.71 27.4673H25.145V297.585H271.71V27.4673Z" stroke="#B2B2B2" stroke-width="2" stroke-miterlimit="10"/>
<path d="M295.906 1H1V324H295.906V1Z" stroke="#B2B2B2" stroke-width="2" stroke-miterlimit="10"/>
<path d="M55.9974 10.5625H9.76978V61.2261H55.9974V10.5625Z" stroke="#B2B2B2" stroke-width="2" stroke-miterlimit="10"/>
<path d="M102.226 10.5625H55.9982V61.2261H102.226V10.5625Z" stroke="#B2B2B2" stroke-width="2" stroke-miterlimit="10"/>
<path d="M148.454 10.5625H102.227V61.2261H148.454V10.5625Z" stroke="#B2B2B2" stroke-width="2" stroke-miterlimit="10"/>
<path d="M194.681 10.5625H148.453V61.2261H194.681V10.5625Z" stroke="#B2B2B2" stroke-width="2" stroke-miterlimit="10"/>
<path d="M240.907 10.5625H194.68V61.2261H240.907V10.5625Z" stroke="#B2B2B2" stroke-width="2" stroke-miterlimit="10"/>
<path d="M287.137 10.5625H240.91V61.2261H287.137V10.5625Z" stroke="#B2B2B2" stroke-width="2" stroke-miterlimit="10"/>
<path d="M55.9974 61.2256H9.76978V111.889H55.9974V61.2256Z" stroke="#B2B2B2" stroke-width="2" stroke-miterlimit="10"/>
<path d="M102.226 61.2256H55.9982V111.889H102.226V61.2256Z" stroke="#B2B2B2" stroke-width="2" stroke-miterlimit="10"/>
<path d="M148.454 61.2256H102.227V111.889H148.454V61.2256Z" stroke="#B2B2B2" stroke-width="2" stroke-miterlimit="10"/>
<path d="M194.681 61.2256H148.453V111.889H194.681V61.2256Z" stroke="#B2B2B2" stroke-width="2" stroke-miterlimit="10"/>
<path d="M240.907 61.2256H194.68V111.889H240.907V61.2256Z" stroke="#B2B2B2" stroke-width="2" stroke-miterlimit="10"/>
<path d="M287.137 61.2256H240.91V111.889H287.137V61.2256Z" stroke="#B2B2B2" stroke-width="2" stroke-miterlimit="10"/>
<path d="M55.9974 111.836H9.76978V162.5H55.9974V111.836Z" stroke="#B2B2B2" stroke-width="2" stroke-miterlimit="10"/>
<path d="M102.226 111.836H55.9982V162.5H102.226V111.836Z" stroke="#B2B2B2" stroke-width="2" stroke-miterlimit="10"/>
<path d="M148.454 111.836H102.227V162.5H148.454V111.836Z" stroke="#B2B2B2" stroke-width="2" stroke-miterlimit="10"/>
<path d="M194.681 111.836H148.453V162.5H194.681V111.836Z" stroke="#B2B2B2" stroke-width="2" stroke-miterlimit="10"/>
<path d="M240.907 111.836H194.68V162.5H240.907V111.836Z" stroke="#B2B2B2" stroke-width="2" stroke-miterlimit="10"/>
<path d="M287.137 111.836H240.91V162.5H287.137V111.836Z" stroke="#B2B2B2" stroke-width="2" stroke-miterlimit="10"/>
<path d="M55.9974 162.5H9.76978V213.164H55.9974V162.5Z" stroke="#B2B2B2" stroke-width="2" stroke-miterlimit="10"/>
<path d="M102.226 162.5H55.9982V213.164H102.226V162.5Z" stroke="#B2B2B2" stroke-width="2" stroke-miterlimit="10"/>
<path d="M148.454 162.5H102.227V213.164H148.454V162.5Z" stroke="#B2B2B2" stroke-width="2" stroke-miterlimit="10"/>
<path d="M194.681 162.5H148.453V213.164H194.681V162.5Z" stroke="#B2B2B2" stroke-width="2" stroke-miterlimit="10"/>
<path d="M240.907 162.5H194.68V213.164H240.907V162.5Z" stroke="#B2B2B2" stroke-width="2" stroke-miterlimit="10"/>
<path d="M287.137 162.5H240.91V213.164H287.137V162.5Z" stroke="#B2B2B2" stroke-width="2" stroke-miterlimit="10"/>
<path d="M55.9974 213.164H9.76978V263.827H55.9974V213.164Z" stroke="#B2B2B2" stroke-width="2" stroke-miterlimit="10"/>
<path d="M102.226 213.164H55.9982V263.827H102.226V213.164Z" stroke="#B2B2B2" stroke-width="2" stroke-miterlimit="10"/>
<path d="M148.454 213.164H102.227V263.827H148.454V213.164Z" stroke="#B2B2B2" stroke-width="2" stroke-miterlimit="10"/>
<path d="M194.681 213.164H148.453V263.827H194.681V213.164Z" stroke="#B2B2B2" stroke-width="2" stroke-miterlimit="10"/>
<path d="M240.907 213.164H194.68V263.827H240.907V213.164Z" stroke="#B2B2B2" stroke-width="2" stroke-miterlimit="10"/>
<path d="M287.137 213.164H240.91V263.827H287.137V213.164Z" stroke="#B2B2B2" stroke-width="2" stroke-miterlimit="10"/>
<path d="M55.9974 263.774H9.76978V314.438H55.9974V263.774Z" stroke="#B2B2B2" stroke-width="2" stroke-miterlimit="10"/>
<path d="M102.226 263.774H55.9982V314.438H102.226V263.774Z" stroke="#B2B2B2" stroke-width="2" stroke-miterlimit="10"/>
<path d="M148.454 263.774H102.227V314.438H148.454V263.774Z" stroke="#B2B2B2" stroke-width="2" stroke-miterlimit="10"/>
<path d="M194.681 263.774H148.453V314.438H194.681V263.774Z" stroke="#B2B2B2" stroke-width="2" stroke-miterlimit="10"/>
<path d="M240.907 263.774H194.68V314.438H240.907V263.774Z" stroke="#B2B2B2" stroke-width="2" stroke-miterlimit="10"/>
<path d="M287.137 263.774H240.91V314.438H287.137V263.774Z" stroke="#B2B2B2" stroke-width="2" stroke-miterlimit="10"/>
<path d="M209.46 28.5C243.07 28.5 270.447 61.0416 270.447 101.362V101.862H270.5V224.638C270.5 244.806 263.619 263.018 252.604 276.234C241.539 289.396 226.3 297.5 209.46 297.5C176.165 297.5 148.903 265.464 148.479 225.581L148.474 224.638H147.474C147.474 244.806 140.592 263.019 129.577 276.235C118.565 289.396 103.327 297.5 86.4863 297.5C52.9289 297.5 25.5002 264.958 25.5 224.638V101.362C25.5001 81.1932 32.3823 62.9802 43.3975 49.7637L43.3965 49.7627C54.4622 36.602 69.6478 28.5001 86.4863 28.5C119.834 28.5 147.046 60.5353 147.469 100.419L147.474 101.362H148.474C148.474 81.1941 155.354 62.981 166.368 49.7646L166.369 49.7656C177.435 36.6039 192.673 28.5001 209.46 28.5Z" stroke="black"/>
</svg>
