<svg width="94" height="103" viewBox="0 0 94 103" fill="none" xmlns="http://www.w3.org/2000/svg">
<path d="M93.2858 28.6207V75.2563C93.2858 82.929 90.6682 89.8624 86.472 94.8976C82.2559 99.9128 76.4412 103.01 70.0071 103.01C57.1788 103.01 46.7483 90.5817 46.7483 75.2563C46.7483 82.929 44.1307 89.8624 39.9345 94.8976C35.7384 99.9128 29.9237 103.01 23.4896 103.01C10.6613 103.01 0.230835 90.5817 0.230835 75.2563V28.6207C0.230835 20.9481 2.84844 14.0147 7.04461 8.97946C11.2608 3.96424 17.0555 0.867188 23.4896 0.867188C36.3378 0.867188 46.7483 13.2953 46.7483 28.6207C46.7483 20.9481 49.3659 14.0147 53.5621 8.97946C57.7782 3.96424 63.5929 0.867188 70.0071 0.867188C82.8553 0.867188 93.2658 13.2953 93.2658 28.6207H93.2858Z" fill="#1E1E1E"/>
</svg>
