<svg width="103" height="103" viewBox="0 0 103 103" fill="none" xmlns="http://www.w3.org/2000/svg">
<path d="M0.488892 5.95652V97.2895C0.488892 100.526 3.3263 103.064 6.54336 102.684C24.427 100.586 39.5132 89.2971 46.9264 73.672C48.0254 71.3542 51.4823 72.0735 51.4823 74.6511V97.2895C51.4823 100.526 54.2997 103.064 57.5168 102.684C83.0734 99.7072 102.895 77.9879 102.895 51.633C102.895 25.2781 83.0734 3.5588 57.5168 0.581634C54.2997 0.201996 51.4823 2.73959 51.4823 5.9765V28.6149C51.4823 31.1725 48.0254 31.9118 46.9264 29.594C39.4932 13.9689 24.427 2.67963 6.54336 0.581634C3.3263 0.201996 0.488892 2.73959 0.488892 5.9765V5.95652Z" fill="#1E1E1E"/>
</svg>
