<svg width="107" height="107" viewBox="0 0 107 107" fill="none" xmlns="http://www.w3.org/2000/svg">
<path d="M57.302 0.923431C52.4464 0.563774 47.7507 0.883466 43.2348 1.76263C40.6372 2.26215 39.818 5.53902 41.7762 7.29735C47.471 12.3925 50.8479 20.0052 50.1685 28.3773C49.1894 40.5657 39.4183 50.5162 27.2295 51.6751C19.1369 52.4343 11.7236 49.4172 6.56832 44.1822C4.71002 42.304 1.49298 43.2431 1.09335 45.8606C0.55384 49.5571 0.374002 53.3734 0.653746 57.2697C2.49207 84.0043 24.5519 105.404 51.3274 106.423C82.2592 107.582 107.556 82.166 106.157 51.1755C104.958 24.6408 83.7778 2.86158 57.282 0.923431H57.302Z" fill="#1E1E1E"/>
</svg>
