<svg width="112" height="110" viewBox="0 0 112 110" fill="none" xmlns="http://www.w3.org/2000/svg">
<path d="M62.1945 9.69594L69.7875 2.68262C76.1417 -3.17181 86.3723 1.76349 85.7529 10.3753L84.9937 20.6855C84.634 25.6407 88.1507 30.0365 93.0463 30.7958L103.257 32.3543C111.789 33.6531 114.327 44.7425 107.193 49.6179L98.6611 55.4523C94.5649 58.2697 93.306 63.7444 95.7838 68.0603L100.939 77.0118C105.235 84.5046 98.1616 93.3962 89.8891 90.8586L79.9983 87.8415C75.2426 86.3829 70.1672 88.8205 68.3489 93.4561L64.5523 103.067C61.3752 111.099 50.0056 111.099 46.8285 103.067L43.0321 93.4561C41.2137 88.8405 36.1383 86.3829 31.3827 87.8415L21.4917 90.8586C13.2392 93.3962 6.14564 84.5046 10.4417 77.0118L15.597 68.0603C18.0748 63.7444 16.8159 58.2697 12.7197 55.4523L4.18755 49.6179C-2.94593 44.7425 -0.408313 33.6531 8.12389 32.3543L18.3345 30.7958C23.25 30.0365 26.7469 25.6407 26.3872 20.6855L25.6279 10.3753C25.0085 1.76349 35.2391 -3.17181 41.5933 2.68262L49.1863 9.69594C52.843 13.0727 58.4579 13.0727 62.1146 9.69594H62.1945Z" fill="#1E1E1E"/>
</svg>
