<svg width="103" height="102" viewBox="0 0 103 102" fill="none" xmlns="http://www.w3.org/2000/svg">
<path d="M76.0593 50.7608C75.8195 50.7608 75.5797 50.7608 75.3599 50.7608C75.3599 50.7208 75.3599 50.7008 75.3599 50.6609C75.9994 50.7008 76.6388 50.7408 77.2782 50.7408C91.5851 50.7408 103.115 38.8121 102.455 24.3459C101.836 10.9987 90.4461 0.228911 77.0783 0.328816C63.7106 0.428721 52.5208 11.2584 52.1012 24.7256C52.1012 24.7256 52.0812 24.7256 52.0612 24.7256C51.6416 11.2384 40.6317 0.428721 27.0841 0.328816C13.7163 0.228911 2.32666 10.9787 1.70723 24.3459C1.04783 38.8121 12.5773 50.7408 26.8842 50.7408C26.8842 50.7408 26.8842 50.7608 26.8842 50.7807C26.4846 50.7807 26.0649 50.7408 25.6653 50.7408C11.3584 50.7408 -0.171028 62.6694 0.488369 77.1356C1.08782 89.9634 11.6382 100.533 24.4665 101.113C38.9332 101.772 50.8623 90.2431 50.8623 75.9368C50.8623 90.2431 62.7914 101.772 77.2582 101.113C90.0864 100.513 100.657 89.9634 101.236 77.1356C101.896 62.6694 90.3662 50.7408 76.0593 50.7408V50.7608Z" fill="#1E1E1E"/>
</svg>
