<svg width="107" height="105" viewBox="0 0 107 105" fill="none" xmlns="http://www.w3.org/2000/svg">
<path d="M53.6648 9.09464L55.8827 6.53708C67.8118 -7.2298 90.2913 3.57989 86.9544 21.5028L86.3349 24.8197L89.7118 24.9595C107.915 25.6988 113.47 50.0156 97.3848 58.5675L94.4075 60.146L96.4057 62.8634C107.176 77.5494 91.6301 97.0508 74.9054 89.8177L71.8082 88.479L70.929 91.7359C66.1533 109.319 41.2161 109.319 36.4405 91.7359L35.5613 88.479L32.4642 89.8177C15.7394 97.0508 0.193634 77.5494 10.9638 62.8634L12.962 60.146L9.9847 58.5675C-6.10059 50.0156 -0.545678 25.6788 17.6577 24.9595L21.0346 24.8197L20.4151 21.5028C17.0782 3.59987 39.5577 -7.2298 51.4868 6.53708L53.7047 9.09464H53.6648Z" fill="#1E1E1E"/>
</svg>
