<svg width="94" height="102" viewBox="0 0 94 102" fill="none" xmlns="http://www.w3.org/2000/svg">
<path d="M85.8485 58.733C90.4443 63.3087 93.2817 69.6426 93.2817 76.6359C93.2817 90.6426 81.9321 101.992 67.9449 101.992H25.3638C18.3702 101.992 12.036 99.1545 7.46019 94.5589C2.86439 89.9832 0.0269775 83.6293 0.0269775 76.6359C0.0269775 62.6493 11.3766 51.3001 25.3638 51.3001C18.3702 51.3001 12.036 48.4628 7.46019 43.8672C2.86439 39.2915 0.0269775 32.9576 0.0269775 25.9642C0.0269775 11.9576 11.3766 0.608398 25.3638 0.608398H67.9449C74.9385 0.608398 81.2727 3.44569 85.8485 8.04132C90.4443 12.617 93.2817 18.9709 93.2817 25.9642C93.2817 39.9509 81.9321 51.3001 67.9449 51.3001C74.9385 51.3001 81.2727 54.1374 85.8485 58.733Z" fill="#1E1E1E"/>
</svg>
