<svg width="275" height="304" viewBox="0 0 275 304" fill="none" xmlns="http://www.w3.org/2000/svg">
<path d="M274.652 133.665V174.948C274.652 181.74 272.336 187.878 268.623 192.335C264.893 196.775 259.748 199.517 254.056 199.517C242.706 199.517 233.478 188.515 233.478 174.948C233.478 181.74 231.162 187.878 227.449 192.335C223.736 196.775 218.592 199.517 212.899 199.517C201.55 199.517 192.339 188.515 192.339 174.948V133.665C192.339 126.872 194.655 120.735 198.367 116.277C202.098 111.838 207.224 109.096 212.917 109.096C224.285 109.096 233.495 120.098 233.495 133.665C233.495 126.872 235.811 120.735 239.524 116.277C243.254 111.838 248.398 109.096 254.073 109.096C265.441 109.096 274.652 120.098 274.652 133.665Z" fill="#E94F1E"/>
<path d="M194.278 224.657L210.702 249.544L217.632 260.051L210.702 270.557L194.278 295.444C191.927 299.017 194.26 304.005 198.291 304.005H267.274C271.305 304.005 273.638 299.017 271.287 295.444L254.863 270.557L247.933 260.051L254.863 249.544L271.287 224.657C273.638 221.084 271.305 216.096 267.274 216.096H198.291C194.26 216.096 191.927 221.084 194.278 224.657Z" fill="#F087B5"/>
<path d="M143.974 93.0105C137.008 93.0105 130.573 91.8608 124.722 89.5614C118.852 87.262 113.778 84.0605 109.482 79.9215C105.186 75.8002 101.881 70.9007 99.5292 65.2406C97.1956 59.5805 96.0288 53.3543 96.0288 46.5445C96.0288 39.7347 97.2487 33.6324 99.6707 27.9723C102.093 22.3121 105.469 17.3949 109.818 13.2383C114.15 9.06393 119.294 5.84474 125.252 3.54532C131.21 1.2459 137.715 0.0961914 144.769 0.0961914C149.012 0.0961914 153.167 0.626817 157.198 1.68809C161.228 2.74936 165.047 4.3059 168.618 6.34001C172.189 8.37411 175.371 10.9389 178.182 13.9989L163.014 31.616C161.564 30.0064 159.955 28.556 158.17 27.2824C156.384 26.0089 154.369 25.0007 152.106 24.2755C149.861 23.5503 147.368 23.1965 144.646 23.1965C141.499 23.1965 138.546 23.7272 135.789 24.7884C133.031 25.8497 130.626 27.4063 128.576 29.4404C126.542 31.4745 124.934 33.9507 123.785 36.8339C122.635 39.7347 122.07 43.0423 122.07 46.7921C122.07 50.542 122.635 53.5843 123.785 56.432C124.934 59.2798 126.596 61.703 128.752 63.7017C130.927 65.7005 133.508 67.257 136.531 68.3537C139.554 69.468 142.931 70.0163 146.679 70.0163C149.313 70.0163 151.806 69.6272 154.139 68.8666C156.473 68.106 158.63 67.0801 160.574 65.8066C162.537 64.5331 164.269 63.1357 165.807 61.5969L177.793 80.6113C175.672 82.9992 172.79 85.1217 169.184 86.9967C165.577 88.8716 161.564 90.3397 157.198 91.401C152.813 92.4622 148.411 92.9929 143.991 92.9929L143.974 93.0105Z" fill="white"/>
<path d="M264.702 70.1753V90.2157H200.316V4.14648H262.864V24.1868H223.67V37.099H257.949V56.0427H223.67V70.1753H264.702Z" fill="white"/>
<path d="M45.538 200.429C39.0322 200.429 33.2335 199.686 28.142 198.218C23.0682 196.75 18.5955 194.61 14.7238 191.833C10.8521 189.056 7.40477 185.801 4.36401 182.051L19.4794 164.983C23.8284 170.625 28.3012 174.393 32.8977 176.25C37.4941 178.125 41.9669 179.044 46.3159 179.044C48.2252 179.044 49.9577 178.85 51.5311 178.461C53.0869 178.072 54.289 177.417 55.1199 176.497C55.9509 175.578 56.3575 174.428 56.3575 173.048C56.3575 171.828 56.0039 170.784 55.3144 169.918C54.6249 169.051 53.6703 168.29 52.4504 167.636C51.2306 166.981 49.887 166.398 48.4197 165.885C46.9346 165.354 45.4673 164.947 43.9823 164.647C42.4973 164.346 41.0653 164.01 39.6863 163.674C34.5595 162.542 30.0867 161.109 26.2681 159.376C22.4495 157.642 19.2496 155.573 16.6862 153.185C14.1227 150.797 12.2134 148.038 10.9582 144.907C9.70302 141.776 9.06658 138.256 9.06658 134.347C9.06658 130.084 10.0566 126.175 12.072 122.62C14.0697 119.065 16.7215 115.987 20.0098 113.422C23.3157 110.858 27.1167 108.912 31.4126 107.55C35.7086 106.206 40.199 105.534 44.9016 105.534C51.319 105.534 56.7994 106.17 61.3075 107.426C65.8156 108.682 69.6166 110.486 72.7104 112.839C75.7865 115.191 78.456 117.915 80.7189 121.046L65.3383 135.904C63.5174 133.905 61.5374 132.26 59.4159 130.951C57.2944 129.642 55.1023 128.669 52.8394 128.015C50.5765 127.361 48.2782 127.042 45.927 127.042C43.7525 127.042 41.8608 127.254 40.252 127.697C38.6433 128.139 37.4058 128.758 36.5395 129.589C35.6732 130.421 35.2313 131.517 35.2313 132.914C35.2313 134.135 35.7086 135.196 36.6632 136.116C37.6179 137.036 38.8377 137.796 40.3051 138.398C41.7724 138.999 43.3635 139.512 45.0607 139.901C46.7579 140.29 48.2959 140.626 49.6925 140.874C54.4658 141.829 58.8325 143.067 62.7926 144.588C66.7349 146.11 70.2 148.02 73.1524 150.319C76.1047 152.619 78.3676 155.431 79.9234 158.721C81.4791 162.029 82.2746 165.885 82.2746 170.324C82.2746 176.833 80.6482 182.334 77.3953 186.809C74.1424 191.284 69.758 194.681 64.2422 196.98C58.7264 199.279 52.5035 200.429 45.5557 200.429H45.538Z" fill="white"/>
<path d="M111.339 198.006V177.17H127.02V128.793H111.339V107.957H168.052V128.793H152.495V177.17H168.052V198.006H111.339Z" fill="white"/>
<path d="M81.9211 241.394C79.782 236.141 76.7589 231.595 72.7988 227.775C68.8564 223.954 64.2246 220.965 58.8679 218.825C53.5289 216.684 47.6065 215.623 41.1183 215.623H3.88672V301.958H41.1183C47.6065 301.958 53.5289 300.896 58.8679 298.756C64.2246 296.616 68.8564 293.644 72.7988 289.806C76.7589 285.985 79.782 281.422 81.9211 276.116C84.0602 270.809 85.1386 265.043 85.1386 258.799C85.1386 252.555 84.0602 246.665 81.9211 241.394ZM58.9916 267.802C58.0193 270.508 56.658 272.826 54.9255 274.771C53.2107 276.699 51.1246 278.203 48.7026 279.264C46.2806 280.343 43.5403 280.874 40.4996 280.874H28.3012V236.707H40.4996C43.5403 236.707 46.2629 237.255 48.6495 238.317C51.0185 239.378 53.1046 240.881 54.8725 242.827C56.6404 244.755 58.0193 247.072 58.9916 249.796C59.9817 252.502 60.4767 255.509 60.4767 258.799C60.4767 262.089 59.9817 265.078 58.9916 267.802Z" fill="white"/>
<path d="M148.305 215.764H128.629L94.3494 301.816H118.074L123.343 287.559H152.866L158.135 301.816H182.337L148.305 215.764ZM129.689 270.349L132.819 261.859C133.632 259.577 134.392 257.472 135.081 255.597C135.789 253.705 136.425 251.9 136.991 250.185C137.397 248.964 137.786 247.708 138.175 246.4C138.546 247.691 138.935 248.947 139.324 250.185C139.908 251.989 140.509 253.828 141.163 255.721C141.817 257.596 142.56 259.648 143.39 261.859L146.52 270.349H129.689Z" fill="white"/>
<path d="M82.9477 5.0924V87.5179C82.9477 89.6404 81.2329 91.3561 79.1114 91.3561H4.41834C2.29688 91.3561 0.582031 89.6404 0.582031 87.5179V60.65C0.582031 23.134 18.6144 3.32362 41.5969 1.25414C43.8068 1.05957 45.6984 2.86373 45.6984 5.0924V24.0538C53.0705 10.1511 65.0037 2.54534 78.7048 1.27182C80.9854 1.05956 82.9654 2.81066 82.9654 5.11008L82.9477 5.0924Z" fill="#F086B5"/>
</svg>
