<svg width="282" height="306" viewBox="0 0 282 306" fill="none" xmlns="http://www.w3.org/2000/svg">
<path d="M78.3544 266.694C82.4205 270.744 84.9309 276.351 84.9309 282.542C84.9309 294.941 74.8894 304.988 62.5142 304.988H24.8406C18.653 304.988 13.0488 302.476 9.00036 298.408C4.93422 294.358 2.42383 288.733 2.42383 282.542C2.42383 270.161 12.4654 260.114 24.8406 260.114C18.653 260.114 13.0488 257.602 9.00036 253.534C4.93422 249.483 2.42383 243.876 2.42383 237.686C2.42383 225.286 12.4654 215.24 24.8406 215.24H62.5142C68.7018 215.24 74.3059 217.751 78.3544 221.82C82.4205 225.87 84.9309 231.495 84.9309 237.686C84.9309 250.067 74.8894 260.114 62.5142 260.114C68.7018 260.114 74.3059 262.626 78.3544 266.694Z" fill="#54C1DC"/>
<path d="M47.0053 95.234C40.2696 95.234 34.0644 94.1197 28.3895 91.9087C22.7146 89.68 17.7998 86.5847 13.663 82.5872C9.50846 78.6074 6.30859 73.8671 4.0457 68.4015C1.78281 62.936 0.651367 56.9044 0.651367 50.3245C0.651367 43.7446 1.81817 37.8369 4.16946 32.3713C6.52074 26.9058 9.77365 22.1478 13.9635 18.1149C18.1534 14.0821 23.1212 10.9513 28.8845 8.74036C34.6301 6.51169 40.9238 5.41504 47.7478 5.41504C51.8493 5.41504 55.8624 5.92799 59.7694 6.95388C63.6764 7.97978 67.3536 9.48325 70.801 11.4643C74.2484 13.4453 77.3421 15.9039 80.047 18.8578L65.3736 35.8912C63.977 34.3347 62.4212 32.9374 60.6887 31.6992C58.9562 30.4611 57.0115 29.5059 54.837 28.7984C52.6625 28.1086 50.2582 27.7548 47.624 27.7548C44.5833 27.7548 41.7193 28.2678 39.0498 29.2937C36.3803 30.3196 34.0467 31.823 32.0843 33.8041C30.122 35.7851 28.5662 38.1553 27.4525 40.9677C26.3387 43.7623 25.7907 46.9815 25.7907 50.5899C25.7907 54.1982 26.3387 57.1521 27.4525 59.9114C28.5662 62.6707 30.1573 65.0055 32.2611 66.9511C34.3649 68.8791 36.8576 70.3826 39.7746 71.4615C42.6916 72.5228 45.9622 73.0711 49.5864 73.0711C52.1321 73.0711 54.5365 72.6997 56.7993 71.9568C59.0622 71.2139 61.1307 70.2234 63.0223 69.0029C64.9139 67.7648 66.5934 66.4205 68.0784 64.9347L79.6758 83.3124C77.625 85.6118 74.8494 87.6636 71.349 89.4855C67.8486 91.2896 63.9946 92.7224 59.7517 93.7483C55.5088 94.7741 51.2659 95.2871 46.9876 95.2871L47.0053 95.234Z" fill="white"/>
<path d="M168.724 74.0796V94.1199H104.32V8.05078H166.868V28.0911H127.674V41.0033H161.953V59.9293H127.674V74.0796H168.724Z" fill="white"/>
<path d="M137.026 204.333C130.52 204.333 124.721 203.59 119.63 202.122C114.556 200.654 110.083 198.514 106.211 195.737C102.34 192.96 98.8923 189.705 95.8516 185.955L110.967 168.886C115.316 174.529 119.789 178.296 124.385 180.154C128.982 182.028 133.454 182.948 137.803 182.948C139.713 182.948 141.445 182.754 143.019 182.365C144.574 181.975 145.777 181.321 146.607 180.401C147.438 179.481 147.845 178.332 147.845 176.952C147.845 175.732 147.491 174.688 146.802 173.821C146.112 172.955 145.158 172.194 143.938 171.54C142.718 170.885 141.375 170.301 139.907 169.789C138.422 169.258 136.955 168.851 135.47 168.55C133.985 168.25 132.553 167.914 131.174 167.578C126.047 166.445 121.574 165.013 117.756 163.279C113.937 161.546 110.737 159.476 108.174 157.089C105.61 154.701 103.701 151.941 102.446 148.811C101.191 145.68 100.554 142.16 100.554 138.251C100.554 133.988 101.544 130.079 103.56 126.524C105.557 122.969 108.209 119.891 111.497 117.326C114.803 114.762 118.604 112.816 122.9 111.454C127.196 110.11 131.687 109.438 136.389 109.438C142.807 109.438 148.287 110.074 152.795 111.33C157.303 112.586 161.104 114.39 164.198 116.743C167.274 119.095 169.944 121.819 172.206 124.95L156.826 139.808C155.005 137.809 153.025 136.164 150.903 134.855C148.782 133.546 146.59 132.573 144.327 131.919C142.064 131.264 139.766 130.946 137.415 130.946C135.24 130.946 133.348 131.158 131.74 131.6C130.131 132.043 128.893 132.662 128.027 133.493C127.161 134.324 126.719 135.421 126.719 136.818C126.719 138.039 127.196 139.1 128.151 140.02C129.105 140.94 130.325 141.7 131.793 142.302C133.26 142.903 134.851 143.416 136.548 143.805C138.245 144.194 139.783 144.53 141.18 144.778C145.953 145.733 150.32 146.971 154.28 148.492C158.222 150.013 161.688 151.924 164.64 154.223C167.592 156.523 169.855 159.335 171.411 162.625C172.967 165.933 173.762 169.788 173.762 174.228C173.762 180.737 172.136 186.238 168.883 190.713C165.63 195.188 161.246 198.584 155.73 200.884C150.214 203.183 143.991 204.333 137.043 204.333H137.026Z" fill="white"/>
<path d="M202.579 201.91V181.073H218.26V132.697H202.579V111.861H259.293V132.697H243.735V181.073H259.293V201.91H202.579Z" fill="white"/>
<path d="M176.326 245.298C174.205 240.045 171.164 235.499 167.204 231.678C163.262 227.858 158.63 224.869 153.273 222.728C147.934 220.588 142.012 219.527 135.524 219.527H98.292V305.861H135.524C142.012 305.861 147.934 304.8 153.273 302.66C158.63 300.52 163.262 297.53 167.204 293.71C171.164 289.889 174.205 285.326 176.326 280.019C178.465 274.713 179.544 268.947 179.544 262.703C179.544 256.459 178.465 250.569 176.326 245.298ZM153.397 271.706C152.425 274.412 151.063 276.729 149.331 278.675C147.616 280.603 145.53 282.107 143.108 283.168C140.686 284.247 137.946 284.777 134.905 284.777H122.706V240.611H134.905C137.946 240.611 140.668 241.159 143.055 242.22C145.424 243.282 147.51 244.785 149.278 246.713C151.046 248.659 152.425 250.976 153.397 253.7C154.387 256.406 154.882 259.413 154.882 262.703C154.882 265.993 154.387 268.982 153.397 271.706Z" fill="white"/>
<path d="M242.71 219.668H223.033L188.754 305.719H212.479L217.747 291.463H247.271L252.539 305.719H276.741L242.71 219.668ZM224.094 274.253L227.223 265.763C228.036 263.481 228.796 261.376 229.486 259.501C230.193 257.608 230.83 255.804 231.395 254.089C231.802 252.868 232.191 251.612 232.58 250.303C232.951 251.595 233.34 252.85 233.729 254.089C234.312 255.893 234.913 257.732 235.567 259.625C236.239 261.5 236.964 263.552 237.795 265.763L240.924 274.253H224.094Z" fill="white"/>
<path d="M238.42 8.70364L245.138 2.49519C250.76 -2.68735 259.812 1.68155 259.264 9.30502L258.592 18.432C258.273 22.8186 261.385 26.7099 265.716 27.382L274.75 28.7617C282.299 29.9114 284.544 39.7282 278.233 44.044L270.684 49.2089C267.06 51.7028 265.946 56.5493 268.138 60.3699L272.699 68.2941C276.5 74.927 270.242 82.7981 262.923 80.5518L254.172 77.8809C249.964 76.5897 245.474 78.7476 243.865 82.8512L240.506 91.359C237.695 98.4696 227.636 98.4696 224.825 91.359L221.466 82.8512C219.857 78.7653 215.367 76.5897 211.159 77.8809L202.408 80.5518C195.107 82.7981 188.831 74.927 192.632 68.2941L197.193 60.3699C199.385 56.5493 198.272 51.7028 194.647 49.2089L187.099 44.044C180.787 39.7282 183.032 29.9114 190.581 28.7617L199.615 27.382C203.964 26.7099 207.058 22.8186 206.74 18.432L206.068 9.30502C205.52 1.68155 214.571 -2.68735 220.193 2.49519L226.911 8.70364C230.146 11.6929 235.114 11.6929 238.349 8.70364H238.42Z" fill="#54C1DC"/>
<path d="M84.5243 199.236H11.9881C6.70209 199.236 2.42383 194.955 2.42383 189.666V109.24C47.77 109.24 84.5243 146.013 84.5243 191.382V199.218V199.236Z" fill="#F086B5"/>
</svg>
