<svg width="278" height="306" viewBox="0 0 278 306" fill="none" xmlns="http://www.w3.org/2000/svg">
<path d="M143.93 94.6308C136.841 94.6308 130.3 93.4634 124.342 91.1286C118.367 88.7938 113.204 85.5215 108.838 81.3295C104.471 77.1375 101.094 72.1672 98.7254 66.4009C96.3388 60.6524 95.1543 54.3024 95.1543 47.3865C95.1543 40.4705 96.3918 34.2621 98.8492 28.4959C101.307 22.7473 104.754 17.7416 109.156 13.4965C113.558 9.25145 118.791 5.96151 124.855 3.62671C130.901 1.29191 137.53 0.124512 144.708 0.124512C149.039 0.124512 153.247 0.672836 157.348 1.7518C161.45 2.83076 165.322 4.40498 168.963 6.49214C172.605 8.57931 175.84 11.1617 178.687 14.2748L163.253 32.1926C161.786 30.5476 160.142 29.0795 158.321 27.7883C156.5 26.4971 154.449 25.4712 152.151 24.746C149.853 24.0208 147.325 23.6494 144.567 23.6494C141.367 23.6494 138.361 24.1977 135.55 25.2767C132.739 26.3556 130.3 27.9298 128.214 30.017C126.128 32.1042 124.519 34.5982 123.352 37.552C122.185 40.4882 121.602 43.8666 121.602 47.6695C121.602 51.4724 122.185 54.5678 123.352 57.4686C124.519 60.3694 126.198 62.828 128.408 64.8621C130.618 66.8962 133.252 68.4704 136.328 69.6025C139.404 70.7345 142.834 71.2828 146.635 71.2828C149.322 71.2828 151.85 70.8937 154.219 70.1154C156.606 69.3371 158.78 68.2935 160.778 67.0023C162.758 65.7111 164.544 64.2784 166.099 62.7219L178.298 82.0547C176.141 84.478 173.224 86.6359 169.547 88.5462C165.87 90.4565 161.803 91.9422 157.348 93.0212C152.893 94.1002 148.421 94.6485 143.93 94.6485V94.6308Z" fill="white"/>
<path d="M264.871 70.3807V90.4211H200.485V4.36963H263.032V24.41H223.838V37.3044H258.118V56.2481H223.838V70.3807H264.871Z" fill="white"/>
<path d="M42.2061 201.253C35.7003 201.253 29.9017 200.51 24.8102 199.042C19.7363 197.574 15.2636 195.434 11.3919 192.657C7.52026 189.88 4.07286 186.625 1.0321 182.876L16.1475 165.807C20.4965 171.449 24.9693 175.217 29.5658 177.074C34.1623 178.949 38.635 179.869 42.984 179.869C44.8933 179.869 46.6258 179.674 48.1992 179.285C49.755 178.896 50.9572 178.241 51.7881 177.322C52.619 176.402 53.0256 175.252 53.0256 173.872C53.0256 172.652 52.672 171.608 51.9825 170.742C51.293 169.875 50.3384 169.114 49.1186 168.46C47.8987 167.806 46.5551 167.222 45.0878 166.709C43.6028 166.178 42.1354 165.771 40.6504 165.471C39.1654 165.17 37.7334 164.834 36.3544 164.498C31.2276 163.366 26.7548 161.933 22.9362 160.2C19.1176 158.466 15.9177 156.397 13.3543 154.009C10.7908 151.621 8.88153 148.862 7.62633 145.731C6.37113 142.6 5.73468 139.08 5.73468 135.171C5.73468 130.909 6.72472 127 8.7401 123.444C10.7378 119.889 13.3896 116.811 16.6779 114.247C19.9838 111.682 23.7848 109.736 28.0808 108.374C32.3767 107.03 36.8671 106.358 41.5697 106.358C47.9871 106.358 53.4676 106.995 57.9757 108.251C62.4838 109.506 66.2847 111.311 69.3785 113.663C72.4546 116.015 75.1241 118.739 77.387 121.87L62.0064 136.728C60.1855 134.729 58.2055 133.084 56.084 131.775C53.9626 130.466 51.7704 129.494 49.5075 128.839C47.2446 128.185 44.9463 127.866 42.5951 127.866C40.4206 127.866 38.5289 128.079 36.9202 128.521C35.3114 128.963 34.0739 129.582 33.2076 130.413C32.3413 131.245 31.8994 132.341 31.8994 133.739C31.8994 134.959 32.3767 136.02 33.3314 136.94C34.286 137.86 35.5059 138.621 36.9732 139.222C38.4405 139.823 40.0316 140.336 41.7288 140.725C43.426 141.115 44.964 141.451 46.3607 141.698C51.1339 142.653 55.5006 143.892 59.4607 145.413C63.4031 146.934 66.8681 148.844 69.8205 151.144C72.7728 153.443 75.0357 156.255 76.5915 159.545C78.1472 162.853 78.9427 166.709 78.9427 171.149C78.9427 177.658 77.3163 183.159 74.0634 187.634C70.8105 192.109 66.4261 195.505 60.9103 197.804C55.3945 200.104 49.1716 201.253 42.2238 201.253H42.2061Z" fill="white"/>
<path d="M108.166 198.83V177.994H123.847V129.618H108.166V108.781H164.879V129.618H149.322V177.994H164.879V198.83H108.166Z" fill="white"/>
<path d="M176.636 242.218C174.497 236.965 171.456 232.419 167.514 228.599C163.571 224.778 158.922 221.789 153.583 219.649C148.244 217.509 142.321 216.447 135.833 216.447H98.6016V302.782H135.833C142.321 302.782 148.244 301.72 153.583 299.58C158.922 297.44 163.571 294.451 167.514 290.63C171.456 286.81 174.497 282.246 176.636 276.94C178.775 271.633 179.836 265.867 179.836 259.623C179.836 253.38 178.775 247.489 176.636 242.218ZM153.707 268.626C152.717 271.333 151.373 273.65 149.64 275.595C147.908 277.523 145.839 279.027 143.417 280.088C140.995 281.167 138.255 281.698 135.214 281.698H123.016V237.531H135.214C138.255 237.531 140.96 238.08 143.347 239.141C145.733 240.202 147.802 241.706 149.57 243.634C151.338 245.579 152.717 247.896 153.707 250.62C154.697 253.326 155.192 256.333 155.192 259.623C155.192 262.913 154.697 265.903 153.707 268.626Z" fill="white"/>
<path d="M243.002 216.589H223.343L189.064 302.64H212.772L218.04 288.384H247.563L252.832 302.64H277.052L243.002 216.589ZM224.387 271.174L227.516 262.683C228.347 260.402 229.107 258.297 229.796 256.422C230.486 254.529 231.122 252.725 231.705 251.009C232.112 249.789 232.501 248.515 232.89 247.207C233.244 248.498 233.632 249.754 234.039 251.009C234.605 252.814 235.224 254.653 235.878 256.546C236.532 258.421 237.274 260.472 238.088 262.683L241.217 271.174H224.387Z" fill="white"/>
<path d="M82.9611 40.3234C80.7336 69.7206 57.2738 93.1747 27.9092 95.4034C25.4165 95.5979 23.3127 93.5638 23.3127 91.0699V60.5229C17.6555 62.8577 11.5739 64.3258 5.22725 64.8211C2.73453 65.0156 0.630737 62.9815 0.630737 60.4875V9.45801C0.630737 7.07014 2.57543 5.12451 4.96207 5.12451H55.9655C58.4582 5.12451 60.4736 7.22936 60.2968 9.70566C59.5897 19.151 56.6727 27.9949 52.0762 35.6891H78.6474C81.1402 35.6891 83.1732 37.794 82.9788 40.288L82.9611 40.3234Z" fill="#FDC609"/>
<path d="M5.42299 215.125H79.2675C81.6541 215.125 83.5988 217.07 83.5988 219.458V264.279C83.5988 287.061 65.1067 305.563 42.3364 305.563C19.5837 305.563 1.09167 287.079 1.09167 264.297V219.476C1.09167 217.07 3.03635 215.125 5.42299 215.125Z" fill="#FDC609"/>
<path d="M271.457 113.977V196.403C271.457 198.525 269.743 200.241 267.621 200.241H192.928C190.807 200.241 189.092 198.525 189.092 196.403V169.535C189.092 132.019 207.124 112.208 230.107 110.139C232.317 109.944 234.208 111.748 234.208 113.977V132.939C241.58 119.036 253.513 111.43 267.215 110.157C269.495 109.944 271.475 111.695 271.475 113.995L271.457 113.977Z" fill="#2EAA53"/>
</svg>
