<svg width="284" height="306" viewBox="0 0 284 306" fill="none" xmlns="http://www.w3.org/2000/svg">
<path d="M43.1735 215.125C65.9438 215.125 84.4359 233.626 84.4359 256.408V264.279C84.4359 287.061 65.9438 305.563 43.1735 305.563H6.24241C3.85577 305.563 1.91113 303.617 1.91113 301.229V256.408C1.91113 233.626 20.4031 215.125 43.1735 215.125Z" fill="#2EAA53"/>
<path d="M47.7855 93.0645C40.8731 93.0645 34.5088 91.9324 28.6924 89.6507C22.8761 87.369 17.8376 84.1852 13.577 80.0993C9.31642 76.0134 6.02815 71.1669 3.71222 65.5598C1.3963 59.9528 0.229492 53.7797 0.229492 47.023C0.229492 40.2662 1.43167 34.2346 3.83599 28.6276C6.24031 23.0205 9.5816 18.1564 13.8776 14.0174C18.1735 9.87844 23.2827 6.67694 29.1697 4.3952C35.0745 2.11347 41.5096 0.981445 48.5104 0.981445C52.7179 0.981445 56.8371 1.51208 60.8325 2.55567C64.828 3.61694 68.6112 5.15578 72.147 7.1722C75.6828 9.18861 78.8473 11.718 81.6229 14.7603L66.5782 32.2182C65.1462 30.6086 63.5374 29.1759 61.7695 27.9201C60.0016 26.6465 58.0039 25.656 55.7587 24.9485C53.5312 24.241 51.0561 23.8695 48.369 23.8695C45.2575 23.8695 42.3228 24.4002 39.5826 25.4438C36.8424 26.505 34.4557 28.0439 32.4403 30.0603C30.4249 32.0767 28.8339 34.5353 27.7024 37.4008C26.571 40.2662 25.9876 43.5561 25.9876 47.2706C25.9876 50.985 26.5533 53.992 27.7024 56.822C28.8339 59.6521 30.478 62.0576 32.6348 64.0387C34.7916 66.0197 37.355 67.5586 40.3428 68.6552C43.3305 69.7519 46.6895 70.3002 50.402 70.3002C53.0185 70.3002 55.4758 69.9287 57.7918 69.1682C60.1077 68.4076 62.2292 67.3994 64.1738 66.1259C66.1185 64.87 67.8334 63.4727 69.3538 61.9515L81.2339 80.8068C79.1301 83.177 76.2839 85.2818 72.695 87.139C69.1062 88.9963 65.1462 90.4467 60.8149 91.5079C56.4659 92.5692 52.1169 93.0822 47.7325 93.0822L47.7855 93.0645Z" fill="white"/>
<path d="M169.981 70.6367V90.6771H105.595V4.60791H168.142V24.6483H128.948V37.5604H163.228V56.4864H128.948V70.6367H169.981Z" fill="white"/>
<path d="M43.1711 200.89C36.6653 200.89 30.8666 200.147 25.7751 198.679C20.7013 197.211 16.2285 195.071 12.3569 192.294C8.4852 189.517 5.03783 186.262 1.99707 182.512L17.1125 165.444C21.4615 171.086 25.9342 174.853 30.5307 176.711C35.1272 178.586 39.5999 179.505 43.9489 179.505C45.8582 179.505 47.5908 179.311 49.1642 178.922C50.72 178.533 51.9221 177.878 52.753 176.958C53.5839 176.039 53.9905 174.889 53.9905 173.509C53.9905 172.289 53.637 171.245 52.9475 170.378C52.258 169.512 51.3033 168.751 50.0835 168.097C48.8637 167.442 47.5201 166.859 46.0527 166.346C44.5677 165.815 43.1004 165.408 41.6153 165.107C40.1303 164.807 38.6983 164.471 37.3194 164.135C32.1925 163.003 27.7198 161.57 23.9011 159.836C20.0825 158.103 16.8827 156.034 14.3192 153.646C11.7558 151.258 9.84647 148.499 8.59127 145.368C7.33607 142.237 6.69965 138.717 6.69965 134.808C6.69965 130.545 7.68966 126.636 9.70504 123.081C11.7028 119.526 14.3546 116.448 17.6428 113.883C20.9488 111.319 24.7497 109.373 29.0457 108.011C33.3416 106.667 37.8321 105.995 42.5347 105.995C48.9521 105.995 54.4325 106.631 58.9406 107.887C63.4487 109.143 67.2497 110.947 70.3435 113.3C73.4196 115.652 76.0891 118.376 78.352 121.507L62.9714 136.365C61.1505 134.366 59.1704 132.721 57.049 131.412C54.9275 130.103 52.7353 129.13 50.4724 128.476C48.2095 127.821 45.9113 127.503 43.56 127.503C41.3855 127.503 39.4939 127.715 37.8851 128.158C36.2763 128.6 35.0388 129.219 34.1725 130.05C33.3063 130.881 32.8643 131.978 32.8643 133.375C32.8643 134.596 33.3417 135.657 34.2963 136.577C35.251 137.497 36.4708 138.257 37.9381 138.859C39.4055 139.46 40.9966 139.973 42.6938 140.362C44.3909 140.751 45.929 141.087 47.3256 141.335C52.0989 142.29 56.4656 143.528 60.4256 145.049C64.368 146.571 67.8331 148.481 70.7854 150.78C73.7378 153.08 76.0007 155.892 77.5564 159.182C79.1122 162.49 79.9077 166.346 79.9077 170.785C79.9077 177.294 78.2812 182.795 75.0283 187.27C71.7754 191.745 67.3911 195.141 61.8753 197.441C56.3595 199.74 50.1365 200.89 43.1888 200.89H43.1711Z" fill="white"/>
<path d="M109.449 198.467V177.631H125.13V129.254H109.449V108.418H166.163V129.254H150.606V177.631H166.163V198.467H109.449Z" fill="white"/>
<path d="M177.601 241.855C175.462 236.602 172.421 232.056 168.479 228.236C164.536 224.415 159.887 221.426 154.548 219.285C149.209 217.145 143.286 216.084 136.798 216.084H99.5664V302.418H136.798C143.286 302.418 149.209 301.357 154.548 299.217C159.887 297.077 164.536 294.087 168.479 290.267C172.421 286.446 175.462 281.883 177.601 276.576C179.74 271.27 180.818 265.504 180.818 259.26C180.818 253.016 179.74 247.126 177.601 241.855ZM154.671 268.263C153.681 270.969 152.338 273.287 150.605 275.232C148.89 277.16 146.804 278.664 144.382 279.725C141.96 280.804 139.22 281.335 136.179 281.335H123.981V237.168H136.179C139.22 237.168 141.943 237.716 144.312 238.778C146.698 239.839 148.784 241.342 150.552 243.27C152.32 245.216 153.681 247.533 154.671 250.257C155.661 252.963 156.156 255.97 156.156 259.26C156.156 262.55 155.661 265.539 154.671 268.263Z" fill="white"/>
<path d="M246.849 216.226H227.19L192.911 302.277H216.636L221.904 288.021H251.41L256.679 302.277H280.899L246.849 216.226ZM228.251 270.81L231.38 262.32C232.193 260.038 232.954 257.934 233.643 256.059C234.35 254.166 234.987 252.362 235.552 250.646C235.959 249.426 236.348 248.17 236.737 246.861C237.108 248.152 237.497 249.408 237.886 250.646C238.452 252.45 239.071 254.29 239.725 256.182C240.379 258.057 241.121 260.109 241.935 262.32L245.064 270.81H228.251Z" fill="white"/>
<path d="M276.916 92.8797H195.911V42.4693C195.911 19.0859 214.05 0.124512 236.413 0.124512C258.777 0.124512 276.916 19.0859 276.916 42.4693V92.8797Z" fill="#2EAA53"/>
<path d="M204.044 197.54C193.03 198.92 185.782 186.361 192.499 177.517C205.741 160.042 216.719 140.992 225.223 120.792C229.537 110.569 244.016 110.569 248.329 120.792C256.833 140.992 267.829 160.042 281.053 177.517C287.753 186.361 280.505 198.92 269.508 197.54C247.781 194.816 225.789 194.816 204.044 197.54Z" fill="#54C1DC"/>
</svg>
