<svg width="287" height="311" viewBox="0 0 287 311" fill="none" xmlns="http://www.w3.org/2000/svg">
<path d="M256.525 44.3789C256.313 44.3789 256.119 44.3789 255.907 44.3789C255.907 44.3435 255.907 44.3258 255.907 44.2904C256.472 44.3258 257.02 44.3612 257.586 44.3612C269.838 44.3612 279.755 34.4383 279.755 22.1806C279.755 9.9229 269.838 0 257.586 0C245.335 0 235.806 9.55143 235.435 21.4731C235.435 21.4731 235.417 21.4731 235.399 21.4731C235.028 9.55143 225.252 0 213.248 0C201.244 0 191.078 9.9229 191.078 22.1806C191.078 34.4383 200.996 44.3612 213.248 44.3612C213.248 44.3612 213.248 44.3789 213.248 44.3965C212.894 44.3965 212.54 44.3612 212.169 44.3612C199.918 44.3612 190 54.2841 190 66.5418C190 78.7995 199.918 88.7223 212.169 88.7223C224.421 88.7223 234.338 78.7995 234.338 66.5418C234.338 78.7995 244.256 88.7223 256.508 88.7223C268.759 88.7223 278.677 78.7995 278.677 66.5418C278.677 54.2841 268.759 44.3612 256.508 44.3612L256.525 44.3789Z" fill="#E94F1E"/>
<path d="M49.945 92.9144C42.9795 92.9144 36.5444 91.7647 30.6927 89.4653C24.8233 87.1658 19.7495 83.9643 15.4536 79.8254C11.1576 75.7041 7.85166 70.8045 5.50037 65.1444C3.16677 59.4843 2 53.2582 2 46.4484C2 39.6385 3.21984 33.5362 5.64184 27.8761C8.06384 22.216 11.4405 17.2987 15.7895 13.1421C20.1208 8.96776 25.2653 5.74858 31.2231 3.44916C37.1809 1.14973 43.6867 0 50.7405 0C54.9834 0 59.138 0.530652 63.1687 1.59192C67.1995 2.6532 71.0182 4.20971 74.5893 6.24382C78.1604 8.27792 81.3426 10.8427 84.1535 13.9027L68.9851 31.5198C67.5354 29.9102 65.9267 28.4598 64.1411 27.1863C62.3555 25.9127 60.3401 24.9045 58.0772 24.1793C55.832 23.4541 53.3393 23.1004 50.6168 23.1004C47.47 23.1004 44.5176 23.631 41.7597 24.6923C39.0018 25.7535 36.5974 27.3101 34.5467 29.3442C32.5136 31.3783 30.9049 33.8546 29.7557 36.7377C28.6066 39.6385 28.0409 42.9462 28.0409 46.696C28.0409 50.4458 28.6066 53.4881 29.7557 56.3359C30.9049 59.1836 32.5667 61.6069 34.7235 63.6056C36.898 65.6043 39.4791 67.1609 42.5022 68.2575C45.5252 69.3718 48.9019 69.9201 52.6499 69.9201C55.284 69.9201 57.7767 69.531 60.1103 68.7704C62.4439 68.0099 64.6007 66.984 66.5454 65.7104C68.5077 64.4369 70.2402 63.0396 71.7783 61.5007L83.7646 80.5152C81.6432 82.903 78.7615 85.0256 75.155 86.9005C71.5485 88.7754 67.5354 90.2435 63.1687 91.3048C58.7844 92.366 54.3823 92.8967 49.9626 92.8967L49.945 92.9144Z" fill="white"/>
<path d="M171.381 68.7528V88.7932H106.995V2.7417H169.542V22.7821H130.348V35.6942H164.628V54.6202H130.348V68.7528H171.381Z" fill="white"/>
<path d="M141.415 199.006C134.909 199.006 129.111 198.263 124.019 196.795C118.945 195.327 114.473 193.187 110.601 190.41C106.729 187.633 103.282 184.378 100.241 180.629L115.357 163.56C119.706 169.202 124.178 172.97 128.775 174.827C133.371 176.702 137.844 177.622 142.193 177.622C144.102 177.622 145.835 177.427 147.408 177.038C148.964 176.649 150.166 175.994 150.997 175.075C151.828 174.155 152.235 173.005 152.235 171.625C152.235 170.405 151.881 169.361 151.192 168.495C150.502 167.628 149.548 166.867 148.328 166.213C147.108 165.558 145.764 164.975 144.297 164.462C142.812 163.931 141.345 163.524 139.859 163.224C138.374 162.923 136.942 162.587 135.564 162.251C130.437 161.119 125.964 159.686 122.145 157.953C118.327 156.219 115.127 154.15 112.563 151.762C110 149.374 108.091 146.615 106.835 143.484C105.58 140.353 104.944 136.833 104.944 132.924C104.944 128.662 105.934 124.753 107.949 121.197C109.947 117.642 112.599 114.564 115.887 112C119.193 109.435 122.994 107.489 127.29 106.127C131.586 104.783 136.076 104.111 140.779 104.111C147.196 104.111 152.677 104.748 157.185 106.003C161.693 107.259 165.494 109.063 168.588 111.416C171.664 113.768 174.333 116.492 176.596 119.623L161.216 134.481C159.395 132.482 157.415 130.837 155.293 129.528C153.172 128.219 150.979 127.247 148.717 126.592C146.454 125.938 144.155 125.619 141.804 125.619C139.63 125.619 137.738 125.832 136.129 126.274C134.521 126.716 133.283 127.335 132.417 128.166C131.55 128.998 131.108 130.094 131.108 131.492C131.108 132.712 131.586 133.773 132.54 134.693C133.495 135.613 134.715 136.373 136.182 136.975C137.65 137.576 139.241 138.089 140.938 138.478C142.635 138.867 144.173 139.204 145.57 139.451C150.343 140.406 154.71 141.644 158.67 143.166C162.612 144.687 166.077 146.597 169.03 148.896C171.982 151.196 174.245 154.008 175.801 157.298C177.356 160.606 178.152 164.462 178.152 168.901C178.152 175.411 176.525 180.912 173.272 185.387C170.02 189.862 165.635 193.258 160.119 195.557C154.604 197.856 148.381 199.006 141.433 199.006H141.415Z" fill="white"/>
<path d="M205.254 196.601V175.764H220.935V127.388H205.254V106.552H261.967V127.388H246.41V175.764H261.967V196.601H205.254Z" fill="white"/>
<path d="M83.0221 239.989C80.8829 234.718 77.8422 230.172 73.8998 226.352C69.9574 222.531 65.3079 219.56 59.9689 217.419C54.6299 215.279 48.7075 214.2 42.2193 214.2H4.98767V300.552H42.2193C48.7075 300.552 54.6299 299.473 59.9689 297.333C65.3079 295.211 69.9574 292.221 73.8998 288.401C77.8422 284.58 80.8829 280.017 83.0221 274.71C85.1612 269.404 86.2219 263.62 86.2219 257.376C86.2219 251.132 85.1612 245.242 83.0221 239.989ZM60.0926 266.379C59.1026 269.086 57.7414 271.42 56.0265 273.348C54.294 275.276 52.2255 276.78 49.8035 277.859C47.3638 278.92 44.6413 279.451 41.6006 279.451H29.4022V235.302H41.6006C44.6413 235.302 47.3462 235.832 49.7329 236.894C52.1195 237.973 54.1879 239.476 55.9558 241.404C57.7237 243.332 59.1026 245.667 60.0926 248.373C61.0826 251.079 61.5776 254.086 61.5776 257.376C61.5776 260.666 61.0826 263.673 60.0926 266.379Z" fill="white"/>
<path d="M149.388 214.342H129.73L95.4503 300.411H119.158L124.426 286.137H153.95L159.218 300.411H183.42L149.388 214.342ZM130.773 268.927L133.902 260.454C134.733 258.155 135.475 256.068 136.182 254.175C136.872 252.3 137.508 250.496 138.092 248.762C138.498 247.542 138.887 246.268 139.258 244.959C139.63 246.251 140.019 247.524 140.425 248.762C140.991 250.567 141.61 252.424 142.264 254.299C142.918 256.191 143.661 258.243 144.474 260.454L147.603 268.927H130.773Z" fill="white"/>
<path d="M4.34898 113H78.1935C80.5801 113 82.5248 114.946 82.5248 117.334V162.155C82.5248 184.937 64.0327 203.438 41.2624 203.438C18.4921 203.438 0 184.937 0 162.155V117.334C0 114.946 1.94464 113 4.33128 113H4.34898Z" fill="#FDC609"/>
<path d="M222.09 217.673L194.201 245.576C187.462 252.318 187.462 263.248 194.201 269.99L222.09 297.894C228.828 304.636 239.753 304.636 246.492 297.894L274.381 269.99C281.119 263.248 281.119 252.318 274.381 245.576L246.492 217.673C239.753 210.931 228.828 210.931 222.09 217.673Z" fill="#E94F1D"/>
</svg>
