<svg width="296" height="312" viewBox="0 0 296 312" fill="none" xmlns="http://www.w3.org/2000/svg">
<path d="M40.1419 12.3078L12.2526 40.2114C5.51426 46.9532 5.51426 57.8837 12.2526 64.6255L40.1419 92.5291C46.8802 99.2709 57.8052 99.2709 64.5435 92.5291L92.4329 64.6255C99.1712 57.8837 99.1712 46.9532 92.4329 40.2114L64.5435 12.3078C57.8052 5.56606 46.8802 5.56606 40.1419 12.3078Z" fill="#FDC609"/>
<path d="M209.052 229.696V306.991C209.052 309.733 211.438 311.873 214.161 311.555C229.294 309.786 242.04 300.235 248.334 287.004C249.271 285.041 252.188 285.66 252.188 287.836V306.991C252.188 309.733 254.575 311.873 257.28 311.555C278.901 309.026 295.678 290.648 295.678 268.343C295.678 246.039 278.901 227.661 257.28 225.132C254.557 224.814 252.188 226.954 252.188 229.696V248.851C252.188 251.027 249.271 251.646 248.334 249.683C242.058 236.452 229.294 226.901 214.161 225.132C211.438 224.814 209.052 226.954 209.052 229.696Z" fill="#FDC609"/>
<path d="M159.81 102.015C152.844 102.015 146.409 100.865 140.557 98.5658C134.688 96.2664 129.614 93.0649 125.318 88.9259C121.022 84.8046 117.716 79.9051 115.365 74.245C113.032 68.5849 111.865 62.3587 111.865 55.5489C111.865 48.7391 113.085 42.6368 115.507 36.9767C117.929 31.3165 121.305 26.3993 125.654 22.2427C129.986 18.0683 135.13 14.8491 141.088 12.5497C147.046 10.2503 153.551 9.10059 160.605 9.10059C164.848 9.10059 169.003 9.63121 173.033 10.6925C177.064 11.7538 180.883 13.3103 184.454 15.3444C188.025 17.3785 191.207 19.9432 194.018 23.0033L178.85 40.6203C177.4 39.0108 175.791 37.5604 174.006 36.2868C172.22 35.0133 170.205 34.0051 167.942 33.2799C165.697 32.5547 163.204 32.2009 160.482 32.2009C157.335 32.2009 154.382 32.7316 151.624 33.7928C148.867 34.8541 146.462 36.4106 144.411 38.4447C142.361 40.4789 140.77 42.9551 139.621 45.8383C138.471 48.7391 137.906 52.0467 137.906 55.7965C137.906 59.5464 138.471 62.5887 139.621 65.4364C140.77 68.2842 142.431 70.7074 144.588 72.7061C146.763 74.7049 149.344 76.2614 152.367 77.3581C155.39 78.4724 158.767 79.0207 162.515 79.0207C165.149 79.0207 167.641 78.6316 169.975 77.871C172.309 77.1104 174.465 76.0845 176.41 74.811C178.373 73.5375 180.105 72.1401 181.643 70.6013L193.629 89.6157C191.508 92.0036 188.626 94.1261 185.02 96.0011C181.413 97.876 177.4 99.3441 173.033 100.405C168.649 101.467 164.247 101.997 159.827 101.997L159.81 102.015Z" fill="white"/>
<path d="M280.539 79.1797V99.22H216.152V13.1509H278.7V33.1912H239.488V46.1034H273.785V65.0471H239.488V79.1797H280.539Z" fill="white"/>
<path d="M156.15 209.433C149.645 209.433 143.846 208.691 138.754 207.222C133.681 205.754 129.208 203.614 125.336 200.837C121.464 198.06 118.017 194.806 114.976 191.056L130.092 173.987C134.441 179.629 138.913 183.397 143.51 185.254C148.106 187.129 152.579 188.049 156.928 188.049C158.838 188.049 160.57 187.854 162.143 187.465C163.699 187.076 164.901 186.422 165.732 185.502C166.563 184.582 166.97 183.432 166.97 182.053C166.97 180.832 166.616 179.789 165.927 178.922C165.237 178.055 164.283 177.295 163.063 176.64C161.843 175.986 160.499 175.402 159.032 174.889C157.547 174.358 156.08 173.952 154.595 173.651C153.11 173.35 151.678 173.014 150.299 172.678C145.172 171.546 140.699 170.113 136.88 168.38C133.062 166.647 129.862 164.577 127.298 162.189C124.735 159.801 122.826 157.042 121.571 153.911C120.315 150.781 119.679 147.261 119.679 143.352C119.679 139.089 120.669 135.18 122.684 131.625C124.682 128.069 127.334 124.992 130.622 122.427C133.928 119.862 137.729 117.916 142.025 116.554C146.321 115.21 150.811 114.538 155.514 114.538C161.931 114.538 167.412 115.175 171.92 116.431C176.428 117.687 180.229 119.491 183.323 121.843C186.399 124.196 189.068 126.92 191.331 130.05L175.951 144.908C174.13 142.909 172.15 141.264 170.028 139.956C167.907 138.647 165.715 137.674 163.452 137.019C161.189 136.365 158.891 136.047 156.539 136.047C154.365 136.047 152.473 136.259 150.864 136.701C149.256 137.143 148.018 137.762 147.152 138.594C146.286 139.425 145.844 140.522 145.844 141.919C145.844 143.139 146.321 144.201 147.276 145.12C148.23 146.04 149.45 146.801 150.917 147.402C152.385 148.004 153.976 148.516 155.673 148.906C157.37 149.295 158.908 149.631 160.305 149.878C165.078 150.834 169.445 152.072 173.405 153.593C177.347 155.114 180.812 157.024 183.765 159.324C186.717 161.623 188.98 164.436 190.536 167.726C192.091 171.033 192.887 174.889 192.887 179.329C192.887 185.838 191.26 191.339 188.008 195.814C184.755 200.289 180.37 203.685 174.855 205.984C169.339 208.284 163.116 209.433 156.168 209.433H156.15Z" fill="white"/>
<path d="M219.989 207.01V186.174H235.67V137.798H219.989V116.961H276.702V137.798H261.145V186.174H276.702V207.01H219.989Z" fill="white"/>
<path d="M97.7571 250.399C95.6179 245.145 92.5772 240.6 88.6348 236.779C84.6924 232.958 80.0429 229.969 74.7038 227.829C69.3648 225.689 63.4424 224.627 56.9543 224.627H19.7227V310.962H56.9543C63.4424 310.962 69.3648 309.901 74.7038 307.76C80.0429 305.62 84.6924 302.649 88.6348 298.81C92.5772 294.99 95.6179 290.426 97.7571 285.12C99.8962 279.814 100.957 274.047 100.957 267.804C100.957 261.56 99.8962 255.67 97.7571 250.399ZM74.8276 276.807C73.8376 279.513 72.494 281.83 70.7615 283.776C69.0289 285.704 66.9605 287.207 64.5385 288.268C62.1165 289.347 59.3763 289.878 56.3355 289.878H44.1371V245.711H56.3355C59.3763 245.711 62.0988 246.26 64.4678 247.321C66.8545 248.382 68.9406 249.886 70.7084 251.831C72.4586 253.759 73.8376 256.076 74.8276 258.8C75.8176 261.507 76.3126 264.514 76.3126 267.804C76.3126 271.093 75.8176 274.083 74.8276 276.807Z" fill="white"/>
<path d="M164.123 224.769H144.465L110.185 310.82H133.893L139.161 296.564H168.685L173.953 310.82H198.173L164.123 224.769ZM145.525 279.353L148.654 270.863C149.468 268.581 150.228 266.477 150.917 264.602C151.607 262.709 152.243 260.905 152.827 259.189C153.233 257.969 153.622 256.695 154.011 255.386C154.365 256.677 154.754 257.933 155.16 259.189C155.726 260.993 156.345 262.833 156.999 264.725C157.653 266.6 158.395 268.652 159.209 270.863L162.338 279.353H145.525Z" fill="white"/>
<path d="M55.6879 119.222C51.5334 118.921 47.4849 119.186 43.6309 119.947C41.4034 120.389 40.6963 123.184 42.3934 124.687C47.2728 129.056 50.1721 135.583 49.6064 142.782C48.7755 153.236 40.378 161.779 29.9475 162.769C22.9997 163.424 16.6531 160.841 12.2334 156.349C10.6423 154.739 7.86669 155.535 7.54847 157.781C7.07114 160.947 6.92971 164.22 7.15953 167.58C8.73295 190.522 27.6493 208.882 50.6141 209.748C77.1323 210.739 98.8243 188.93 97.6221 162.362C96.5967 139.598 78.4229 120.92 55.7233 119.239L55.6879 119.222Z" fill="#52C1DD"/>
</svg>
