<svg width="463" height="484" viewBox="0 0 463 484" fill="none" xmlns="http://www.w3.org/2000/svg">
<path d="M238.839 184.506C231.75 184.506 225.208 183.339 219.251 181.004C213.275 178.669 208.113 175.397 203.746 171.205C199.38 167.013 196.003 162.043 193.634 156.276C191.247 150.528 190.063 144.178 190.063 137.262C190.063 130.346 191.301 124.138 193.758 118.371C196.215 112.623 199.663 107.617 204.065 103.372C208.467 99.1269 213.7 95.837 219.763 93.5022C225.81 91.1674 232.439 90 239.617 90C243.948 90 248.156 90.5483 252.257 91.6273C256.359 92.7062 260.23 94.2805 263.872 96.3676C267.514 98.4548 270.749 101.037 273.595 104.15L258.162 122.068C256.694 120.423 255.05 118.955 253.229 117.664C251.409 116.373 249.358 115.347 247.06 114.622C244.761 113.896 242.233 113.525 239.475 113.525C236.275 113.525 233.27 114.073 230.459 115.152C227.648 116.231 225.208 117.805 223.122 119.892C221.036 121.98 219.427 124.474 218.261 127.428C217.094 130.364 216.511 133.742 216.511 137.545C216.511 141.348 217.094 144.443 218.261 147.344C219.427 150.245 221.107 152.703 223.317 154.738C225.527 156.772 228.161 158.346 231.237 159.478C234.313 160.61 237.743 161.158 241.544 161.158C244.231 161.158 246.759 160.769 249.128 159.991C251.515 159.213 253.689 158.169 255.687 156.878C257.667 155.587 259.452 154.154 261.008 152.597L273.207 171.93C271.05 174.353 268.133 176.511 264.455 178.422C260.778 180.332 256.712 181.818 252.257 182.897C247.802 183.976 243.329 184.524 238.839 184.524V184.506Z" fill="#1D1D1B"/>
<path d="M359.779 160.256V180.297H295.393V94.2451H357.94V114.285H318.746V127.18H353.026V146.124H318.746V160.256H359.779Z" fill="#1D1D1B"/>
<path d="M137.114 291.129C130.608 291.129 124.809 290.386 119.718 288.918C114.644 287.45 110.171 285.309 106.3 282.533C102.428 279.756 98.9807 276.501 95.9399 272.751L111.055 255.682C115.404 261.325 119.877 265.092 124.474 266.949C129.07 268.824 133.543 269.744 137.892 269.744C139.801 269.744 141.534 269.55 143.107 269.16C144.663 268.771 145.865 268.117 146.696 267.197C147.527 266.277 147.933 265.128 147.933 263.748C147.933 262.528 147.58 261.484 146.89 260.617C146.201 259.751 145.246 258.99 144.026 258.335C142.807 257.681 141.463 257.097 139.996 256.584C138.511 256.054 137.043 255.647 135.558 255.346C134.073 255.046 132.641 254.709 131.262 254.373C126.135 253.241 121.663 251.809 117.844 250.075C114.025 248.342 110.826 246.272 108.262 243.885C105.699 241.497 103.789 238.737 102.534 235.607C101.279 232.476 100.643 228.956 100.643 225.047C100.643 220.784 101.633 216.875 103.648 213.32C105.646 209.765 108.297 206.687 111.586 204.122C114.892 201.557 118.693 199.612 122.989 198.25C127.285 196.906 131.775 196.233 136.477 196.233C142.895 196.233 148.375 196.87 152.884 198.126C157.392 199.382 161.193 201.186 164.286 203.538C167.362 205.891 170.032 208.615 172.295 211.746L156.914 226.603C155.093 224.605 153.113 222.96 150.992 221.651C148.87 220.342 146.678 219.369 144.415 218.715C142.152 218.06 139.854 217.742 137.503 217.742C135.328 217.742 133.437 217.954 131.828 218.396C130.219 218.838 128.982 219.458 128.115 220.289C127.249 221.12 126.807 222.217 126.807 223.614C126.807 224.835 127.285 225.896 128.239 226.816C129.194 227.735 130.414 228.496 131.881 229.097C133.348 229.699 134.939 230.212 136.637 230.601C138.334 230.99 139.872 231.326 141.268 231.574C146.042 232.529 150.408 233.767 154.369 235.288C158.311 236.809 161.776 238.72 164.728 241.019C167.681 243.319 169.944 246.131 171.499 249.421C173.055 252.728 173.851 256.584 173.851 261.024C173.851 267.533 172.224 273.034 168.971 277.509C165.718 281.984 161.334 285.38 155.818 287.68C150.302 289.979 144.079 291.129 137.132 291.129H137.114Z" fill="#1D1D1B"/>
<path d="M203.074 288.706V267.869H218.755V219.493H203.074V198.657H259.787V219.493H244.23V267.869H259.787V288.706H203.074Z" fill="#1D1D1B"/>
<path d="M271.544 332.094C269.405 326.841 266.364 322.295 262.422 318.474C258.48 314.654 253.83 311.664 248.491 309.524C243.152 307.384 237.23 306.323 230.741 306.323H193.51V392.657H230.741C237.23 392.657 243.152 391.596 248.491 389.456C253.83 387.316 258.48 384.326 262.422 380.506C266.364 376.685 269.405 372.122 271.544 366.815C273.683 361.509 274.744 355.743 274.744 349.499C274.744 343.255 273.683 337.365 271.544 332.094ZM248.615 358.502C247.625 361.208 246.281 363.525 244.549 365.471C242.816 367.399 240.748 368.902 238.326 369.964C235.904 371.043 233.163 371.573 230.123 371.573H217.924V327.407H230.123C233.163 327.407 235.868 327.955 238.255 329.016C240.642 330.078 242.71 331.581 244.478 333.509C246.246 335.455 247.625 337.772 248.615 340.496C249.605 343.202 250.1 346.209 250.1 349.499C250.1 352.789 249.605 355.778 248.615 358.502Z" fill="#1D1D1B"/>
<path d="M337.91 306.464H318.251L283.972 392.515H307.679L312.948 378.259H342.471L347.74 392.515H371.96L337.91 306.464ZM319.294 361.049L322.424 352.558C323.254 350.277 324.015 348.172 324.704 346.297C325.394 344.404 326.03 342.6 326.613 340.884C327.02 339.664 327.409 338.39 327.798 337.082C328.152 338.373 328.54 339.629 328.947 340.884C329.513 342.689 330.132 344.528 330.786 346.421C331.44 348.296 332.182 350.347 332.996 352.558L336.125 361.049H319.294Z" fill="#1D1D1B"/>
<path d="M156.525 349.605C156.313 349.605 156.119 349.605 155.907 349.605C155.907 349.57 155.907 349.552 155.907 349.516C156.472 349.552 157.02 349.587 157.586 349.587C169.838 349.587 179.755 339.664 179.755 327.407C179.755 315.149 169.838 305.226 157.586 305.226C145.335 305.226 135.806 314.778 135.435 326.699C135.435 326.699 135.417 326.699 135.399 326.699C135.028 314.778 125.252 305.226 113.248 305.226C101.244 305.226 91.0784 315.149 91.0784 327.407C91.0784 339.664 100.996 349.587 113.248 349.587C113.248 349.587 113.248 349.605 113.248 349.623C112.894 349.623 112.54 349.587 112.169 349.587C99.9178 349.587 90 359.51 90 371.768C90 384.026 99.9178 393.948 112.169 393.948C124.421 393.948 134.338 384.026 134.338 371.768C134.338 384.026 144.256 393.948 156.508 393.948C168.759 393.948 178.677 384.026 178.677 371.768C178.677 359.51 168.759 349.587 156.508 349.587L156.525 349.605Z" fill="#FDC517"/>
<path d="M327.604 197.737C350.374 197.737 368.866 216.238 368.866 239.02V246.891C368.866 269.673 350.374 288.175 327.604 288.175H290.673C288.286 288.175 286.341 286.229 286.341 283.841V239.02C286.341 216.238 304.833 197.737 327.604 197.737Z" fill="#52C1DD"/>
<path d="M169.572 145.151C173.638 149.201 176.149 154.808 176.149 160.999C176.149 173.398 166.107 183.445 153.732 183.445H116.058C109.871 183.445 104.267 180.933 100.218 176.865C96.152 172.815 93.6416 167.19 93.6416 160.999C93.6416 148.618 103.683 138.571 116.058 138.571C109.871 138.571 104.267 136.059 100.218 131.991C96.152 127.94 93.6416 122.333 93.6416 116.143C93.6416 103.743 103.683 93.6968 116.058 93.6968H153.732C159.92 93.6968 165.524 96.2085 169.572 100.277C173.638 104.327 176.149 109.952 176.149 116.143C176.149 128.524 166.107 138.571 153.732 138.571C159.92 138.571 165.524 141.083 169.572 145.151Z" fill="#FDC609"/>
<path d="M212 90.0489V69.2126H227.681V20.8363H212V0H268.714V20.8363H253.156V69.2126H268.714V90.0489H212Z" fill="#ABABA9"/>
<path d="M212 483.049V462.213H227.681V413.836H212V393H268.714V413.836H253.156V462.213H268.714V483.049H212Z" fill="#ABABA9"/>
<path d="M90.0489 270.714L69.2126 270.714L69.2126 255.033L20.8363 255.033L20.8363 270.714L0 270.714L-2.47903e-06 214L20.8363 214L20.8363 229.558L69.2126 229.558L69.2126 214L90.0489 214L90.0489 270.714Z" fill="#ABABA9"/>
<path d="M462.049 270.714L441.213 270.714L441.213 255.033L392.836 255.033L392.836 270.714L372 270.714L372 214L392.836 214L392.836 229.558L441.213 229.558L441.213 214L462.049 214L462.049 270.714Z" fill="#ABABA9"/>
<rect x="90.5" y="90.5" width="281" height="302" stroke="#ABABA9"/>
<rect x="0.5" y="0.5" width="461" height="482" stroke="#ABABA9"/>
<path d="M276.136 46.46V44.12H285.756V46.46H276.136ZM276.136 50.62V48.3H285.756V50.62H276.136ZM303.279 53L298.939 46.72L293.379 39H297.059L301.299 45.2L306.959 53H303.279ZM293.279 53L298.619 45.38L300.899 46.96L296.759 53H293.279ZM301.619 46.5L299.359 44.98L303.279 39H306.759L301.619 46.5Z" fill="#ABABA9"/>
</svg>
