<svg width="277" height="305" viewBox="0 0 277 305" fill="none" xmlns="http://www.w3.org/2000/svg">
<g id="Group">
<g id="Group_2">
<path id="Vector" d="M141.135 93.6038C134.17 93.6038 127.735 92.4541 121.883 90.1547C116.014 87.8553 110.94 84.6537 106.644 80.5148C102.348 76.3935 99.0418 71.494 96.6906 65.8339C94.357 60.1738 93.1902 53.9476 93.1902 47.1378C93.1902 40.328 94.41 34.2256 96.832 28.5655C99.254 22.9054 102.631 17.9882 106.98 13.8315C111.311 9.65719 116.456 6.438 122.413 4.13858C128.371 1.83916 134.877 0.689453 141.931 0.689453C146.174 0.689453 150.328 1.22008 154.359 2.28135C158.39 3.34262 162.208 4.89916 165.779 6.93327C169.351 8.96737 172.533 11.5321 175.344 14.5921L160.175 32.2092C158.726 30.5996 157.117 29.1492 155.331 27.8757C153.546 26.6022 151.53 25.594 149.267 24.8688C147.022 24.1436 144.529 23.7898 141.807 23.7898C138.66 23.7898 135.708 24.3204 132.95 25.3817C130.192 26.443 127.788 27.9995 125.737 30.0336C123.704 32.0677 122.095 34.544 120.946 37.4271C119.797 40.3279 119.231 43.6356 119.231 47.3854C119.231 51.1352 119.797 54.1775 120.946 57.0253C122.095 59.873 123.757 62.2963 125.914 64.295C128.088 66.2937 130.669 67.8503 133.692 68.9469C136.715 70.0613 140.092 70.6096 143.84 70.6096C146.474 70.6096 148.967 70.2204 151.3 69.4599C153.634 68.6993 155.791 67.6734 157.736 66.3999C159.698 65.1263 161.43 63.729 162.969 62.1901L174.955 81.2046C172.833 83.5925 169.952 85.715 166.345 87.5899C162.739 89.4648 158.726 90.933 154.359 91.9942C149.975 93.0555 145.573 93.5861 141.153 93.5861L141.135 93.6038Z" fill="#1D1D1B"/>
<path id="Vector_2" d="M261.864 70.7686V90.8089H197.478V4.73975H260.025V24.7801H220.831V37.6922H255.111V56.6359H220.831V70.7686H261.864Z" fill="#1D1D1B"/>
<path id="Vector_3" d="M42.6994 201.022C36.1936 201.022 30.3949 200.279 25.3034 198.811C20.2296 197.343 15.7569 195.203 11.8852 192.426C8.01354 189.649 4.56617 186.395 1.52541 182.645L16.6408 165.576C20.9898 171.218 25.4625 174.986 30.059 176.843C34.6555 178.718 39.1283 179.638 43.4773 179.638C45.3866 179.638 47.1191 179.443 48.6925 179.054C50.2483 178.665 51.4504 178.01 52.2813 177.091C53.1122 176.171 53.5189 175.021 53.5189 173.642C53.5189 172.421 53.1653 171.377 52.4758 170.511C51.7863 169.644 50.8317 168.883 49.6118 168.229C48.392 167.575 47.0484 166.991 45.5811 166.478C44.096 165.947 42.6287 165.54 41.1437 165.24C39.6586 164.939 38.2267 164.603 36.8477 164.267C31.7209 163.135 27.2481 161.702 23.4295 159.969C19.6109 158.235 16.411 156.166 13.8476 153.778C11.2841 151.39 9.37481 148.631 8.11961 145.5C6.86441 142.369 6.22798 138.85 6.22798 134.941C6.22798 130.678 7.21799 126.769 9.23338 123.213C11.2311 119.658 13.8829 116.58 17.1712 114.016C20.4771 111.451 24.2781 109.505 28.574 108.143C32.87 106.799 37.3604 106.127 42.063 106.127C48.4804 106.127 53.9608 106.764 58.4689 108.02C62.977 109.275 66.778 111.08 69.8718 113.432C72.9479 115.785 75.6174 118.508 77.8803 121.639L62.4997 136.497C60.6788 134.498 58.6988 132.853 56.5773 131.544C54.4558 130.236 52.2637 129.263 50.0008 128.608C47.7379 127.954 45.4396 127.635 43.0883 127.635C40.9138 127.635 39.0222 127.848 37.4134 128.29C35.8047 128.732 34.5672 129.351 33.7009 130.182C32.8346 131.014 32.3926 132.11 32.3926 133.508C32.3926 134.728 32.87 135.79 33.8246 136.709C34.7793 137.629 35.9991 138.39 37.4665 138.991C38.9338 139.592 40.5249 140.105 42.2221 140.494C43.9193 140.884 45.4573 141.22 46.8539 141.467C51.6272 142.422 55.9939 143.661 59.954 145.182C63.8963 146.703 67.3614 148.613 70.3138 150.913C73.2661 153.212 75.529 156.024 77.0847 159.314C78.6405 162.622 79.436 166.478 79.436 170.918C79.436 177.427 77.8096 182.928 74.5567 187.403C71.3038 191.878 66.9194 195.274 61.4036 197.573C55.8878 199.873 49.6649 201.022 42.7171 201.022H42.6994Z" fill="#1D1D1B"/>
<path id="Vector_4" d="M108.5 198.599V177.763H124.181V129.387H108.5V108.55H165.214V129.387H149.656V177.763H165.214V198.599H108.5Z" fill="#1D1D1B"/>
<path id="Vector_5" d="M79.0825 241.988C76.9433 236.734 73.9202 232.188 69.9602 228.368C66.0178 224.547 61.3859 221.558 56.0293 219.418C50.6902 217.278 44.7678 216.216 38.2797 216.216H1.04808V302.551H38.2797C44.7678 302.551 50.6902 301.49 56.0293 299.349C61.3859 297.209 66.0178 294.237 69.9602 290.399C73.9202 286.579 76.9433 282.015 79.0825 276.709C81.2216 271.402 82.3 265.636 82.3 259.392C82.3 253.149 81.2216 247.259 79.0825 241.988ZM56.153 268.396C55.1807 271.102 53.8194 273.419 52.0869 275.365C50.372 277.293 48.2859 278.796 45.8639 279.857C43.4419 280.936 40.7017 281.467 37.6609 281.467H25.4626V237.3H37.6609C40.7017 237.3 43.4242 237.849 45.8109 238.91C48.1799 239.971 50.266 241.475 52.0338 243.42C53.8017 245.348 55.1807 247.665 56.153 250.389C57.143 253.096 57.638 256.102 57.638 259.392C57.638 262.682 57.143 265.672 56.153 268.396Z" fill="#1D1D1B"/>
<path id="Vector_6" d="M145.466 216.357H125.79L91.5107 302.409H115.236L120.504 288.152H150.028L155.296 302.409H179.498L145.466 216.357ZM126.851 270.942L129.98 262.452C130.793 260.17 131.553 258.065 132.243 256.19C132.95 254.298 133.586 252.494 134.152 250.778C134.559 249.558 134.948 248.302 135.337 246.993C135.708 248.284 136.097 249.54 136.486 250.778C137.069 252.582 137.67 254.422 138.324 256.314C138.978 258.189 139.721 260.241 140.552 262.452L143.681 270.942H126.851Z" fill="#1D1D1B"/>
</g>
<path id="Vector_7" d="M273.267 299.597V219.152C273.267 216.305 270.774 214.076 267.945 214.412C252.194 216.252 238.934 226.192 232.393 239.971C231.421 242.005 228.38 241.368 228.38 239.104V219.17C228.38 216.322 225.905 214.094 223.077 214.412C200.589 217.048 183.122 236.168 183.122 259.392C183.122 282.599 200.571 301.737 223.077 304.372C225.905 304.709 228.38 302.462 228.38 299.614V279.68C228.38 277.416 231.421 276.779 232.393 278.814C238.934 292.575 252.194 302.515 267.945 304.372C270.774 304.709 273.267 302.48 273.267 299.632V299.597Z" fill="#2EAA53"/>
<path id="Vector_8" d="M82.8657 5.9425V88.368C82.8657 90.4905 81.1509 92.2062 79.0294 92.2062H4.33634C2.21488 92.2062 0.500031 90.4905 0.500031 88.368V61.5001C0.500031 23.9841 18.5324 4.17372 41.5149 2.10424C43.7248 1.90967 45.6164 3.71383 45.6164 5.9425V24.9039C52.9885 11.0012 64.9217 3.39544 78.6228 2.12191C80.9034 1.90966 82.8834 3.66076 82.8834 5.96018L82.8657 5.9425Z" fill="#2EAA53"/>
<path id="Vector_9" d="M196.947 195.734C185.933 197.113 178.685 184.555 185.403 175.711C198.644 158.235 209.623 139.186 218.126 118.986C222.44 108.762 236.919 108.762 241.233 118.986C249.736 139.186 260.732 158.235 273.956 175.711C280.657 184.555 273.408 197.113 262.412 195.734C240.685 193.01 218.692 193.01 196.947 195.734Z" fill="#FDC609"/>
</g>
</svg>
