<svg width="285" height="311" viewBox="0 0 285 311" fill="none" xmlns="http://www.w3.org/2000/svg">
<g id="Group">
<g id="Group_2">
<path id="Vector" d="M48.114 93.6214C41.1485 93.6214 34.7134 92.4717 28.8617 90.1723C22.9923 87.8729 17.9185 84.6713 13.6226 80.5324C9.32662 76.4111 6.02067 71.5116 3.66938 65.8515C1.33577 60.1913 0.169006 53.9652 0.169006 47.1554C0.169006 40.3456 1.38884 34.2432 3.81084 28.5831C6.23284 22.923 9.60948 18.0058 13.9585 13.8491C18.2898 9.67479 23.4344 6.45561 29.3921 4.15619C35.3499 1.85676 41.8557 0.707031 48.9095 0.707031C53.1524 0.707031 57.307 1.23768 61.3377 2.29896C65.3685 3.36023 69.1872 4.91674 72.7583 6.95085C76.3294 8.98495 79.5116 11.5497 82.3225 14.6097L67.1541 32.2268C65.7044 30.6172 64.0957 29.1668 62.3101 27.8933C60.5245 26.6198 58.5091 25.6115 56.2462 24.8863C54.001 24.1611 51.5083 23.8074 48.7858 23.8074C45.639 23.8074 42.6866 24.338 39.9287 25.3993C37.1708 26.4606 34.7664 28.0171 32.7157 30.0512C30.6826 32.0853 29.0739 34.5616 27.9247 37.4447C26.7756 40.3456 26.2099 43.6532 26.2099 47.403C26.2099 51.1528 26.7756 54.1952 27.9247 57.0429C29.0739 59.8906 30.7357 62.3139 32.8925 64.3126C35.067 66.3113 37.6481 67.8679 40.6712 68.9645C43.6943 70.0789 47.0709 70.6272 50.8189 70.6272C53.453 70.6272 55.9457 70.238 58.2793 69.4775C60.6129 68.7169 62.7697 67.691 64.7144 66.4175C66.6768 65.144 68.4093 63.7466 69.9473 62.2078L81.9336 81.2222C79.8122 83.6101 76.9305 85.7326 73.324 87.6075C69.7175 89.4825 65.7044 90.9505 61.3377 92.0118C56.9534 93.0731 52.5513 93.6037 48.1316 93.6037L48.114 93.6214Z" fill="#1D1D1B"/>
<path id="Vector_2" d="M169.55 69.4599V89.5002H105.164V3.44873H167.711V23.4891H128.517V36.4012H162.797V55.3273H128.517V69.4599H169.55Z" fill="#1D1D1B"/>
<path id="Vector_3" d="M139.584 199.713C133.078 199.713 127.28 198.97 122.188 197.502C117.115 196.034 112.642 193.894 108.77 191.117C104.898 188.34 101.451 185.085 98.4103 181.336L113.526 164.267C117.875 169.909 122.347 173.677 126.944 175.534C131.54 177.409 136.013 178.329 140.362 178.329C142.271 178.329 144.004 178.134 145.577 177.745C147.133 177.356 148.335 176.701 149.166 175.782C149.997 174.862 150.404 173.712 150.404 172.332C150.404 171.112 150.05 170.068 149.361 169.202C148.671 168.335 147.717 167.574 146.497 166.92C145.277 166.265 143.933 165.682 142.466 165.169C140.981 164.638 139.514 164.231 138.029 163.931C136.544 163.63 135.112 163.294 133.733 162.958C128.606 161.826 124.133 160.393 120.314 158.66C116.496 156.926 113.296 154.857 110.732 152.469C108.169 150.081 106.26 147.322 105.005 144.191C103.749 141.06 103.113 137.54 103.113 133.631C103.113 129.369 104.103 125.46 106.118 121.904C108.116 118.349 110.768 115.271 114.056 112.707C117.362 110.142 121.163 108.196 125.459 106.834C129.755 105.49 134.245 104.818 138.948 104.818C145.365 104.818 150.846 105.455 155.354 106.71C159.862 107.966 163.663 109.77 166.757 112.123C169.833 114.475 172.502 117.199 174.765 120.33L159.385 135.188C157.564 133.189 155.584 131.544 153.462 130.235C151.341 128.926 149.149 127.954 146.886 127.299C144.623 126.645 142.325 126.326 139.973 126.326C137.799 126.326 135.907 126.539 134.298 126.981C132.69 127.423 131.452 128.042 130.586 128.873C129.72 129.705 129.278 130.801 129.278 132.199C129.278 133.419 129.755 134.48 130.71 135.4C131.664 136.32 132.884 137.081 134.351 137.682C135.819 138.283 137.41 138.796 139.107 139.185C140.804 139.575 142.342 139.911 143.739 140.158C148.512 141.113 152.879 142.352 156.839 143.873C160.781 145.394 164.246 147.304 167.199 149.604C170.151 151.903 172.414 154.715 173.97 158.005C175.525 161.313 176.321 165.169 176.321 169.608C176.321 176.118 174.694 181.619 171.442 186.094C168.189 190.569 163.804 193.965 158.288 196.264C152.773 198.564 146.55 199.713 139.602 199.713H139.584Z" fill="#1D1D1B"/>
<path id="Vector_4" d="M203.422 197.308V176.471H219.104V128.095H203.422V107.259H260.136V128.095H244.579V176.471H260.136V197.308H203.422Z" fill="#1D1D1B"/>
<path id="Vector_5" d="M81.1911 240.696C79.0519 235.425 76.0112 230.879 72.0688 227.059C68.1264 223.238 63.4769 220.267 58.1379 218.126C52.7989 215.986 46.8765 214.907 40.3884 214.907H3.15668V301.259H40.3884C46.8765 301.259 52.7989 300.18 58.1379 298.04C63.4769 295.918 68.1264 292.928 72.0688 289.108C76.0112 285.287 79.0519 280.724 81.1911 275.417C83.3302 270.111 84.3909 264.327 84.3909 258.083C84.3909 251.84 83.3302 245.949 81.1911 240.696ZM58.2616 267.086C57.2716 269.793 55.9104 272.127 54.1955 274.055C52.463 275.983 50.3945 277.487 47.9725 278.566C45.5329 279.627 42.8103 280.158 39.7696 280.158H27.5712V236.009H39.7696C42.8103 236.009 45.5152 236.539 47.9019 237.601C50.2885 238.68 52.3569 240.183 54.1248 242.111C55.8927 244.039 57.2716 246.374 58.2616 249.08C59.2516 251.786 59.7466 254.793 59.7466 258.083C59.7466 261.373 59.2516 264.38 58.2616 267.086Z" fill="#1D1D1B"/>
<path id="Vector_6" d="M147.557 215.049H127.899L93.6193 301.118H117.327L122.595 286.844H152.119L157.387 301.118H181.589L147.557 215.049ZM128.942 269.634L132.071 261.161C132.902 258.862 133.644 256.775 134.351 254.882C135.041 253.007 135.677 251.203 136.261 249.469C136.667 248.249 137.056 246.975 137.427 245.667C137.799 246.958 138.188 248.231 138.594 249.469C139.16 251.274 139.779 253.131 140.433 255.006C141.087 256.898 141.829 258.95 142.643 261.161L145.772 269.634H128.942Z" fill="#1D1D1B"/>
</g>
<path id="Vector_7" d="M219.59 217.961L191.701 245.864C184.962 252.606 184.962 263.537 191.701 270.278L219.59 298.182C226.328 304.924 237.253 304.924 243.992 298.182L271.881 270.278C278.619 263.537 278.619 252.606 271.881 245.864L243.992 217.961C237.253 211.219 226.328 211.219 219.59 217.961Z" fill="#F086B5"/>
<path id="Vector_8" d="M197.253 1.96289H271.097C273.484 1.96289 275.429 3.90855 275.429 6.29641V51.1175C275.429 73.8994 256.936 92.4009 234.166 92.4009C211.396 92.4009 192.904 73.8994 192.904 51.1175V6.29641C192.904 3.90855 194.848 1.96289 197.235 1.96289H197.253Z" fill="#2EAA53"/>
<path id="Vector_9" d="M84.939 143.218C82.7115 172.616 59.2517 196.07 29.8871 198.298C27.3944 198.493 25.2906 196.459 25.2906 193.965V163.418C19.6334 165.753 13.5519 167.221 7.20515 167.716C4.71243 167.911 2.60864 165.877 2.60864 163.383V112.353C2.60864 109.965 4.55334 108.02 6.93998 108.02H57.9434C60.4361 108.02 62.4515 110.124 62.2747 112.601C61.5676 122.046 58.6506 130.89 54.0541 138.584H80.6254C83.1181 138.584 85.1512 140.689 84.9567 143.183L84.939 143.218Z" fill="#2EAA53"/>
</g>
</svg>
