<svg width="283" height="305" viewBox="0 0 283 305" fill="none" xmlns="http://www.w3.org/2000/svg">
<g id="Group">
<g id="Group_2">
<path id="Vector" d="M149.065 95.3857C141.976 95.3857 135.434 94.2183 129.477 91.8835C123.501 89.5487 118.339 86.2764 113.972 82.0844C109.606 77.8924 106.229 72.9221 103.86 67.1558C101.473 61.4073 100.289 55.0573 100.289 48.1414C100.289 41.2254 101.526 35.017 103.984 29.2507C106.441 23.5022 109.888 18.4965 114.29 14.2514C118.692 10.0063 123.925 6.71639 129.989 4.38159C136.035 2.04679 142.665 0.879395 149.843 0.879395C154.174 0.879395 158.381 1.42772 162.483 2.50668C166.584 3.58564 170.456 5.15986 174.098 7.24703C177.74 9.3342 180.975 11.9166 183.821 15.0297L168.388 32.9475C166.92 31.3025 165.276 29.8344 163.455 28.5432C161.634 27.252 159.584 26.2261 157.285 25.5009C154.987 24.7757 152.459 24.4043 149.701 24.4043C146.501 24.4043 143.496 24.9526 140.685 26.0315C137.874 27.1105 135.434 28.6847 133.348 30.7719C131.262 32.8591 129.653 35.353 128.487 38.3069C127.32 41.2431 126.736 44.6215 126.736 48.4244C126.736 52.2273 127.32 55.3227 128.487 58.2235C129.653 61.1243 131.333 63.5829 133.543 65.617C135.753 67.6511 138.387 69.2253 141.463 70.3573C144.539 71.4894 147.969 72.0377 151.77 72.0377C154.457 72.0377 156.985 71.6486 159.354 70.8703C161.74 70.092 163.915 69.0484 165.913 67.7572C167.893 66.466 169.678 65.0333 171.234 63.4768L183.432 82.8096C181.276 85.2328 178.359 87.3908 174.681 89.301C171.004 91.2113 166.938 92.6971 162.483 93.7761C158.028 94.855 153.555 95.4034 149.065 95.4034V95.3857Z" fill="#1D1D1B"/>
<path id="Vector_2" d="M270.006 71.1356V91.176H205.619V5.12451H268.167V25.1649H228.973V38.0593H263.252V57.003H228.973V71.1356H270.006Z" fill="#1D1D1B"/>
<path id="Vector_3" d="M47.3406 202.008C40.8348 202.008 35.0362 201.265 29.9447 199.797C24.8709 198.329 20.3981 196.189 16.5265 193.412C12.6548 190.635 9.20739 187.38 6.16663 183.631L21.2821 166.562C25.6311 172.204 30.1038 175.972 34.7003 177.829C39.2968 179.704 43.7695 180.624 48.1185 180.624C50.0278 180.624 51.7603 180.429 53.3337 180.04C54.8895 179.651 56.0917 178.996 56.9226 178.077C57.7535 177.157 58.1601 176.007 58.1601 174.627C58.1601 173.407 57.8065 172.363 57.117 171.497C56.4276 170.63 55.4729 169.869 54.2531 169.215C53.0332 168.56 51.6896 167.977 50.2223 167.464C48.7373 166.933 47.2699 166.526 45.7849 166.226C44.2999 165.925 42.8679 165.589 41.489 165.253C36.3621 164.121 31.8894 162.688 28.0707 160.955C24.2521 159.221 21.0522 157.152 18.4888 154.764C15.9253 152.376 14.016 149.617 12.7609 146.486C11.5057 143.355 10.8692 139.835 10.8692 135.926C10.8692 131.664 11.8592 127.755 13.8746 124.199C15.8723 120.644 18.5241 117.566 21.8124 115.002C25.1183 112.437 28.9193 110.491 33.2153 109.129C37.5112 107.785 42.0016 107.113 46.7042 107.113C53.1216 107.113 58.6021 107.75 63.1102 109.005C67.6183 110.261 71.4192 112.065 74.513 114.418C77.5891 116.77 80.2586 119.494 82.5215 122.625L67.141 137.483C65.32 135.484 63.34 133.839 61.2185 132.53C59.0971 131.221 56.9049 130.249 54.642 129.594C52.3791 128.94 50.0809 128.621 47.7296 128.621C45.5551 128.621 43.6635 128.833 42.0547 129.276C40.4459 129.718 39.2084 130.337 38.3421 131.168C37.4759 132 37.0339 133.096 37.0339 134.494C37.0339 135.714 37.5112 136.775 38.4659 137.695C39.4205 138.615 40.6404 139.375 42.1077 139.977C43.5751 140.578 45.1662 141.091 46.8633 141.48C48.5605 141.869 50.0986 142.206 51.4952 142.453C56.2685 143.408 60.6351 144.646 64.5952 146.168C68.5376 147.689 72.0026 149.599 74.955 151.898C77.9073 154.198 80.1703 157.01 81.726 160.3C83.2817 163.608 84.0773 167.464 84.0773 171.903C84.0773 178.413 82.4508 183.914 79.1979 188.389C75.945 192.864 71.5606 196.26 66.0448 198.559C60.529 200.858 54.3061 202.008 47.3583 202.008H47.3406Z" fill="#1D1D1B"/>
<path id="Vector_4" d="M113.3 199.585V178.749H128.982V130.372H113.3V109.536H170.014V130.372H154.457V178.749H170.014V199.585H113.3Z" fill="#1D1D1B"/>
<path id="Vector_5" d="M181.77 242.973C179.631 237.72 176.591 233.174 172.648 229.354C168.706 225.533 164.056 222.544 158.717 220.404C153.378 218.263 147.456 217.202 140.968 217.202H103.736V303.537H140.968C147.456 303.537 153.378 302.475 158.717 300.335C164.056 298.195 168.706 295.206 172.648 291.385C176.591 287.564 179.631 283.001 181.77 277.695C183.91 272.388 184.97 266.622 184.97 260.378C184.97 254.134 183.91 248.244 181.77 242.973ZM158.841 269.381C157.851 272.088 156.507 274.405 154.775 276.35C153.042 278.278 150.974 279.782 148.552 280.843C146.13 281.922 143.39 282.453 140.349 282.453H128.151V238.286H140.349C143.39 238.286 146.095 238.834 148.481 239.896C150.868 240.957 152.936 242.46 154.704 244.388C156.472 246.334 157.851 248.651 158.841 251.375C159.831 254.081 160.326 257.088 160.326 260.378C160.326 263.668 159.831 266.657 158.841 269.381Z" fill="#1D1D1B"/>
<path id="Vector_6" d="M248.137 217.344H228.478L194.199 303.395H217.906L223.174 289.139H252.698L257.966 303.395H282.186L248.137 217.344ZM229.521 271.928L232.65 263.438C233.481 261.157 234.241 259.052 234.931 257.177C235.62 255.284 236.257 253.48 236.84 251.764C237.247 250.544 237.636 249.27 238.025 247.961C238.378 249.253 238.767 250.508 239.174 251.764C239.739 253.569 240.358 255.408 241.012 257.301C241.666 259.176 242.409 261.227 243.222 263.438L246.351 271.928H229.521Z" fill="#1D1D1B"/>
</g>
<path id="Vector_7" d="M66.752 260.484C66.5399 260.484 66.3454 260.484 66.1333 260.484C66.1333 260.449 66.1333 260.431 66.1333 260.396C66.699 260.431 67.247 260.467 67.8127 260.467C80.0641 260.467 89.982 250.544 89.982 238.286C89.982 226.028 80.0641 216.105 67.8127 216.105C55.5613 216.105 46.0324 225.657 45.6611 237.579C45.6611 237.579 45.6435 237.579 45.6258 237.579C45.2545 225.657 35.4781 216.105 23.4742 216.105C11.4703 216.105 1.30495 226.028 1.30495 238.286C1.30495 250.544 11.2228 260.467 23.4742 260.467C23.4742 260.467 23.4742 260.484 23.4742 260.502C23.1206 260.502 22.767 260.467 22.3958 260.467C10.1444 260.467 0.226562 270.39 0.226562 282.647C0.226562 294.905 10.1444 304.828 22.3958 304.828C34.6472 304.828 44.5651 294.905 44.5651 282.647C44.5651 294.905 54.4829 304.828 66.7343 304.828C78.9858 304.828 88.9036 294.905 88.9036 282.647C88.9036 270.39 78.9858 260.467 66.7343 260.467L66.752 260.484Z" fill="#F087B5"/>
<path id="Vector_8" d="M237.83 108.616C260.6 108.616 279.093 127.118 279.093 149.9V157.771C279.093 180.553 260.6 199.054 237.83 199.054H200.899C198.512 199.054 196.568 197.109 196.568 194.721V149.9C196.568 127.118 215.06 108.616 237.83 108.616Z" fill="#E94F1E"/>
<path id="Vector_9" d="M79.799 56.0302C83.8651 60.0807 86.3755 65.6878 86.3755 71.8785C86.3755 84.2777 76.3339 94.3244 63.9587 94.3244H26.2852C20.0976 94.3244 14.4934 91.8127 10.4449 87.7445C6.3788 83.694 3.86841 78.0693 3.86841 71.8785C3.86841 59.497 13.91 49.4503 26.2852 49.4503C20.0976 49.4503 14.4934 46.9386 10.4449 42.8704C6.3788 38.8199 3.86841 33.2128 3.86841 27.0221C3.86841 14.6229 13.91 4.57617 26.2852 4.57617H63.9587C70.1463 4.57617 75.7505 7.08785 79.799 11.1561C83.8651 15.2066 86.3755 20.8313 86.3755 27.0221C86.3755 39.4036 76.3339 49.4503 63.9587 49.4503C70.1463 49.4503 75.7505 51.962 79.799 56.0302Z" fill="#F087B5"/>
</g>
</svg>
