<svg width="281" height="306" viewBox="0 0 281 306" fill="none" xmlns="http://www.w3.org/2000/svg">
<g id="Group">
<g id="Group_2">
<path id="Vector" d="M47.9974 94.4927C41.085 94.4927 34.7206 93.3607 28.9043 91.0789C23.0879 88.7972 18.0495 85.6134 13.7889 81.5275C9.52827 77.4416 6.24001 72.5951 3.92408 66.9881C1.60815 61.381 0.441345 55.208 0.441345 48.4512C0.441345 41.6944 1.64352 35.6629 4.04784 30.0558C6.45216 24.4488 9.79345 19.5846 14.0894 15.4456C18.3854 11.3067 23.4945 8.10516 29.3816 5.82343C35.2863 3.54169 41.7214 2.40967 48.7222 2.40967C52.9298 2.40967 57.049 2.9403 61.0444 3.98389C65.0398 5.04516 68.8231 6.584 72.3589 8.60042C75.8946 10.6168 79.0591 13.1462 81.8347 16.1885L66.79 33.6464C65.358 32.0368 63.7493 30.6041 61.9814 29.3483C60.2135 28.0748 58.2158 27.0842 55.9706 26.3767C53.743 25.6692 51.268 25.2978 48.5808 25.2978C45.4693 25.2978 42.5346 25.8284 39.7944 26.872C37.0542 27.9333 34.6676 29.4721 32.6522 31.4885C30.6368 33.5049 29.0457 35.9636 27.9143 38.829C26.7828 41.6944 26.1994 44.9844 26.1994 48.6988C26.1994 52.4133 26.7651 55.4202 27.9143 58.2503C29.0457 61.0803 30.6898 63.4859 32.8467 65.4669C35.0035 67.448 37.5669 68.9868 40.5546 70.0834C43.5424 71.1801 46.9013 71.7284 50.6139 71.7284C53.2304 71.7284 55.6877 71.357 58.0036 70.5964C60.3196 69.8358 62.441 68.8276 64.3857 67.5541C66.3304 66.2982 68.0452 64.9009 69.5656 63.3797L81.4458 82.235C79.342 84.6052 76.4957 86.71 72.9069 88.5673C69.3181 90.4245 65.358 91.8749 61.0267 92.9362C56.6777 93.9974 52.3287 94.5104 47.9444 94.5104L47.9974 94.4927Z" fill="#1D1D1B"/>
<path id="Vector_2" d="M170.193 72.0644V92.1048H105.807V6.03564H168.355V26.076H129.161V38.9881H163.44V57.9142H129.161V72.0644H170.193Z" fill="#1D1D1B"/>
<path id="Vector_3" d="M43.3832 202.318C36.8774 202.318 31.0788 201.575 25.9873 200.107C20.9134 198.639 16.4407 196.498 12.569 193.721C8.69736 190.944 5.24999 187.69 2.20923 183.94L17.3246 166.871C21.6736 172.514 26.1464 176.281 30.7429 178.138C35.3394 180.013 39.8121 180.933 44.1611 180.933C46.0704 180.933 47.803 180.739 49.3764 180.349C50.9321 179.96 52.1343 179.306 52.9652 178.386C53.7961 177.466 54.2027 176.317 54.2027 174.937C54.2027 173.716 53.8491 172.673 53.1596 171.806C52.4702 170.939 51.5155 170.179 50.2957 169.524C49.0758 168.87 47.7322 168.286 46.2649 167.773C44.7799 167.243 43.3125 166.836 41.8275 166.535C40.3425 166.235 38.9105 165.898 37.5315 165.562C32.4047 164.43 27.9319 162.998 24.1133 161.264C20.2947 159.531 17.0948 157.461 14.5314 155.073C11.9679 152.686 10.0586 149.926 8.80343 146.796C7.54823 143.665 6.9118 140.145 6.9118 136.236C6.9118 131.973 7.90181 128.064 9.9172 124.509C11.9149 120.954 14.5667 117.876 17.855 115.311C21.1609 112.746 24.9619 110.801 29.2579 109.439C33.5538 108.095 38.0442 107.422 42.7468 107.422C49.1642 107.422 54.6447 108.059 59.1528 109.315C63.6609 110.571 67.4618 112.375 70.5556 114.727C73.6317 117.08 76.3012 119.804 78.5641 122.935L63.1835 137.792C61.3626 135.794 59.3826 134.149 57.2611 132.84C55.1397 131.531 52.9475 130.558 50.6846 129.904C48.4217 129.249 46.1234 128.931 43.7722 128.931C41.5977 128.931 39.706 129.143 38.0973 129.585C36.4885 130.027 35.251 130.647 34.3847 131.478C33.5184 132.309 33.0765 133.406 33.0765 134.803C33.0765 136.024 33.5538 137.085 34.5085 138.005C35.4631 138.924 36.683 139.685 38.1503 140.286C39.6176 140.888 41.2087 141.401 42.9059 141.79C44.6031 142.179 46.1411 142.515 47.5378 142.763C52.311 143.718 56.6777 144.956 60.6378 146.477C64.5802 147.998 68.0452 149.909 70.9976 152.208C73.9499 154.507 76.2128 157.32 77.7686 160.61C79.3243 163.917 80.1199 167.773 80.1199 172.213C80.1199 178.722 78.4934 184.223 75.2405 188.698C71.9876 193.173 67.6032 196.569 62.0874 198.869C56.5716 201.168 50.3487 202.318 43.4009 202.318H43.3832Z" fill="#1D1D1B"/>
<path id="Vector_4" d="M109.661 199.895V179.058H125.342V130.682H109.661V109.846H166.375V130.682H150.818V179.058H166.375V199.895H109.661Z" fill="#1D1D1B"/>
<path id="Vector_5" d="M177.813 243.283C175.674 238.03 172.633 233.484 168.691 229.663C164.748 225.843 160.099 222.853 154.76 220.713C149.421 218.573 143.499 217.512 137.01 217.512H99.7787V303.846H137.01C143.499 303.846 149.421 302.785 154.76 300.645C160.099 298.504 164.748 295.515 168.691 291.695C172.633 287.874 175.674 283.311 177.813 278.004C179.952 272.698 181.031 266.932 181.031 260.688C181.031 254.444 179.952 248.554 177.813 243.283ZM154.884 269.691C153.894 272.397 152.55 274.714 150.818 276.66C149.103 278.588 147.017 280.091 144.595 281.153C142.173 282.232 139.432 282.762 136.392 282.762H124.193V238.596H136.392C139.432 238.596 142.155 239.144 144.524 240.205C146.911 241.267 148.997 242.77 150.764 244.698C152.532 246.644 153.894 248.961 154.884 251.685C155.874 254.391 156.369 257.398 156.369 260.688C156.369 263.978 155.874 266.967 154.884 269.691Z" fill="#1D1D1B"/>
<path id="Vector_6" d="M244.179 217.653H224.521L190.241 303.705H213.966L219.235 289.448H248.741L254.009 303.705H278.229L244.179 217.653ZM225.581 272.238L228.71 263.748C229.524 261.466 230.284 259.361 230.973 257.486C231.68 255.594 232.317 253.79 232.883 252.074C233.289 250.853 233.678 249.598 234.067 248.289C234.438 249.58 234.827 250.836 235.216 252.074C235.782 253.878 236.401 255.718 237.055 257.61C237.709 259.485 238.451 261.537 239.265 263.748L242.394 272.238H225.581Z" fill="#1D1D1B"/>
</g>
<path id="Vector_7" d="M82.2236 305.155H9.68734C4.40137 305.155 0.123108 300.875 0.123108 295.586V215.159C45.4693 215.159 82.2236 251.932 82.2236 297.302V305.137V305.155Z" fill="#FDC609"/>
<path id="Vector_8" d="M274.605 93.3074H193.6V42.897C193.6 19.5136 211.739 0.552246 234.102 0.552246C256.466 0.552246 274.605 19.5136 274.605 42.897V93.3074Z" fill="#FDC609"/>
<path id="Vector_9" d="M193.6 116.213V193.509C193.6 196.251 195.987 198.391 198.709 198.073C213.843 196.304 226.589 186.752 232.883 173.522C233.82 171.558 236.737 172.177 236.737 174.353V193.509C236.737 196.251 239.123 198.391 241.828 198.073C263.449 195.543 280.227 177.165 280.227 154.861C280.227 132.557 263.449 114.179 241.828 111.65C239.106 111.331 236.737 113.471 236.737 116.213V135.369C236.737 137.545 233.82 138.164 232.883 136.2C226.607 122.97 213.843 113.418 198.709 111.65C195.987 111.331 193.6 113.471 193.6 116.213Z" fill="#52C1DD"/>
</g>
</svg>
