<svg width="283" height="308" viewBox="0 0 283 308" fill="none" xmlns="http://www.w3.org/2000/svg">
<g id="Group">
<g id="Group_2">
<path id="Vector" d="M48.9772 92.9943C42.2415 92.9943 36.0363 91.8799 30.3614 89.669C24.6865 87.4403 19.7717 84.3449 15.6349 80.3475C11.4804 76.3677 8.2805 71.6273 6.01761 66.1618C3.75472 60.6962 2.62328 54.6647 2.62328 48.0848C2.62328 41.5049 3.79008 35.5972 6.14136 30.1316C8.49265 24.6661 11.7456 19.908 15.9354 15.8752C20.1253 11.8423 25.0931 8.7116 30.8564 6.50061C36.602 4.27194 42.8957 3.17529 49.7197 3.17529C53.8212 3.17529 57.8343 3.68824 61.7413 4.71414C65.6483 5.74003 69.3255 7.2435 72.7729 9.22454C76.2203 11.2056 79.3141 13.6642 82.0189 16.6181L67.3455 33.6515C65.9489 32.095 64.3931 30.6976 62.6606 29.4595C60.9281 28.2213 58.9834 27.2662 56.8089 26.5587C54.6344 25.8688 52.2301 25.5151 49.5959 25.5151C46.5552 25.5151 43.6912 26.028 41.0217 27.0539C38.3522 28.0798 36.0186 29.5833 34.0562 31.5643C32.0939 33.5454 30.5382 35.9155 29.4244 38.7279C28.3106 41.5226 27.7626 44.7418 27.7626 48.3501C27.7626 51.9584 28.3106 54.9123 29.4244 57.6716C30.5382 60.4309 32.1292 62.7657 34.233 64.7114C36.3368 66.6394 38.8295 68.1428 41.7465 69.2218C44.6635 70.2831 47.9341 70.8314 51.5583 70.8314C54.104 70.8314 56.5084 70.4599 58.7713 69.717C61.0341 68.9742 63.1026 67.9836 64.9942 66.7632C66.8858 65.525 68.5653 64.1807 70.0504 62.695L81.6477 81.0727C79.5969 83.3721 76.8213 85.4239 73.3209 87.2457C69.8205 89.0499 65.9665 90.4826 61.7236 91.5085C57.4807 92.5344 53.2378 93.0473 48.9595 93.0473L48.9772 92.9943Z" fill="#1D1D1B"/>
<path id="Vector_2" d="M170.696 71.8393V91.8797H106.292V5.81055H168.84V25.8509H129.646V38.763H163.925V57.6891H129.646V71.8393H170.696Z" fill="#1D1D1B"/>
<path id="Vector_3" d="M138.998 202.093C132.492 202.093 126.693 201.35 121.602 199.882C116.528 198.414 112.055 196.274 108.184 193.497C104.312 190.72 100.865 187.465 97.8238 183.715L112.939 166.647C117.288 172.289 121.761 176.057 126.357 177.914C130.954 179.789 135.427 180.709 139.776 180.709C141.685 180.709 143.418 180.514 144.991 180.125C146.547 179.736 147.749 179.081 148.58 178.161C149.411 177.242 149.817 176.092 149.817 174.712C149.817 173.492 149.464 172.448 148.774 171.582C148.085 170.715 147.13 169.954 145.91 169.3C144.69 168.645 143.347 168.062 141.879 167.549C140.394 167.018 138.927 166.611 137.442 166.311C135.957 166.01 134.525 165.674 133.146 165.338C128.019 164.206 123.547 162.773 119.728 161.04C115.909 159.306 112.709 157.237 110.146 154.849C107.583 152.461 105.673 149.702 104.418 146.571C103.163 143.44 102.526 139.92 102.526 136.011C102.526 131.749 103.516 127.839 105.532 124.284C107.529 120.729 110.181 117.651 113.47 115.087C116.776 112.522 120.576 110.576 124.872 109.214C129.168 107.87 133.659 107.198 138.361 107.198C144.779 107.198 150.259 107.835 154.767 109.09C159.275 110.346 163.076 112.15 166.17 114.503C169.246 116.855 171.916 119.579 174.179 122.71L158.798 137.568C156.977 135.569 154.997 133.924 152.876 132.615C150.754 131.306 148.562 130.333 146.299 129.679C144.036 129.025 141.738 128.706 139.387 128.706C137.212 128.706 135.321 128.918 133.712 129.361C132.103 129.803 130.866 130.422 129.999 131.253C129.133 132.085 128.691 133.181 128.691 134.579C128.691 135.799 129.168 136.86 130.123 137.78C131.078 138.7 132.298 139.46 133.765 140.062C135.232 140.663 136.823 141.176 138.52 141.565C140.218 141.954 141.756 142.29 143.152 142.538C147.926 143.493 152.292 144.731 156.252 146.253C160.195 147.774 163.66 149.684 166.612 151.983C169.565 154.283 171.827 157.095 173.383 160.385C174.939 163.693 175.734 167.549 175.734 171.988C175.734 178.498 174.108 183.998 170.855 188.473C167.602 192.949 163.218 196.345 157.702 198.644C152.186 200.943 145.963 202.093 139.015 202.093H138.998Z" fill="#1D1D1B"/>
<path id="Vector_4" d="M204.551 199.67V178.834H220.232V130.457H204.551V109.621H261.265V130.457H245.707V178.834H261.265V199.67H204.551Z" fill="#1D1D1B"/>
<path id="Vector_5" d="M178.298 243.058C176.176 237.805 173.136 233.259 169.176 229.439C165.233 225.618 160.601 222.629 155.245 220.489C149.906 218.348 143.983 217.287 137.495 217.287H100.263V303.622H137.495C143.983 303.622 149.906 302.56 155.245 300.42C160.601 298.28 165.233 295.291 169.176 291.47C173.136 287.649 176.176 283.086 178.298 277.78C180.437 272.473 181.515 266.707 181.515 260.463C181.515 254.219 180.437 248.329 178.298 243.058ZM155.368 269.466C154.396 272.173 153.035 274.49 151.302 276.435C149.587 278.363 147.501 279.867 145.079 280.928C142.657 282.007 139.917 282.538 136.876 282.538H124.678V238.371H136.876C139.917 238.371 142.64 238.919 145.026 239.981C147.395 241.042 149.481 242.545 151.249 244.473C153.017 246.419 154.396 248.736 155.368 251.46C156.358 254.166 156.853 257.173 156.853 260.463C156.853 263.753 156.358 266.742 155.368 269.466Z" fill="#1D1D1B"/>
<path id="Vector_6" d="M244.682 217.428H225.005L190.726 303.48H214.451L219.719 289.223H249.243L254.511 303.48H278.714L244.682 217.428ZM226.066 272.013L229.195 263.523C230.008 261.241 230.769 259.136 231.458 257.261C232.165 255.369 232.802 253.565 233.367 251.849C233.774 250.628 234.163 249.373 234.552 248.064C234.923 249.355 235.312 250.611 235.701 251.849C236.284 253.653 236.886 255.493 237.54 257.385C238.211 259.26 238.936 261.312 239.767 263.523L242.896 272.013H226.066Z" fill="#1D1D1B"/>
</g>
<path id="Vector_7" d="M82.8145 133.287V174.571C82.8145 181.363 80.4985 187.501 76.786 191.958C73.0558 196.398 67.9112 199.139 62.2186 199.139C50.8688 199.139 41.6405 188.137 41.6405 174.571C41.6405 181.363 39.3245 187.501 35.612 191.958C31.8994 196.398 26.7549 199.139 21.0623 199.139C9.71249 199.139 0.501816 188.137 0.501816 174.571V133.287C0.501816 126.495 2.81774 120.357 6.5303 115.9C10.2605 111.46 15.3874 108.719 21.08 108.719C32.4475 108.719 41.6581 119.721 41.6581 133.287C41.6581 126.495 43.9741 120.357 47.6866 115.9C51.4169 111.46 56.5614 108.719 62.2363 108.719C73.6038 108.719 82.8145 119.721 82.8145 133.287Z" fill="#52C1DD"/>
<path id="Vector_8" d="M4.72705 217.27H78.5715C80.9582 217.27 82.9029 219.215 82.9029 221.603V266.424C82.9029 289.206 64.4108 307.708 41.6405 307.708C18.8878 307.708 0.395737 289.224 0.395737 266.442V221.621C0.395737 219.215 2.34041 217.27 4.72705 217.27Z" fill="#E94F1E"/>
<path id="Vector_9" d="M238.636 8.46389L245.354 2.25545C250.976 -2.9271 260.027 1.44181 259.479 9.06528L258.807 18.1922C258.489 22.5788 261.601 26.4701 265.932 27.1423L274.966 28.5219C282.515 29.6716 284.76 39.4884 278.448 43.8042L270.9 48.9691C267.275 51.4631 266.162 56.3096 268.354 60.1301L272.915 68.0543C276.716 74.6873 270.458 82.5584 263.139 80.312L254.388 77.6411C250.18 76.3499 245.69 78.5078 244.081 82.6114L240.722 91.1193C237.911 98.2298 227.852 98.2298 225.041 91.1193L221.682 82.6114C220.073 78.5255 215.583 76.3499 211.375 77.6411L202.624 80.312C195.323 82.5584 189.047 74.6873 192.848 68.0543L197.409 60.1301C199.601 56.3096 198.487 51.4631 194.863 48.9691L187.314 43.8042C181.003 39.4884 183.248 29.6716 190.797 28.5219L199.831 27.1423C204.18 26.4701 207.273 22.5788 206.955 18.1922L206.283 9.06528C205.735 1.44181 214.787 -2.9271 220.409 2.25545L227.127 8.46389C230.362 11.4531 235.33 11.4531 238.565 8.46389H238.636Z" fill="#E94F1E"/>
</g>
</svg>
