<svg width="285" height="305" viewBox="0 0 285 305" fill="none" xmlns="http://www.w3.org/2000/svg">
<g id="Group">
<g id="Group_2">
<path id="Vector" d="M150.293 93.4456C143.327 93.4456 136.892 92.2959 131.04 89.9965C125.171 87.6971 120.097 84.4955 115.801 80.3566C111.505 76.2353 108.199 71.3358 105.848 65.6757C103.514 60.0155 102.348 53.7894 102.348 46.9796C102.348 40.1698 103.567 34.0674 105.989 28.4073C108.411 22.7472 111.788 17.83 116.137 13.6733C120.468 9.49899 125.613 6.2798 131.571 3.98038C137.528 1.68096 144.034 0.53125 151.088 0.53125C155.331 0.53125 159.486 1.06188 163.516 2.12315C167.547 3.18442 171.366 4.74096 174.937 6.77506C178.508 8.80917 181.69 11.3739 184.501 14.4339L169.333 32.051C167.883 30.4414 166.274 28.991 164.489 27.7175C162.703 26.444 160.688 25.4358 158.425 24.7106C156.18 23.9854 153.687 23.6316 150.964 23.6316C147.817 23.6316 144.865 24.1622 142.107 25.2235C139.349 26.2848 136.945 27.8413 134.894 29.8754C132.844 31.9095 131.252 34.3858 130.103 37.2689C128.954 40.1697 128.388 43.4774 128.388 47.2272C128.388 50.977 128.954 54.0193 130.103 56.8671C131.252 59.7148 132.914 62.1381 135.071 64.1368C137.246 66.1355 139.827 67.6921 142.85 68.7887C145.873 69.9031 149.249 70.4514 152.997 70.4514C155.632 70.4514 158.124 70.0622 160.458 69.3017C162.791 68.5411 164.948 67.5152 166.893 66.2417C168.855 64.9681 170.588 63.5708 172.126 62.0319L184.112 81.0464C181.991 83.4343 179.109 85.5568 175.503 87.4317C171.896 89.3066 167.883 90.7748 163.516 91.836C159.132 92.8973 154.73 93.4279 150.31 93.4279L150.293 93.4456Z" fill="#1D1D1B"/>
<path id="Vector_2" d="M271.021 70.6104V90.6507H206.635V4.58154H269.183V24.6219H229.971V37.534H264.268V56.4777H229.971V70.6104H271.021Z" fill="#1D1D1B"/>
<path id="Vector_3" d="M146.633 200.864C140.127 200.864 134.329 200.121 129.237 198.653C124.163 197.185 119.69 195.045 115.819 192.268C111.947 189.491 108.5 186.236 105.459 182.486L120.574 165.418C124.923 171.06 129.396 174.828 133.993 176.685C138.589 178.56 143.062 179.48 147.411 179.48C149.32 179.48 151.053 179.285 152.626 178.896C154.182 178.507 155.384 177.852 156.215 176.932C157.046 176.013 157.452 174.863 157.452 173.483C157.452 172.263 157.099 171.219 156.409 170.353C155.72 169.486 154.765 168.725 153.545 168.071C152.326 167.416 150.982 166.833 149.515 166.32C148.03 165.789 146.562 165.382 145.077 165.082C143.592 164.781 142.16 164.445 140.781 164.109C135.654 162.977 131.182 161.544 127.363 159.811C123.544 158.077 120.345 156.008 117.781 153.62C115.218 151.232 113.308 148.473 112.053 145.342C110.798 142.211 110.162 138.691 110.162 134.782C110.162 130.52 111.152 126.61 113.167 123.055C115.165 119.5 117.817 116.422 121.105 113.858C124.411 111.293 128.212 109.347 132.508 107.985C136.804 106.641 141.294 105.969 145.997 105.969C152.414 105.969 157.894 106.606 162.402 107.861C166.911 109.117 170.712 110.921 173.805 113.274C176.881 115.626 179.551 118.35 181.814 121.481L166.433 136.339C164.612 134.34 162.632 132.695 160.511 131.386C158.389 130.077 156.197 129.104 153.934 128.45C151.671 127.796 149.373 127.477 147.022 127.477C144.847 127.477 142.956 127.689 141.347 128.132C139.738 128.574 138.501 129.193 137.634 130.024C136.768 130.856 136.326 131.952 136.326 133.35C136.326 134.57 136.804 135.631 137.758 136.551C138.713 137.471 139.933 138.231 141.4 138.833C142.867 139.434 144.458 139.947 146.156 140.336C147.853 140.725 149.391 141.061 150.788 141.309C155.561 142.264 159.927 143.502 163.888 145.024C167.83 146.545 171.295 148.455 174.247 150.754C177.2 153.054 179.463 155.866 181.018 159.156C182.574 162.464 183.37 166.32 183.37 170.759C183.37 177.269 181.743 182.769 178.49 187.244C175.237 191.719 170.853 195.116 165.337 197.415C159.821 199.714 153.598 200.864 146.651 200.864H146.633Z" fill="#1D1D1B"/>
<path id="Vector_4" d="M210.471 198.441V177.605H226.152V129.228H210.471V108.392H267.185V129.228H251.628V177.605H267.185V198.441H210.471Z" fill="#1D1D1B"/>
<path id="Vector_5" d="M88.2399 241.829C86.1007 236.576 83.0599 232.03 79.1176 228.21C75.1752 224.389 70.5256 221.4 65.1866 219.26C59.8476 217.119 53.9252 216.058 47.4371 216.058H10.2054V302.393H47.4371C53.9252 302.393 59.8476 301.331 65.1866 299.191C70.5256 297.051 75.1752 294.079 79.1176 290.241C83.0599 286.42 86.1007 281.857 88.2399 276.551C90.379 271.244 91.4397 265.478 91.4397 259.234C91.4397 252.99 90.379 247.1 88.2399 241.829ZM65.3104 268.237C64.3204 270.944 62.9768 273.261 61.2443 275.206C59.5117 277.134 57.4433 278.638 55.0213 279.699C52.5993 280.778 49.8591 281.309 46.8183 281.309H34.6199V237.142H46.8183C49.8591 237.142 52.5816 237.69 54.9506 238.752C57.3372 239.813 59.4233 241.316 61.1912 243.262C62.9414 245.19 64.3204 247.507 65.3104 250.231C66.3004 252.937 66.7954 255.944 66.7954 259.234C66.7954 262.524 66.3004 265.513 65.3104 268.237Z" fill="#1D1D1B"/>
<path id="Vector_6" d="M154.606 216.199H134.947L100.668 302.251H124.375L129.644 287.994H159.167L164.436 302.251H188.656L154.606 216.199ZM136.008 270.784L139.137 262.294C139.95 260.012 140.711 257.907 141.4 256.032C142.09 254.14 142.726 252.336 143.309 250.62C143.716 249.399 144.105 248.126 144.494 246.817C144.848 248.108 145.236 249.364 145.643 250.62C146.209 252.424 146.827 254.264 147.482 256.156C148.136 258.031 148.878 260.083 149.691 262.294L152.821 270.784H136.008Z" fill="#1D1D1B"/>
</g>
<path id="Vector_7" d="M9.07401 12.2231L25.4977 37.1099L32.4278 47.6165L25.4977 58.1231L9.07401 83.0099C6.72272 86.5828 9.05634 91.5708 13.0871 91.5708H82.0699C86.1007 91.5708 88.4343 86.5828 86.083 83.0099L69.6594 58.1231L62.7293 47.6165L69.6594 37.1099L86.083 12.2231C88.4343 8.65011 86.1007 3.66211 82.0699 3.66211H13.0871C9.05634 3.66211 6.72272 8.65011 9.07401 12.2231Z" fill="#54C1DC"/>
<path id="Vector_8" d="M47.5786 114.883L49.5409 112.619C60.0952 100.432 79.9838 110.002 77.0315 125.868L76.4834 128.804L79.4712 128.927C95.5766 129.582 100.491 151.108 86.2598 158.678L83.6257 160.076L85.3936 162.481C94.9225 175.482 81.1683 192.745 66.3711 186.342L63.6309 185.157L62.8531 188.04C58.6278 203.606 36.5646 203.606 32.3394 188.04L31.5615 185.157L28.8213 186.342C14.0241 192.745 0.269988 175.482 9.79888 162.481L11.5668 160.076L8.93263 158.678C-5.29883 151.108 -0.384119 129.564 15.7213 128.927L18.709 128.804L18.161 125.868C15.2086 110.019 35.0973 100.432 45.6516 112.619L47.6139 114.883H47.5786Z" fill="#F087B5"/>
<path id="Vector_9" d="M242.187 214.006C238.033 213.705 233.984 213.971 230.13 214.731C227.903 215.173 227.195 217.968 228.893 219.471C233.772 223.84 236.671 230.367 236.106 237.566C235.275 248.02 226.877 256.563 216.447 257.553C209.499 258.208 203.152 255.626 198.733 251.133C197.141 249.523 194.366 250.319 194.048 252.566C193.57 255.732 193.429 259.004 193.659 262.365C195.232 285.306 214.148 303.666 237.113 304.532C263.632 305.523 285.323 283.714 284.121 257.147C283.096 234.382 264.922 215.704 242.222 214.024L242.187 214.006Z" fill="#54C1DC"/>
</g>
</svg>
