<svg width="275" height="304" viewBox="0 0 275 304" fill="none" xmlns="http://www.w3.org/2000/svg">
<path d="M274.241 133.665V174.948C274.241 181.74 271.925 187.878 268.212 192.335C264.482 196.775 259.338 199.517 253.645 199.517C242.295 199.517 233.067 188.515 233.067 174.948C233.067 181.74 230.751 187.878 227.038 192.335C223.326 196.775 218.181 199.517 212.489 199.517C201.139 199.517 191.928 188.515 191.928 174.948V133.665C191.928 126.872 194.244 120.735 197.957 116.277C201.687 111.838 206.814 109.096 212.506 109.096C223.874 109.096 233.085 120.098 233.085 133.665C233.085 126.872 235.4 120.735 239.113 116.277C242.843 111.838 247.988 109.096 253.663 109.096C265.03 109.096 274.241 120.098 274.241 133.665Z" fill="white"/>
<path d="M193.867 224.657L210.291 249.544L217.221 260.051L210.291 270.557L193.867 295.444C191.516 299.017 193.85 304.005 197.88 304.005H266.863C270.894 304.005 273.228 299.017 270.876 295.444L254.453 270.557L247.523 260.051L254.453 249.544L270.876 224.657C273.228 221.084 270.894 216.096 266.863 216.096H197.88C193.85 216.096 191.516 221.084 193.867 224.657Z" fill="white"/>
<path d="M143.563 93.0105C136.598 93.0105 130.163 91.8608 124.311 89.5614C118.442 87.262 113.368 84.0605 109.072 79.9215C104.776 75.8002 101.47 70.9007 99.1186 65.2406C96.785 59.5805 95.6182 53.3543 95.6182 46.5445C95.6182 39.7347 96.838 33.6324 99.26 27.9723C101.682 22.3121 105.059 17.3949 109.408 13.2383C113.739 9.06393 118.884 5.84474 124.841 3.54532C130.799 1.2459 137.305 0.0961914 144.359 0.0961914C148.602 0.0961914 152.756 0.626817 156.787 1.68809C160.818 2.74936 164.636 4.3059 168.207 6.34001C171.779 8.37411 174.961 10.9389 177.772 13.9989L162.603 31.616C161.154 30.0064 159.545 28.556 157.759 27.2824C155.974 26.0089 153.958 25.0007 151.695 24.2755C149.45 23.5503 146.957 23.1965 144.235 23.1965C141.088 23.1965 138.136 23.7272 135.378 24.7884C132.62 25.8497 130.216 27.4063 128.165 29.4404C126.132 31.4745 124.523 33.9507 123.374 36.8339C122.225 39.7347 121.659 43.0423 121.659 46.7921C121.659 50.542 122.225 53.5843 123.374 56.432C124.523 59.2798 126.185 61.703 128.342 63.7017C130.516 65.7005 133.097 67.257 136.12 68.3537C139.143 69.468 142.52 70.0163 146.268 70.0163C148.902 70.0163 151.395 69.6272 153.728 68.8666C156.062 68.106 158.219 67.0801 160.164 65.8066C162.126 64.5331 163.858 63.1357 165.397 61.5969L177.383 80.6113C175.261 82.9992 172.38 85.1217 168.773 86.9967C165.167 88.8716 161.154 90.3397 156.787 91.401C152.403 92.4622 148.001 92.9929 143.581 92.9929L143.563 93.0105Z" fill="white"/>
<path d="M264.292 70.1753V90.2157H199.906V4.14648H262.453V24.1868H223.26V37.099H257.539V56.0427H223.26V70.1753H264.292Z" fill="white"/>
<path d="M45.1276 200.429C38.6218 200.429 32.8231 199.686 27.7316 198.218C22.6578 196.75 18.1851 194.61 14.3134 191.833C10.4417 189.056 6.99437 185.801 3.95361 182.051L19.069 164.983C23.418 170.625 27.8908 174.393 32.4873 176.25C37.0837 178.125 41.5565 179.044 45.9055 179.044C47.8148 179.044 49.5473 178.85 51.1207 178.461C52.6765 178.072 53.8786 177.417 54.7095 176.497C55.5405 175.578 55.9471 174.428 55.9471 173.048C55.9471 171.828 55.5935 170.784 54.904 169.918C54.2145 169.051 53.2599 168.29 52.04 167.636C50.8202 166.981 49.4766 166.398 48.0093 165.885C46.5242 165.354 45.0569 164.947 43.5719 164.647C42.0869 164.346 40.6549 164.01 39.2759 163.674C34.1491 162.542 29.6763 161.109 25.8577 159.376C22.0391 157.642 18.8392 155.573 16.2758 153.185C13.7123 150.797 11.803 148.038 10.5478 144.907C9.29262 141.776 8.65618 138.256 8.65618 134.347C8.65618 130.084 9.6462 126.175 11.6616 122.62C13.6593 119.065 16.3111 115.987 19.5994 113.422C22.9053 110.858 26.7063 108.912 31.0022 107.55C35.2982 106.206 39.7886 105.534 44.4912 105.534C50.9086 105.534 56.389 106.17 60.8971 107.426C65.4052 108.682 69.2062 110.486 72.3 112.839C75.3761 115.191 78.0456 117.915 80.3085 121.046L64.9279 135.904C63.107 133.905 61.127 132.26 59.0055 130.951C56.884 129.642 54.6919 128.669 52.429 128.015C50.1661 127.361 47.8678 127.042 45.5166 127.042C43.3421 127.042 41.4504 127.254 39.8416 127.697C38.2329 128.139 36.9954 128.758 36.1291 129.589C35.2628 130.421 34.8209 131.517 34.8209 132.914C34.8209 134.135 35.2982 135.196 36.2528 136.116C37.2075 137.036 38.4273 137.796 39.8947 138.398C41.362 138.999 42.9531 139.512 44.6503 139.901C46.3475 140.29 47.8855 140.626 49.2821 140.874C54.0554 141.829 58.4221 143.067 62.3822 144.588C66.3245 146.11 69.7896 148.02 72.742 150.319C75.6943 152.619 77.9572 155.431 79.513 158.721C81.0687 162.029 81.8642 165.885 81.8642 170.324C81.8642 176.833 80.2378 182.334 76.9849 186.809C73.732 191.284 69.3476 194.681 63.8318 196.98C58.316 199.279 52.0931 200.429 45.1453 200.429H45.1276Z" fill="white"/>
<path d="M110.928 198.006V177.17H126.609V128.793H110.928V107.957H167.642V128.793H152.085V177.17H167.642V198.006H110.928Z" fill="white"/>
<path d="M81.5104 241.394C79.3713 236.141 76.3482 231.595 72.3882 227.775C68.4458 223.954 63.8139 220.965 58.4572 218.825C53.1182 216.684 47.1958 215.623 40.7077 215.623H3.47607V301.958H40.7077C47.1958 301.958 53.1182 300.896 58.4572 298.756C63.8139 296.616 68.4458 293.644 72.3882 289.806C76.3482 285.985 79.3713 281.422 81.5104 276.116C83.6496 270.809 84.728 265.043 84.728 258.799C84.728 252.555 83.6496 246.665 81.5104 241.394ZM58.581 267.802C57.6087 270.508 56.2474 272.826 54.5149 274.771C52.8 276.699 50.7139 278.203 48.2919 279.264C45.8699 280.343 43.1297 280.874 40.0889 280.874H27.8905V236.707H40.0889C43.1297 236.707 45.8522 237.255 48.2389 238.317C50.6078 239.378 52.694 240.881 54.4618 242.827C56.2297 244.755 57.6087 247.072 58.581 249.796C59.571 252.502 60.066 255.509 60.066 258.799C60.066 262.089 59.571 265.078 58.581 267.802Z" fill="white"/>
<path d="M147.894 215.764H128.218L93.9385 301.816H117.663L122.932 287.559H152.455L157.724 301.816H181.926L147.894 215.764ZM129.278 270.349L132.408 261.859C133.221 259.577 133.981 257.472 134.671 255.597C135.378 253.705 136.014 251.9 136.58 250.185C136.986 248.964 137.375 247.708 137.764 246.4C138.136 247.691 138.525 248.947 138.913 250.185C139.497 251.989 140.098 253.828 140.752 255.721C141.406 257.596 142.149 259.648 142.98 261.859L146.109 270.349H129.278Z" fill="white"/>
<path d="M82.5371 5.0924V87.5179C82.5371 89.6404 80.8222 91.3561 78.7008 91.3561H4.00769C1.88623 91.3561 0.171387 89.6404 0.171387 87.5179V60.65C0.171387 23.134 18.2038 3.32362 41.1863 1.25414C43.3961 1.05957 45.2878 2.86373 45.2878 5.0924V24.0538C52.6599 10.1511 64.5931 2.54534 78.2942 1.27182C80.5747 1.05956 82.5548 2.81066 82.5548 5.11008L82.5371 5.0924Z" fill="white"/>
</svg>
