<svg width="297" height="312" viewBox="0 0 297 312" fill="none" xmlns="http://www.w3.org/2000/svg">
<path d="M40.9124 12.3083L13.0231 40.2119C6.28476 46.9537 6.28476 57.8842 13.0231 64.626L40.9124 92.5296C47.6507 99.2713 58.5757 99.2713 65.3141 92.5296L93.2034 64.626C99.9417 57.8842 99.9417 46.9537 93.2034 40.2119L65.3141 12.3083C58.5757 5.56655 47.6507 5.56655 40.9124 12.3083Z" fill="white"/>
<path d="M209.822 229.696V306.992C209.822 309.734 212.209 311.874 214.931 311.555C230.065 309.787 242.811 300.235 249.105 287.005C250.042 285.041 252.959 285.66 252.959 287.836V306.992C252.959 309.734 255.345 311.874 258.05 311.555C279.671 309.026 296.449 290.648 296.449 268.344C296.449 246.04 279.671 227.662 258.05 225.133C255.328 224.814 252.959 226.954 252.959 229.696V248.852C252.959 251.028 250.042 251.647 249.105 249.683C242.829 236.453 230.065 226.901 214.931 225.133C212.209 224.814 209.822 226.954 209.822 229.696Z" fill="white"/>
<path d="M160.58 102.015C153.615 102.015 147.18 100.866 141.328 98.5663C135.459 96.2669 130.385 93.0654 126.089 88.9264C121.793 84.8051 118.487 79.9056 116.136 74.2455C113.802 68.5854 112.635 62.3592 112.635 55.5494C112.635 48.7396 113.855 42.6373 116.277 36.9771C118.699 31.317 122.076 26.3998 126.425 22.2431C130.756 18.0688 135.901 14.8496 141.858 12.5502C147.816 10.2508 154.322 9.10107 161.376 9.10107C165.619 9.10107 169.773 9.6317 173.804 10.693C177.835 11.7542 181.653 13.3108 185.225 15.3449C188.796 17.379 191.978 19.9437 194.789 23.0037L179.62 40.6208C178.171 39.0112 176.562 37.5608 174.776 36.2873C172.991 35.0138 170.975 34.0056 168.712 33.2804C166.467 32.5552 163.975 32.2014 161.252 32.2014C158.105 32.2014 155.153 32.732 152.395 33.7933C149.637 34.8546 147.233 36.4111 145.182 38.4452C143.131 40.4793 141.54 42.9556 140.391 45.8388C139.242 48.7396 138.676 52.0472 138.676 55.797C138.676 59.5469 139.242 62.5892 140.391 65.4369C141.54 68.2847 143.202 70.7079 145.359 72.7066C147.533 74.7054 150.114 76.2619 153.137 77.3585C156.161 78.4729 159.537 79.0212 163.285 79.0212C165.919 79.0212 168.412 78.6321 170.746 77.8715C173.079 77.1109 175.236 76.085 177.181 74.8115C179.143 73.538 180.876 72.1406 182.414 70.6018L194.4 89.6162C192.278 92.0041 189.397 94.1266 185.79 96.0015C182.184 97.8765 178.171 99.3446 173.804 100.406C169.42 101.467 165.018 101.998 160.598 101.998L160.58 102.015Z" fill="white"/>
<path d="M281.309 79.1802V99.2205H216.923V13.1514H279.471V33.1917H240.259V46.1039H274.556V65.0476H240.259V79.1802H281.309Z" fill="white"/>
<path d="M156.921 209.434C150.415 209.434 144.616 208.691 139.525 207.223C134.451 205.755 129.978 203.615 126.106 200.838C122.235 198.061 118.787 194.806 115.747 191.056L130.862 173.987C135.211 179.63 139.684 183.397 144.28 185.255C148.877 187.13 153.349 188.049 157.698 188.049C159.608 188.049 161.34 187.855 162.914 187.466C164.469 187.076 165.672 186.422 166.502 185.502C167.333 184.583 167.74 183.433 167.74 182.053C167.74 180.833 167.386 179.789 166.697 178.922C166.008 178.056 165.053 177.295 163.833 176.641C162.613 175.986 161.27 175.403 159.802 174.89C158.317 174.359 156.85 173.952 155.365 173.651C153.88 173.351 152.448 173.015 151.069 172.679C145.942 171.547 141.469 170.114 137.651 168.38C133.832 166.647 130.632 164.578 128.069 162.19C125.505 159.802 123.596 157.043 122.341 153.912C121.086 150.781 120.449 147.261 120.449 143.352C120.449 139.089 121.439 135.18 123.455 131.625C125.452 128.07 128.104 124.992 131.392 122.427C134.698 119.863 138.499 117.917 142.795 116.555C147.091 115.211 151.582 114.539 156.284 114.539C162.702 114.539 168.182 115.175 172.69 116.431C177.198 117.687 180.999 119.491 184.093 121.844C187.169 124.196 189.839 126.92 192.101 130.051L176.721 144.909C174.9 142.91 172.92 141.265 170.798 139.956C168.677 138.647 166.485 137.674 164.222 137.02C161.959 136.365 159.661 136.047 157.31 136.047C155.135 136.047 153.243 136.259 151.635 136.701C150.026 137.144 148.788 137.763 147.922 138.594C147.056 139.425 146.614 140.522 146.614 141.919C146.614 143.14 147.091 144.201 148.046 145.121C149 146.041 150.22 146.801 151.688 147.403C153.155 148.004 154.746 148.517 156.443 148.906C158.14 149.295 159.679 149.631 161.075 149.879C165.848 150.834 170.215 152.072 174.175 153.593C178.117 155.115 181.583 157.025 184.535 159.324C187.487 161.624 189.75 164.436 191.306 167.726C192.862 171.034 193.657 174.89 193.657 179.329C193.657 185.838 192.031 191.339 188.778 195.814C185.525 200.289 181.141 203.685 175.625 205.985C170.109 208.284 163.886 209.434 156.938 209.434H156.921Z" fill="white"/>
<path d="M220.759 207.011V186.175H236.44V137.798H220.759V116.962H277.473V137.798H261.915V186.175H277.473V207.011H220.759Z" fill="white"/>
<path d="M98.5276 250.399C96.3884 245.146 93.3477 240.6 89.4053 236.779C85.4629 232.959 80.8134 229.97 75.4744 227.829C70.1353 225.689 64.2129 224.628 57.7248 224.628H20.4932V310.962H57.7248C64.2129 310.962 70.1353 309.901 75.4744 307.761C80.8134 305.621 85.4629 302.649 89.4053 298.811C93.3477 294.99 96.3884 290.427 98.5276 285.12C100.667 279.814 101.727 274.048 101.727 267.804C101.727 261.56 100.667 255.67 98.5276 250.399ZM75.5981 276.807C74.6081 279.513 73.2645 281.83 71.532 283.776C69.7995 285.704 67.731 287.208 65.309 288.269C62.887 289.348 60.1468 289.878 57.106 289.878H44.9077V245.712H57.106C60.1468 245.712 62.8694 246.26 65.2383 247.321C67.625 248.383 69.7111 249.886 71.4789 251.832C73.2291 253.76 74.6081 256.077 75.5981 258.801C76.5881 261.507 77.0831 264.514 77.0831 267.804C77.0831 271.094 76.5881 274.083 75.5981 276.807Z" fill="white"/>
<path d="M164.894 224.769H145.235L110.956 310.821H134.663L139.931 296.564H169.455L174.723 310.821H198.943L164.894 224.769ZM146.296 279.354L149.425 270.864C150.238 268.582 150.998 266.477 151.688 264.602C152.377 262.709 153.014 260.905 153.597 259.19C154.004 257.969 154.392 256.696 154.781 255.387C155.135 256.678 155.524 257.934 155.931 259.19C156.496 260.994 157.115 262.833 157.769 264.726C158.423 266.601 159.166 268.653 159.979 270.864L163.108 279.354H146.296Z" fill="white"/>
<path d="M56.4584 119.222C52.3039 118.922 48.2554 119.187 44.4014 119.947C42.1739 120.39 41.4668 123.184 43.1639 124.688C48.0433 129.057 50.9426 135.584 50.3769 142.782C49.546 153.236 41.1485 161.779 30.718 162.77C23.7702 163.424 17.4236 160.842 13.0039 156.349C11.4128 154.74 8.6372 155.535 8.31898 157.782C7.84165 160.948 7.70022 164.22 7.93004 167.581C9.50346 190.522 28.4198 208.882 51.3846 209.749C77.9028 210.739 99.5948 188.93 98.3926 162.363C97.3672 139.599 79.1934 120.92 56.4938 119.24L56.4584 119.222Z" fill="white"/>
</svg>
