<svg width="286" height="311" viewBox="0 0 286 311" fill="none" xmlns="http://www.w3.org/2000/svg">
<path d="M50.8967 92.9144C43.9312 92.9144 37.4961 91.7647 31.6444 89.4653C25.775 87.1658 20.7012 83.9643 16.4052 79.8254C12.1093 75.7041 8.80332 70.8045 6.45203 65.1444C4.11843 59.4843 2.95166 53.2582 2.95166 46.4484C2.95166 39.6385 4.1715 33.5362 6.5935 27.8761C9.0155 22.216 12.3921 17.2987 16.7411 13.1421C21.0724 8.96776 26.217 5.74858 32.1748 3.44916C38.1325 1.14973 44.6383 0 51.6922 0C55.9351 0 60.0896 0.530652 64.1204 1.59192C68.1512 2.6532 71.9698 4.20971 75.541 6.24382C79.1121 8.27792 82.2942 10.8427 85.1052 13.9027L69.9367 31.5198C68.4871 29.9102 66.8783 28.4598 65.0928 27.1863C63.3072 25.9127 61.2918 24.9045 59.0289 24.1793C56.7837 23.4541 54.291 23.1004 51.5685 23.1004C48.4216 23.1004 45.4692 23.631 42.7113 24.6923C39.9534 25.7535 37.5491 27.3101 35.4983 29.3442C33.4653 31.3783 31.8565 33.8546 30.7074 36.7377C29.5583 39.6385 28.9925 42.9462 28.9925 46.696C28.9925 50.4458 29.5583 53.4881 30.7074 56.3359C31.8565 59.1836 33.5183 61.6069 35.6751 63.6056C37.8496 65.6043 40.4307 67.1609 43.4538 68.2575C46.4769 69.3718 49.8536 69.9201 53.6015 69.9201C56.2357 69.9201 58.7284 69.531 61.062 68.7704C63.3956 68.0099 65.5524 66.984 67.4971 65.7104C69.4594 64.4369 71.1919 63.0396 72.73 61.5007L84.7163 80.5152C82.5948 82.903 79.7131 85.0256 76.1066 86.9005C72.5002 88.7754 68.4871 90.2435 64.1204 91.3048C59.736 92.366 55.334 92.8967 50.9143 92.8967L50.8967 92.9144Z" fill="white"/>
<path d="M172.333 68.7528V88.7932H107.946V2.7417H170.494V22.7821H131.3V35.6942H165.579V54.6202H131.3V68.7528H172.333Z" fill="white"/>
<path d="M142.367 199.006C135.861 199.006 130.062 198.263 124.971 196.795C119.897 195.327 115.424 193.187 111.553 190.41C107.681 187.633 104.234 184.378 101.193 180.629L116.308 163.56C120.657 169.202 125.13 172.97 129.727 174.827C134.323 176.702 138.796 177.622 143.145 177.622C145.054 177.622 146.787 177.427 148.36 177.038C149.916 176.649 151.118 175.994 151.949 175.075C152.78 174.155 153.186 173.005 153.186 171.625C153.186 170.405 152.833 169.361 152.143 168.495C151.454 167.628 150.499 166.867 149.279 166.213C148.059 165.558 146.716 164.975 145.249 164.462C143.764 163.931 142.296 163.524 140.811 163.224C139.326 162.923 137.894 162.587 136.515 162.251C131.388 161.119 126.916 159.686 123.097 157.953C119.278 156.219 116.078 154.15 113.515 151.762C110.952 149.374 109.042 146.615 107.787 143.484C106.532 140.353 105.895 136.833 105.895 132.924C105.895 128.662 106.885 124.753 108.901 121.197C110.899 117.642 113.55 114.564 116.839 112C120.145 109.435 123.946 107.489 128.242 106.127C132.537 104.783 137.028 104.111 141.73 104.111C148.148 104.111 153.628 104.748 158.136 106.003C162.645 107.259 166.445 109.063 169.539 111.416C172.615 113.768 175.285 116.492 177.548 119.623L162.167 134.481C160.346 132.482 158.366 130.837 156.245 129.528C154.123 128.219 151.931 127.247 149.668 126.592C147.405 125.938 145.107 125.619 142.756 125.619C140.581 125.619 138.69 125.832 137.081 126.274C135.472 126.716 134.235 127.335 133.368 128.166C132.502 128.998 132.06 130.094 132.06 131.492C132.06 132.712 132.537 133.773 133.492 134.693C134.447 135.613 135.667 136.373 137.134 136.975C138.601 137.576 140.192 138.089 141.89 138.478C143.587 138.867 145.125 139.204 146.521 139.451C151.295 140.406 155.661 141.644 159.621 143.166C163.564 144.687 167.029 146.597 169.981 148.896C172.934 151.196 175.197 154.008 176.752 157.298C178.308 160.606 179.104 164.462 179.104 168.901C179.104 175.411 177.477 180.912 174.224 185.387C170.971 189.862 166.587 193.258 161.071 195.557C155.555 197.856 149.332 199.006 142.385 199.006H142.367Z" fill="white"/>
<path d="M206.205 196.601V175.764H221.886V127.388H206.205V106.552H262.919V127.388H247.361V175.764H262.919V196.601H206.205Z" fill="white"/>
<path d="M83.9739 239.989C81.8347 234.718 78.794 230.172 74.8516 226.352C70.9092 222.531 66.2597 219.56 60.9206 217.419C55.5816 215.279 49.6593 214.2 43.1711 214.2H5.93945V300.552H43.1711C49.6593 300.552 55.5816 299.473 60.9206 297.333C66.2597 295.211 70.9092 292.221 74.8516 288.401C78.794 284.58 81.8347 280.017 83.9739 274.71C86.113 269.404 87.1737 263.62 87.1737 257.376C87.1737 251.132 86.113 245.242 83.9739 239.989ZM61.0444 266.379C60.0544 269.086 58.6931 271.42 56.9783 273.348C55.2458 275.276 53.1773 276.78 50.7553 277.859C48.3156 278.92 45.5931 279.451 42.5524 279.451H30.354V235.302H42.5524C45.5931 235.302 48.298 235.832 50.6846 236.894C53.0713 237.973 55.1397 239.476 56.9076 241.404C58.6754 243.332 60.0544 245.667 61.0444 248.373C62.0344 251.079 62.5294 254.086 62.5294 257.376C62.5294 260.666 62.0344 263.673 61.0444 266.379Z" fill="white"/>
<path d="M150.34 214.342H130.681L96.4019 300.411H120.109L125.377 286.137H154.901L160.169 300.411H184.372L150.34 214.342ZM131.724 268.927L134.853 260.454C135.684 258.155 136.427 256.068 137.134 254.175C137.823 252.3 138.46 250.496 139.043 248.762C139.45 247.542 139.839 246.268 140.21 244.959C140.581 246.251 140.97 247.524 141.377 248.762C141.943 250.567 142.561 252.424 143.215 254.299C143.87 256.191 144.612 258.243 145.425 260.454L148.554 268.927H131.724Z" fill="white"/>
<path d="M257.477 44.3789C257.265 44.3789 257.07 44.3789 256.858 44.3789C256.858 44.3435 256.858 44.3258 256.858 44.2904C257.424 44.3258 257.972 44.3612 258.538 44.3612C270.789 44.3612 280.707 34.4383 280.707 22.1806C280.707 9.9229 270.789 0 258.538 0C246.286 0 236.757 9.55143 236.386 21.4731C236.386 21.4731 236.369 21.4731 236.351 21.4731C235.98 9.55143 226.203 0 214.199 0C202.195 0 192.03 9.9229 192.03 22.1806C192.03 34.4383 201.948 44.3612 214.199 44.3612C214.199 44.3612 214.199 44.3789 214.199 44.3965C213.846 44.3965 213.492 44.3612 213.121 44.3612C200.869 44.3612 190.952 54.2841 190.952 66.5418C190.952 78.7995 200.869 88.7223 213.121 88.7223C225.372 88.7223 235.29 78.7995 235.29 66.5418C235.29 78.7995 245.208 88.7223 257.459 88.7223C269.711 88.7223 279.629 78.7995 279.629 66.5418C279.629 54.2841 269.711 44.3612 257.459 44.3612L257.477 44.3789Z" fill="white"/>
<path d="M5.30064 113H79.1452C81.5318 113 83.4765 114.946 83.4765 117.334V162.155C83.4765 184.937 64.9844 203.438 42.2141 203.438C19.4437 203.438 0.95166 184.937 0.95166 162.155V117.334C0.95166 114.946 2.8963 113 5.28294 113H5.30064Z" fill="white"/>
<path d="M220.68 217.673L192.79 245.576C186.052 252.318 186.052 263.248 192.79 269.99L220.68 297.894C227.418 304.636 238.343 304.636 245.081 297.894L272.97 269.99C279.709 263.248 279.709 252.318 272.97 245.576L245.081 217.673C238.343 210.931 227.418 210.931 220.68 217.673Z" fill="white"/>
</svg>
