<svg width="277" height="306" viewBox="0 0 277 306" fill="none" xmlns="http://www.w3.org/2000/svg">
<path d="M143.701 94.6313C136.611 94.6313 130.07 93.4639 124.113 91.1291C118.137 88.7943 112.975 85.522 108.608 81.33C104.242 77.138 100.865 72.1677 98.4959 66.4014C96.1093 60.6529 94.9248 54.3029 94.9248 47.387C94.9248 40.471 96.1623 34.2626 98.6197 28.4963C101.077 22.7478 104.524 17.7421 108.926 13.497C113.328 9.25194 118.561 5.962 124.625 3.6272C130.671 1.2924 137.301 0.125 144.479 0.125C148.81 0.125 153.017 0.673324 157.119 1.75228C161.22 2.83124 165.092 4.40546 168.734 6.49263C172.376 8.5798 175.611 11.1622 178.457 14.2753L163.024 32.1931C161.556 30.5481 159.912 29.08 158.091 27.7888C156.27 26.4976 154.22 25.4717 151.921 24.7465C149.623 24.0213 147.095 23.6499 144.337 23.6499C141.137 23.6499 138.132 24.1982 135.321 25.2771C132.51 26.3561 130.07 27.9303 127.984 30.0175C125.898 32.1047 124.289 34.5987 123.123 37.5525C121.956 40.4887 121.372 43.8671 121.372 47.67C121.372 51.4729 121.956 54.5683 123.123 57.4691C124.289 60.3699 125.969 62.8285 128.179 64.8626C130.389 66.8967 133.023 68.4709 136.099 69.6029C139.175 70.735 142.605 71.2833 146.406 71.2833C149.093 71.2833 151.621 70.8942 153.99 70.1159C156.376 69.3376 158.551 68.294 160.549 67.0028C162.529 65.7116 164.314 64.2789 165.87 62.7224L178.068 82.0552C175.912 84.4784 172.995 86.6364 169.317 88.5466C165.64 90.4569 161.574 91.9427 157.119 93.0217C152.664 94.1006 148.191 94.649 143.701 94.649V94.6313Z" fill="white"/>
<path d="M264.642 70.3812V90.4216H200.255V4.37012H262.803V24.4105H223.609V37.3049H257.888V56.2486H223.609V70.3812H264.642Z" fill="white"/>
<path d="M41.9768 201.254C35.4709 201.254 29.6723 200.511 24.5808 199.043C19.507 197.575 15.0342 195.434 11.1626 192.658C7.29089 189.881 3.84349 186.626 0.802734 182.876L15.9182 165.807C20.2672 171.45 24.7399 175.217 29.3364 177.074C33.9329 178.949 38.4056 179.869 42.7546 179.869C44.6639 179.869 46.3964 179.675 47.9699 179.285C49.5256 178.896 50.7278 178.242 51.5587 177.322C52.3896 176.402 52.7962 175.253 52.7962 173.873C52.7962 172.653 52.4426 171.609 51.7531 170.742C51.0637 169.876 50.109 169.115 48.8892 168.46C47.6693 167.806 46.3258 167.222 44.8584 166.709C43.3734 166.179 41.906 165.772 40.421 165.471C38.936 165.171 37.504 164.834 36.1251 164.498C30.9982 163.366 26.5255 161.934 22.7068 160.2C18.8882 158.467 15.6883 156.397 13.1249 154.01C10.5615 151.622 8.65216 148.862 7.39696 145.732C6.14176 142.601 5.50531 139.081 5.50531 135.172C5.50531 130.909 6.49535 127 8.51073 123.445C10.5084 119.89 13.1603 116.812 16.4485 114.247C19.7545 111.682 23.5554 109.737 27.8514 108.375C32.1473 107.031 36.6377 106.358 41.3403 106.358C47.7577 106.358 53.2382 106.995 57.7463 108.251C62.2544 109.507 66.0553 111.311 69.1491 113.663C72.2252 116.016 74.8947 118.74 77.1576 121.871L61.7771 136.728C59.9562 134.73 57.9761 133.085 55.8546 131.776C53.7332 130.467 51.541 129.494 49.2781 128.84C47.0152 128.185 44.717 127.867 42.3657 127.867C40.1912 127.867 38.2996 128.079 36.6908 128.521C35.082 128.963 33.8445 129.583 32.9782 130.414C32.112 131.245 31.67 132.342 31.67 133.739C31.67 134.96 32.1473 136.021 33.102 136.941C34.0567 137.86 35.2765 138.621 36.7438 139.222C38.2112 139.824 39.8023 140.337 41.4994 140.726C43.1966 141.115 44.7347 141.451 46.1313 141.699C50.9046 142.654 55.2713 143.892 59.2313 145.413C63.1737 146.934 66.6387 148.845 69.5911 151.144C72.5434 153.444 74.8064 156.256 76.3621 159.546C77.9178 162.853 78.7134 166.709 78.7134 171.149C78.7134 177.658 77.0869 183.159 73.834 187.634C70.5811 192.109 66.1967 195.505 60.6809 197.805C55.1651 200.104 48.9422 201.254 41.9944 201.254H41.9768Z" fill="white"/>
<path d="M107.937 198.831V177.994H123.618V129.618H107.937V108.782H164.65V129.618H149.093V177.994H164.65V198.831H107.937Z" fill="white"/>
<path d="M176.406 242.219C174.267 236.966 171.227 232.42 167.284 228.599C163.342 224.779 158.692 221.789 153.353 219.649C148.014 217.509 142.092 216.448 135.604 216.448H98.3721V302.782H135.604C142.092 302.782 148.014 301.721 153.353 299.581C158.692 297.441 163.342 294.451 167.284 290.631C171.227 286.81 174.267 282.247 176.406 276.94C178.546 271.634 179.606 265.868 179.606 259.624C179.606 253.38 178.546 247.49 176.406 242.219ZM153.477 268.627C152.487 271.333 151.143 273.65 149.411 275.596C147.678 277.524 145.61 279.027 143.188 280.089C140.766 281.168 138.026 281.698 134.985 281.698H122.787V237.532H134.985C138.026 237.532 140.731 238.08 143.117 239.141C145.504 240.203 147.572 241.706 149.34 243.634C151.108 245.58 152.487 247.897 153.477 250.621C154.467 253.327 154.962 256.334 154.962 259.624C154.962 262.914 154.467 265.903 153.477 268.627Z" fill="white"/>
<path d="M242.773 216.589H223.114L188.835 302.64H212.542L217.811 288.384H247.334L252.602 302.64H276.823L242.773 216.589ZM224.157 271.174L227.286 262.683C228.117 260.402 228.878 258.297 229.567 256.422C230.256 254.529 230.893 252.725 231.476 251.009C231.883 249.789 232.272 248.515 232.661 247.207C233.014 248.498 233.403 249.754 233.81 251.009C234.376 252.814 234.994 254.653 235.649 256.546C236.303 258.421 237.045 260.472 237.858 262.683L240.987 271.174H224.157Z" fill="white"/>
<path d="M82.7317 40.3238C80.5042 69.7211 57.0444 93.1752 27.6799 95.4038C25.1871 95.5984 23.0833 93.5643 23.0833 91.0703V60.5234C17.4261 62.8582 11.3446 64.3263 4.99788 64.8216C2.50516 65.0161 0.401367 62.982 0.401367 60.488V9.4585C0.401367 7.07063 2.34606 5.125 4.7327 5.125H55.7362C58.2289 5.125 60.2442 7.22985 60.0674 9.70615C59.3603 19.1515 56.4433 27.9954 51.8468 35.6896H78.4181C80.9108 35.6896 82.9439 37.7945 82.7494 40.2885L82.7317 40.3238Z" fill="white"/>
<path d="M5.19362 215.125H79.0381C81.4248 215.125 83.3694 217.071 83.3694 219.459V264.28C83.3694 287.062 64.8774 305.563 42.107 305.563C19.3544 305.563 0.862305 287.079 0.862305 264.297V219.476C0.862305 217.071 2.80698 215.125 5.19362 215.125Z" fill="white"/>
<path d="M271.228 113.978V196.403C271.228 198.526 269.513 200.241 267.392 200.241H192.699C190.577 200.241 188.862 198.526 188.862 196.403V169.535C188.862 132.019 206.895 112.209 229.877 110.139C232.087 109.945 233.979 111.749 233.979 113.978V132.939C241.351 119.036 253.284 111.431 266.985 110.157C269.266 109.945 271.246 111.696 271.246 113.995L271.228 113.978Z" fill="white"/>
</svg>
