<svg width="284" height="306" viewBox="0 0 284 306" fill="none" xmlns="http://www.w3.org/2000/svg">
<path d="M42.944 215.125C65.7143 215.125 84.2064 233.627 84.2064 256.408V264.28C84.2064 287.062 65.7143 305.563 42.944 305.563H6.01292C3.62628 305.563 1.68164 303.617 1.68164 301.23V256.408C1.68164 233.627 20.1736 215.125 42.944 215.125Z" fill="white"/>
<path d="M47.5561 93.0655C40.6436 93.0655 34.2793 91.9334 28.4629 89.6517C22.6466 87.37 17.6081 84.1861 13.3475 80.1003C9.08693 76.0144 5.79866 71.1679 3.48273 65.5608C1.16681 59.9538 0 53.7807 0 47.0239C0 40.2672 1.20218 34.2356 3.6065 28.6286C6.01082 23.0215 9.35211 18.1573 13.6481 14.0184C17.944 9.87942 23.0532 6.67792 28.9402 4.39618C34.845 2.11445 41.2801 0.982422 48.2809 0.982422C52.4885 0.982422 56.6076 1.51306 60.603 2.55664C64.5985 3.61791 68.3818 5.15676 71.9175 7.17317C75.4533 9.18959 78.6178 11.719 81.3934 14.7613L66.3487 32.2192C64.9167 30.6096 63.3079 29.1769 61.54 27.921C59.7721 26.6475 57.7744 25.657 55.5292 24.9495C53.3017 24.242 50.8266 23.8705 48.1395 23.8705C45.028 23.8705 42.0933 24.4012 39.3531 25.4447C36.6129 26.506 34.2262 28.0449 32.2108 30.0613C30.1955 32.0777 28.6044 34.5363 27.4729 37.4017C26.3415 40.2672 25.7581 43.5571 25.7581 47.2716C25.7581 50.986 26.3238 53.993 27.4729 56.823C28.6044 59.6531 30.2485 62.0586 32.4053 64.0397C34.5621 66.0207 37.1256 67.5595 40.1133 68.6562C43.101 69.7528 46.46 70.3012 50.1725 70.3012C52.789 70.3012 55.2464 69.9297 57.5623 69.1691C59.8782 68.4086 61.9997 67.4004 63.9443 66.1268C65.889 64.871 67.6039 63.4737 69.1243 61.9525L81.0044 80.8078C78.9007 83.1779 76.0544 85.2828 72.4656 87.14C68.8768 88.9972 64.9167 90.4476 60.5854 91.5089C56.2364 92.5702 51.8874 93.0831 47.503 93.0831L47.5561 93.0655Z" fill="white"/>
<path d="M169.752 70.6372V90.6776H105.365V4.6084H167.913V24.6488H128.719V37.5609H162.998V56.4869H128.719V70.6372H169.752Z" fill="white"/>
<path d="M42.9416 200.891C36.4358 200.891 30.6371 200.148 25.5456 198.68C20.4718 197.211 15.999 195.071 12.1274 192.294C8.25571 189.517 4.80834 186.263 1.76758 182.513L16.883 165.444C21.232 171.086 25.7047 174.854 30.3012 176.711C34.8977 178.586 39.3704 179.506 43.7194 179.506C45.6288 179.506 47.3613 179.311 48.9347 178.922C50.4905 178.533 51.6926 177.879 52.5235 176.959C53.3544 176.039 53.761 174.889 53.761 173.51C53.761 172.289 53.4075 171.246 52.718 170.379C52.0285 169.512 51.0738 168.752 49.854 168.097C48.6342 167.443 47.2906 166.859 45.8232 166.346C44.3382 165.815 42.8709 165.409 41.3859 165.108C39.9008 164.807 38.4688 164.471 37.0899 164.135C31.963 163.003 27.4903 161.57 23.6717 159.837C19.853 158.104 16.6532 156.034 14.0897 153.646C11.5263 151.258 9.61697 148.499 8.36178 145.368C7.10658 142.238 6.47015 138.718 6.47015 134.809C6.47015 130.546 7.46016 126.637 9.47555 123.082C11.4733 119.526 14.1251 116.449 17.4134 113.884C20.7193 111.319 24.5202 109.373 28.8162 108.012C33.1122 106.667 37.6026 105.995 42.3052 105.995C48.7226 105.995 54.203 106.632 58.7111 107.888C63.2192 109.144 67.0202 110.948 70.114 113.3C73.1901 115.653 75.8596 118.377 78.1225 121.507L62.7419 136.365C60.921 134.366 58.9409 132.721 56.8195 131.413C54.698 130.104 52.5058 129.131 50.2429 128.476C47.98 127.822 45.6818 127.504 43.3305 127.504C41.156 127.504 39.2644 127.716 37.6556 128.158C36.0468 128.6 34.8093 129.219 33.9431 130.051C33.0768 130.882 32.6348 131.979 32.6348 133.376C32.6348 134.596 33.1122 135.658 34.0668 136.577C35.0215 137.497 36.2413 138.258 37.7087 138.859C39.176 139.461 40.7671 139.974 42.4643 140.363C44.1614 140.752 45.6995 141.088 47.0961 141.335C51.8694 142.291 56.2361 143.529 60.1961 145.05C64.1385 146.571 67.6036 148.481 70.5559 150.781C73.5083 153.08 75.7712 155.893 77.3269 159.183C78.8827 162.49 79.6782 166.346 79.6782 170.786C79.6782 177.295 78.0517 182.796 74.7988 187.271C71.5459 191.746 67.1616 195.142 61.6458 197.441C56.13 199.741 49.907 200.891 42.9593 200.891H42.9416Z" fill="white"/>
<path d="M109.22 198.467V177.631H124.901V129.255H109.22V108.418H165.933V129.255H150.376V177.631H165.933V198.467H109.22Z" fill="white"/>
<path d="M177.371 241.856C175.232 236.602 172.191 232.057 168.249 228.236C164.307 224.415 159.657 221.426 154.318 219.286C148.979 217.146 143.057 216.084 136.569 216.084H99.3369V302.419H136.569C143.057 302.419 148.979 301.358 154.318 299.217C159.657 297.077 164.307 294.088 168.249 290.267C172.191 286.447 175.232 281.883 177.371 276.577C179.51 271.271 180.589 265.504 180.589 259.261C180.589 253.017 179.51 247.127 177.371 241.856ZM154.442 268.264C153.452 270.97 152.108 273.287 150.376 275.233C148.661 277.161 146.575 278.664 144.153 279.725C141.731 280.804 138.991 281.335 135.95 281.335H123.751V237.168H135.95C138.991 237.168 141.713 237.717 144.082 238.778C146.469 239.839 148.555 241.343 150.323 243.271C152.091 245.216 153.452 247.533 154.442 250.257C155.432 252.964 155.927 255.971 155.927 259.261C155.927 262.55 155.432 265.54 154.442 268.264Z" fill="white"/>
<path d="M246.62 216.226H226.961L192.682 302.277H216.407L221.675 288.021H251.181L256.449 302.277H280.669L246.62 216.226ZM228.022 270.81L231.151 262.32C231.964 260.038 232.724 257.934 233.414 256.059C234.121 254.166 234.757 252.362 235.323 250.646C235.73 249.426 236.118 248.17 236.507 246.861C236.879 248.152 237.268 249.408 237.657 250.646C238.222 252.45 238.841 254.29 239.495 256.182C240.149 258.057 240.892 260.109 241.705 262.32L244.834 270.81H228.022Z" fill="white"/>
<path d="M276.686 92.8802H195.682V42.4698C195.682 19.0864 213.82 0.125 236.184 0.125C258.548 0.125 276.686 19.0864 276.686 42.4698V92.8802Z" fill="white"/>
<path d="M203.814 197.54C192.8 198.92 185.552 186.362 192.27 177.518C205.511 160.042 216.49 140.992 224.993 120.793C229.307 110.569 243.786 110.569 248.1 120.793C256.603 140.992 267.599 160.042 280.823 177.518C287.524 186.362 280.275 198.92 269.279 197.54C247.552 194.816 225.559 194.816 203.814 197.54Z" fill="white"/>
</svg>
