<svg width="282" height="306" viewBox="0 0 282 306" fill="none" xmlns="http://www.w3.org/2000/svg">
<path d="M77.9437 266.694C82.0099 270.744 84.5203 276.351 84.5203 282.542C84.5203 294.941 74.4787 304.988 62.1035 304.988H24.4299C18.2423 304.988 12.6382 302.476 8.58971 298.408C4.52358 294.358 2.01318 288.733 2.01318 282.542C2.01318 270.161 12.0547 260.114 24.4299 260.114C18.2423 260.114 12.6382 257.602 8.58971 253.534C4.52358 249.483 2.01318 243.876 2.01318 237.686C2.01318 225.286 12.0547 215.24 24.4299 215.24H62.1035C68.2911 215.24 73.8953 217.751 77.9437 221.82C82.0099 225.87 84.5203 231.495 84.5203 237.686C84.5203 250.067 74.4787 260.114 62.1035 260.114C68.2911 260.114 73.8953 262.626 77.9437 266.694Z" fill="white"/>
<path d="M46.5946 95.234C39.859 95.234 33.6537 94.1197 27.9788 91.9087C22.3039 89.68 17.3892 86.5847 13.2523 82.5872C9.09782 78.6074 5.89795 73.8671 3.63506 68.4015C1.37217 62.936 0.240723 56.9044 0.240723 50.3245C0.240723 43.7446 1.40753 37.8369 3.75881 32.3713C6.1101 26.9058 9.363 22.1478 13.5529 18.1149C17.7428 14.0821 22.7105 10.9513 28.4738 8.74036C34.2194 6.51169 40.5131 5.41504 47.3371 5.41504C51.4386 5.41504 55.4517 5.92799 59.3587 6.95388C63.2658 7.97978 66.943 9.48325 70.3903 11.4643C73.8377 13.4453 76.9315 15.9039 79.6364 18.8578L64.9629 35.8912C63.5663 34.3347 62.0106 32.9374 60.278 31.6992C58.5455 30.4611 56.6008 29.5059 54.4263 28.7984C52.2519 28.1086 49.8475 27.7548 47.2134 27.7548C44.1726 27.7548 41.3087 28.2678 38.6391 29.2937C35.9696 30.3196 33.636 31.823 31.6737 33.8041C29.7113 35.7851 28.1556 38.1553 27.0418 40.9677C25.9281 43.7623 25.38 46.9815 25.38 50.5899C25.38 54.1982 25.9281 57.1521 27.0418 59.9114C28.1556 62.6707 29.7467 65.0055 31.8505 66.9511C33.9543 68.8791 36.447 70.3826 39.364 71.4615C42.281 72.5228 45.5516 73.0711 49.1757 73.0711C51.7215 73.0711 54.1258 72.6997 56.3887 71.9568C58.6516 71.2139 60.72 70.2234 62.6117 69.0029C64.5033 67.7648 66.1828 66.4205 67.6678 64.9347L79.2651 83.3124C77.2144 85.6118 74.4388 87.6636 70.9384 89.4855C67.438 91.2896 63.584 92.7224 59.3411 93.7483C55.0981 94.7741 50.8552 95.2871 46.5769 95.2871L46.5946 95.234Z" fill="white"/>
<path d="M168.314 74.0796V94.1199H103.91V8.05078H166.457V28.0911H127.263V41.0033H161.543V59.9293H127.263V74.0796H168.314Z" fill="white"/>
<path d="M136.615 204.333C130.109 204.333 124.31 203.59 119.219 202.122C114.145 200.654 109.672 198.514 105.801 195.737C101.929 192.96 98.4817 189.705 95.4409 185.955L110.556 168.886C114.905 174.529 119.378 178.296 123.975 180.154C128.571 182.028 133.044 182.948 137.393 182.948C139.302 182.948 141.035 182.754 142.608 182.365C144.164 181.975 145.366 181.321 146.197 180.401C147.028 179.481 147.434 178.332 147.434 176.952C147.434 175.732 147.081 174.688 146.391 173.821C145.702 172.955 144.747 172.194 143.527 171.54C142.308 170.885 140.964 170.301 139.497 169.789C138.012 169.258 136.544 168.851 135.059 168.55C133.574 168.25 132.142 167.914 130.763 167.578C125.636 166.445 121.164 165.013 117.345 163.279C113.526 161.546 110.326 159.476 107.763 157.089C105.2 154.701 103.29 151.941 102.035 148.811C100.78 145.68 100.143 142.16 100.143 138.251C100.143 133.988 101.134 130.079 103.149 126.524C105.147 122.969 107.798 119.891 111.087 117.326C114.393 114.762 118.194 112.816 122.49 111.454C126.785 110.11 131.276 109.438 135.978 109.438C142.396 109.438 147.876 110.074 152.384 111.33C156.893 112.586 160.693 114.39 163.787 116.743C166.863 119.095 169.533 121.819 171.796 124.95L156.415 139.808C154.594 137.809 152.614 136.164 150.493 134.855C148.371 133.546 146.179 132.573 143.916 131.919C141.653 131.264 139.355 130.946 137.004 130.946C134.829 130.946 132.938 131.158 131.329 131.6C129.72 132.043 128.483 132.662 127.616 133.493C126.75 134.324 126.308 135.421 126.308 136.818C126.308 138.039 126.785 139.1 127.74 140.02C128.695 140.94 129.915 141.7 131.382 142.302C132.849 142.903 134.44 143.416 136.138 143.805C137.835 144.194 139.373 144.53 140.769 144.778C145.543 145.733 149.909 146.971 153.869 148.492C157.812 150.013 161.277 151.924 164.229 154.223C167.182 156.523 169.445 159.335 171 162.625C172.556 165.933 173.352 169.788 173.352 174.228C173.352 180.737 171.725 186.238 168.472 190.713C165.219 195.188 160.835 198.584 155.319 200.884C149.803 203.183 143.58 204.333 136.633 204.333H136.615Z" fill="white"/>
<path d="M202.168 201.91V181.073H217.85V132.697H202.168V111.861H258.882V132.697H243.325V181.073H258.882V201.91H202.168Z" fill="white"/>
<path d="M175.916 245.298C173.794 240.045 170.754 235.499 166.793 231.678C162.851 227.858 158.219 224.869 152.863 222.728C147.524 220.588 141.601 219.527 135.113 219.527H97.8813V305.861H135.113C141.601 305.861 147.524 304.8 152.863 302.66C158.219 300.52 162.851 297.53 166.793 293.71C170.754 289.889 173.794 285.326 175.916 280.019C178.055 274.713 179.133 268.947 179.133 262.703C179.133 256.459 178.055 250.569 175.916 245.298ZM152.986 271.706C152.014 274.412 150.653 276.729 148.92 278.675C147.205 280.603 145.119 282.107 142.697 283.168C140.275 284.247 137.535 284.777 134.494 284.777H122.296V240.611H134.494C137.535 240.611 140.258 241.159 142.644 242.22C145.013 243.282 147.099 244.785 148.867 246.713C150.635 248.659 152.014 250.976 152.986 253.7C153.976 256.406 154.471 259.413 154.471 262.703C154.471 265.993 153.976 268.982 152.986 271.706Z" fill="white"/>
<path d="M242.299 219.668H222.623L188.343 305.719H212.068L217.337 291.463H246.86L252.128 305.719H276.331L242.299 219.668ZM223.683 274.253L226.812 265.763C227.626 263.481 228.386 261.376 229.075 259.501C229.782 257.608 230.419 255.804 230.985 254.089C231.391 252.868 231.78 251.612 232.169 250.303C232.54 251.595 232.929 252.85 233.318 254.089C233.902 255.893 234.503 257.732 235.157 259.625C235.829 261.5 236.553 263.552 237.384 265.763L240.513 274.253H223.683Z" fill="white"/>
<path d="M238.009 8.70364L244.727 2.49519C250.349 -2.68735 259.401 1.68155 258.853 9.30502L258.181 18.432C257.863 22.8186 260.974 26.7099 265.306 27.382L274.34 28.7617C281.888 29.9114 284.134 39.7282 277.822 44.044L270.273 49.2089C266.649 51.7028 265.535 56.5493 267.728 60.3699L272.289 68.2941C276.09 74.927 269.831 82.7981 262.512 80.5518L253.761 77.8809C249.554 76.5897 245.063 78.7476 243.455 82.8512L240.096 91.359C237.285 98.4696 227.225 98.4696 224.414 91.359L221.056 82.8512C219.447 78.7653 214.956 76.5897 210.749 77.8809L201.998 80.5518C194.696 82.7981 188.42 74.927 192.221 68.2941L196.782 60.3699C198.975 56.5493 197.861 51.7028 194.237 49.2089L186.688 44.044C180.377 39.7282 182.622 29.9114 190.171 28.7617L199.204 27.382C203.553 26.7099 206.647 22.8186 206.329 18.432L205.657 9.30502C205.109 1.68155 214.161 -2.68735 219.783 2.49519L226.501 8.70364C229.736 11.6929 234.704 11.6929 237.939 8.70364H238.009Z" fill="white"/>
<path d="M84.1137 199.236H11.5774C6.29144 199.236 2.01318 194.955 2.01318 189.666V109.24C47.3594 109.24 84.1137 146.013 84.1137 191.382V199.218V199.236Z" fill="white"/>
</svg>
