<svg width="320" height="89" viewBox="0 0 320 89" fill="none" xmlns="http://www.w3.org/2000/svg">
<path d="M66.5255 44.3789C66.3133 44.3789 66.1188 44.3789 65.9067 44.3789C65.9067 44.3435 65.9067 44.3258 65.9067 44.2904C66.4724 44.3258 67.0204 44.3612 67.5862 44.3612C79.8376 44.3612 89.7554 34.4383 89.7554 22.1806C89.7554 9.9229 79.8376 0 67.5862 0C55.3347 0 45.8058 9.55143 45.4346 21.4731C45.4346 21.4731 45.4169 21.4731 45.3992 21.4731C45.028 9.55143 35.2516 0 23.2477 0C11.2437 0 1.07838 9.9229 1.07838 22.1806C1.07838 34.4383 10.9962 44.3612 23.2477 44.3612C23.2477 44.3612 23.2477 44.3789 23.2477 44.3965C22.8941 44.3965 22.5405 44.3612 22.1692 44.3612C9.91779 44.3612 0 54.2841 0 66.5418C0 78.7995 9.91779 88.7223 22.1692 88.7223C34.4207 88.7223 44.3385 78.7995 44.3385 66.5418C44.3385 78.7995 54.2563 88.7223 66.5078 88.7223C78.7592 88.7223 88.677 78.7995 88.677 66.5418C88.677 54.2841 78.7592 44.3612 66.5078 44.3612L66.5255 44.3789Z" fill="#E94F1E"/>
<path d="M128.125 70V21H137.715L155.565 50.05L149.265 49.98L167.325 21H176.495V70H166.205V53.2C166.205 49 166.299 45.22 166.485 41.86C166.719 38.5 167.092 35.1633 167.605 31.85L168.865 35.14L154.515 57.4H149.895L135.825 35.28L137.015 31.85C137.529 34.9767 137.879 38.1967 138.065 41.51C138.299 44.7767 138.415 48.6733 138.415 53.2V70H128.125ZM200.579 70.7C197.872 70.7 195.539 70.1167 193.579 68.95C191.665 67.7367 190.172 66.0333 189.099 63.84C188.072 61.6 187.559 58.9167 187.559 55.79V32.97H197.499V54.18C197.499 55.86 197.779 57.33 198.339 58.59C198.899 59.8033 199.692 60.7367 200.719 61.39C201.745 62.0433 203.005 62.37 204.499 62.37C205.572 62.37 206.575 62.2067 207.509 61.88C208.442 61.5067 209.235 60.9933 209.889 60.34C210.542 59.6867 211.055 58.9167 211.429 58.03C211.802 57.1433 211.989 56.1867 211.989 55.16V32.97H221.929V70H212.479L212.129 62.37L213.949 61.53C213.389 63.2567 212.455 64.82 211.149 66.22C209.842 67.62 208.279 68.7167 206.459 69.51C204.639 70.3033 202.679 70.7 200.579 70.7ZM228.22 84.42L224.51 76.72C226.517 76.72 228.127 76.44 229.34 75.88C230.554 75.32 231.417 74.3867 231.93 73.08C232.49 71.82 232.77 70.14 232.77 68.04V32.97H242.71V70.42C242.71 73.5 242.127 76.0667 240.96 78.12C239.84 80.1733 238.207 81.7367 236.06 82.81C233.914 83.8833 231.3 84.42 228.22 84.42ZM237.95 25.34C236.037 25.34 234.544 24.8733 233.47 23.94C232.397 23.0067 231.86 21.6767 231.86 19.95C231.86 18.3633 232.397 17.08 233.47 16.1C234.59 15.0733 236.084 14.56 237.95 14.56C239.864 14.56 241.357 15.05 242.43 16.03C243.504 16.9633 244.04 18.27 244.04 19.95C244.04 21.5833 243.48 22.89 242.36 23.87C241.287 24.85 239.817 25.34 237.95 25.34ZM270.418 70.7C266.405 70.7 262.905 69.8833 259.918 68.25C256.932 66.6167 254.598 64.3767 252.918 61.53C251.238 58.6833 250.398 55.4167 250.398 51.73C250.398 48.8833 250.865 46.27 251.798 43.89C252.732 41.51 254.038 39.4567 255.718 37.73C257.398 35.9567 259.382 34.6033 261.668 33.67C264.002 32.69 266.522 32.2 269.228 32.2C271.748 32.2 274.082 32.6667 276.228 33.6C278.375 34.4867 280.218 35.77 281.758 37.45C283.345 39.0833 284.558 41.02 285.398 43.26C286.238 45.5 286.612 47.95 286.518 50.61L286.448 53.69H256.698L255.088 47.6H278.258L277.138 48.86V47.32C277.045 46.06 276.625 44.9167 275.878 43.89C275.178 42.8633 274.268 42.07 273.148 41.51C272.028 40.95 270.768 40.67 269.368 40.67C267.315 40.67 265.565 41.0667 264.118 41.86C262.718 42.6533 261.645 43.82 260.898 45.36C260.152 46.9 259.778 48.7667 259.778 50.96C259.778 53.2 260.245 55.1367 261.178 56.77C262.158 58.4033 263.512 59.6867 265.238 60.62C267.012 61.5067 269.088 61.95 271.468 61.95C273.102 61.95 274.595 61.6933 275.948 61.18C277.302 60.6667 278.748 59.78 280.288 58.52L285.048 65.17C283.695 66.3833 282.202 67.41 280.568 68.25C278.935 69.0433 277.255 69.65 275.528 70.07C273.802 70.49 272.098 70.7 270.418 70.7ZM293.864 70V32.97H303.454L303.804 44.87L302.124 42.42C302.684 40.5067 303.594 38.78 304.854 37.24C306.114 35.6533 307.584 34.4167 309.264 33.53C310.991 32.6433 312.787 32.2 314.654 32.2C315.447 32.2 316.217 32.27 316.964 32.41C317.711 32.55 318.341 32.7133 318.854 32.9L316.194 43.82C315.634 43.54 314.957 43.3067 314.164 43.12C313.371 42.8867 312.554 42.77 311.714 42.77C310.594 42.77 309.544 42.98 308.564 43.4C307.631 43.7733 306.814 44.3333 306.114 45.08C305.414 45.78 304.854 46.62 304.434 47.6C304.061 48.58 303.874 49.6533 303.874 50.82V70H293.864Z" fill="black"/>
</svg>
