<svg width="314" height="91" viewBox="0 0 314 91" fill="none" xmlns="http://www.w3.org/2000/svg">
<path d="M82.3127 24.5684V65.8519C82.3127 72.6441 79.9967 78.7818 76.2842 83.2391C72.5539 87.6788 67.4094 90.4204 61.7168 90.4204C50.367 90.4204 41.1386 79.4185 41.1386 65.8519C41.1386 72.6441 38.8227 78.7818 35.1102 83.2391C31.3976 87.6788 26.2531 90.4204 20.5605 90.4204C9.21067 90.4204 0 79.4185 0 65.8519V24.5684C0 17.7763 2.31593 11.6386 6.02848 7.18127C9.75872 2.74162 14.8856 0 20.5782 0C31.9457 0 41.1563 11.0019 41.1563 24.5684C41.1563 17.7763 43.4723 11.6386 47.1848 7.18127C50.915 2.74162 56.0596 0 61.7345 0C73.102 0 82.3127 11.0019 82.3127 24.5684Z" fill="#52C1DD"/>
<path d="M136.573 70.7C133.539 70.7 130.763 70.3267 128.243 69.58C125.769 68.8333 123.553 67.7367 121.593 66.29C119.679 64.8433 117.953 63.0933 116.413 61.04L122.993 53.55C125.279 56.7233 127.543 58.8933 129.783 60.06C132.069 61.18 134.543 61.74 137.203 61.74C138.649 61.74 139.933 61.5533 141.053 61.18C142.219 60.76 143.129 60.1767 143.783 59.43C144.436 58.6833 144.763 57.7967 144.763 56.77C144.763 56.0233 144.599 55.3467 144.273 54.74C143.946 54.0867 143.479 53.5267 142.873 53.06C142.266 52.5467 141.543 52.1033 140.703 51.73C139.863 51.31 138.929 50.96 137.903 50.68C136.876 50.3533 135.756 50.0967 134.543 49.91C131.929 49.3033 129.643 48.58 127.683 47.74C125.723 46.8533 124.089 45.78 122.783 44.52C121.476 43.2133 120.496 41.7433 119.843 40.11C119.236 38.4767 118.933 36.6333 118.933 34.58C118.933 32.48 119.399 30.5433 120.333 28.77C121.266 26.95 122.549 25.3867 124.183 24.08C125.863 22.7733 127.776 21.77 129.923 21.07C132.116 20.37 134.426 20.02 136.853 20.02C139.839 20.02 142.453 20.37 144.693 21.07C146.933 21.7233 148.869 22.68 150.503 23.94C152.183 25.2 153.583 26.74 154.703 28.56L148.053 35C147.073 33.6933 145.999 32.5967 144.833 31.71C143.713 30.8233 142.476 30.17 141.123 29.75C139.816 29.2833 138.463 29.05 137.063 29.05C135.523 29.05 134.193 29.26 133.073 29.68C131.953 30.0533 131.066 30.6133 130.413 31.36C129.806 32.1067 129.503 33.0167 129.503 34.09C129.503 34.93 129.713 35.6767 130.133 36.33C130.553 36.9833 131.159 37.5667 131.953 38.08C132.746 38.5467 133.703 38.9667 134.823 39.34C135.943 39.7133 137.179 40.04 138.533 40.32C141.099 40.8333 143.409 41.51 145.463 42.35C147.516 43.19 149.266 44.2167 150.713 45.43C152.206 46.5967 153.349 47.9967 154.143 49.63C154.936 51.2167 155.333 53.0133 155.333 55.02C155.333 58.3333 154.539 61.1567 152.953 63.49C151.366 65.8233 149.173 67.62 146.373 68.88C143.573 70.0933 140.306 70.7 136.573 70.7ZM177.303 70.7C174.223 70.7 171.446 69.86 168.973 68.18C166.5 66.5 164.54 64.2133 163.093 61.32C161.646 58.4267 160.923 55.1133 160.923 51.38C160.923 47.6467 161.646 44.3567 163.093 41.51C164.586 38.6167 166.593 36.3533 169.113 34.72C171.633 33.04 174.503 32.2 177.723 32.2C179.543 32.2 181.2 32.48 182.693 33.04C184.233 33.5533 185.563 34.2767 186.683 35.21C187.85 36.1433 188.83 37.2167 189.623 38.43C190.416 39.6433 190.976 40.95 191.303 42.35L189.203 42V32.97H199.073V70H189.063V61.11L191.303 60.9C190.93 62.2067 190.323 63.4433 189.483 64.61C188.643 65.7767 187.593 66.8267 186.333 67.76C185.12 68.6467 183.743 69.37 182.203 69.93C180.663 70.4433 179.03 70.7 177.303 70.7ZM180.033 62.09C181.9 62.09 183.533 61.6467 184.933 60.76C186.333 59.8733 187.406 58.6367 188.153 57.05C188.946 55.4167 189.343 53.5267 189.343 51.38C189.343 49.28 188.946 47.4367 188.153 45.85C187.406 44.2633 186.333 43.0267 184.933 42.14C183.533 41.2067 181.9 40.74 180.033 40.74C178.213 40.74 176.603 41.2067 175.203 42.14C173.85 43.0267 172.776 44.2633 171.983 45.85C171.19 47.4367 170.793 49.28 170.793 51.38C170.793 53.5267 171.19 55.4167 171.983 57.05C172.776 58.6367 173.85 59.8733 175.203 60.76C176.603 61.6467 178.213 62.09 180.033 62.09ZM209.109 70V18.2H219.049V70H209.109ZM241.534 70.7C238.828 70.7 236.494 70.1167 234.534 68.95C232.621 67.7367 231.128 66.0333 230.054 63.84C229.028 61.6 228.514 58.9167 228.514 55.79V32.97H238.454V54.18C238.454 55.86 238.734 57.33 239.294 58.59C239.854 59.8033 240.648 60.7367 241.674 61.39C242.701 62.0433 243.961 62.37 245.454 62.37C246.528 62.37 247.531 62.2067 248.464 61.88C249.398 61.5067 250.191 60.9933 250.844 60.34C251.498 59.6867 252.011 58.9167 252.384 58.03C252.758 57.1433 252.944 56.1867 252.944 55.16V32.97H262.884V70H253.434L253.084 62.37L254.904 61.53C254.344 63.2567 253.411 64.82 252.104 66.22C250.798 67.62 249.234 68.7167 247.414 69.51C245.594 70.3033 243.634 70.7 241.534 70.7ZM287.376 70.7C284.156 70.7 281.263 69.8833 278.696 68.25C276.13 66.57 274.1 64.3067 272.606 61.46C271.16 58.5667 270.436 55.23 270.436 51.45C270.436 47.7633 271.16 44.4733 272.606 41.58C274.1 38.6867 276.106 36.4 278.626 34.72C281.193 33.04 284.11 32.2 287.376 32.2C289.103 32.2 290.76 32.48 292.346 33.04C293.98 33.5533 295.426 34.2767 296.686 35.21C297.993 36.1433 299.043 37.1933 299.836 38.36C300.63 39.48 301.073 40.67 301.166 41.93L298.646 42.35V18.2H308.586V70H299.206L298.786 61.46L300.746 61.67C300.653 62.8367 300.233 63.9567 299.486 65.03C298.74 66.1033 297.736 67.0833 296.476 67.97C295.263 68.81 293.863 69.4867 292.276 70C290.736 70.4667 289.103 70.7 287.376 70.7ZM289.616 62.44C291.483 62.44 293.116 61.9733 294.516 61.04C295.916 60.1067 297.013 58.8233 297.806 57.19C298.6 55.5567 298.996 53.6433 298.996 51.45C298.996 49.3033 298.6 47.4133 297.806 45.78C297.013 44.1 295.916 42.8167 294.516 41.93C293.116 40.9967 291.483 40.53 289.616 40.53C287.75 40.53 286.116 40.9967 284.716 41.93C283.363 42.8167 282.29 44.1 281.496 45.78C280.75 47.4133 280.376 49.3033 280.376 51.45C280.376 53.6433 280.75 55.5567 281.496 57.19C282.29 58.8233 283.363 60.1067 284.716 61.04C286.116 61.9733 287.75 62.44 289.616 62.44Z" fill="black"/>
</svg>
