<svg width="495" height="88" viewBox="0 0 495 88" fill="none" xmlns="http://www.w3.org/2000/svg">
<path d="M0 5.35224V82.6482C0 85.3898 2.38661 87.5301 5.10916 87.2117C20.2422 85.4429 32.9887 75.8915 39.2824 62.6609C40.2193 60.6976 43.1363 61.3166 43.1363 63.4922V82.6482C43.1363 85.3898 45.523 87.5301 48.2279 87.2117C69.8491 84.6823 86.6263 66.3046 86.6263 44.0002C86.6263 21.6958 69.8491 3.31813 48.2279 0.78877C45.5053 0.470388 43.1363 2.61062 43.1363 5.35224V24.5082C43.1363 26.6838 40.2193 27.3029 39.2824 25.3395C33.0064 12.109 20.2422 2.55756 5.10916 0.78877C2.38661 0.470388 0 2.61062 0 5.35224Z" fill="#FDC609"/>
<path d="M124.996 70V21H135.496V70H124.996ZM129.826 50.54V41.51H155.166V50.54H129.826ZM129.826 30.45V21H158.106V30.45H129.826ZM182.721 70.7C178.941 70.7 175.557 69.8833 172.571 68.25C169.631 66.57 167.297 64.2833 165.571 61.39C163.891 58.4967 163.051 55.1833 163.051 51.45C163.051 47.7167 163.891 44.4267 165.571 41.58C167.297 38.6867 169.631 36.4 172.571 34.72C175.557 33.04 178.941 32.2 182.721 32.2C186.454 32.2 189.791 33.04 192.731 34.72C195.717 36.4 198.051 38.6867 199.731 41.58C201.411 44.4267 202.251 47.7167 202.251 51.45C202.251 55.1833 201.411 58.4967 199.731 61.39C198.051 64.2833 195.717 66.57 192.731 68.25C189.791 69.8833 186.454 70.7 182.721 70.7ZM182.721 62.02C184.541 62.02 186.174 61.5767 187.621 60.69C189.067 59.7567 190.187 58.4967 190.981 56.91C191.821 55.2767 192.241 53.4567 192.241 51.45C192.241 49.3967 191.821 47.5767 190.981 45.99C190.187 44.3567 189.067 43.0967 187.621 42.21C186.174 41.2767 184.541 40.81 182.721 40.81C180.854 40.81 179.197 41.2767 177.751 42.21C176.304 43.1433 175.161 44.4033 174.321 45.99C173.481 47.5767 173.084 49.3967 173.131 51.45C173.084 53.4567 173.481 55.2767 174.321 56.91C175.161 58.4967 176.304 59.7567 177.751 60.69C179.197 61.5767 180.854 62.02 182.721 62.02ZM209.729 70V32.97H219.319L219.669 44.87L217.989 42.42C218.549 40.5067 219.459 38.78 220.719 37.24C221.979 35.6533 223.449 34.4167 225.129 33.53C226.856 32.6433 228.652 32.2 230.519 32.2C231.312 32.2 232.082 32.27 232.829 32.41C233.576 32.55 234.206 32.7133 234.719 32.9L232.059 43.82C231.499 43.54 230.822 43.3067 230.029 43.12C229.236 42.8867 228.419 42.77 227.579 42.77C226.459 42.77 225.409 42.98 224.429 43.4C223.496 43.7733 222.679 44.3333 221.979 45.08C221.279 45.78 220.719 46.62 220.299 47.6C219.926 48.58 219.739 49.6533 219.739 50.82V70H209.729ZM240.352 70V32.97H249.942L250.152 40.04L248.682 40.32C249.196 39.1067 249.872 38.01 250.712 37.03C251.552 36.05 252.532 35.21 253.652 34.51C254.819 33.81 256.032 33.2733 257.292 32.9C258.552 32.48 259.812 32.27 261.072 32.27C262.986 32.27 264.712 32.5733 266.252 33.18C267.792 33.7867 269.099 34.7433 270.172 36.05C271.246 37.31 272.086 38.99 272.692 41.09L271.152 40.95L271.642 39.83C272.249 38.71 273.019 37.7067 273.952 36.82C274.886 35.8867 275.936 35.0933 277.102 34.44C278.269 33.74 279.482 33.2033 280.742 32.83C282.002 32.4567 283.239 32.27 284.452 32.27C287.346 32.27 289.749 32.8533 291.662 34.02C293.576 35.14 294.999 36.8433 295.932 39.13C296.912 41.4167 297.402 44.2167 297.402 47.53V70H287.462V48.23C287.462 46.55 287.229 45.1733 286.762 44.1C286.296 43.0267 285.619 42.2333 284.732 41.72C283.846 41.16 282.702 40.88 281.302 40.88C280.229 40.88 279.226 41.0667 278.292 41.44C277.406 41.7667 276.612 42.2567 275.912 42.91C275.259 43.5167 274.746 44.24 274.372 45.08C273.999 45.92 273.812 46.8533 273.812 47.88V70H263.872V48.16C263.872 46.62 263.616 45.3133 263.102 44.24C262.636 43.12 261.959 42.28 261.072 41.72C260.186 41.16 259.089 40.88 257.782 40.88C256.709 40.88 255.706 41.0667 254.772 41.44C253.886 41.7667 253.116 42.2567 252.462 42.91C251.809 43.5167 251.272 44.24 250.852 45.08C250.479 45.92 250.292 46.83 250.292 47.81V70H240.352ZM320.728 70.7C317.648 70.7 314.871 69.86 312.398 68.18C309.924 66.5 307.964 64.2133 306.518 61.32C305.071 58.4267 304.348 55.1133 304.348 51.38C304.348 47.6467 305.071 44.3567 306.518 41.51C308.011 38.6167 310.018 36.3533 312.538 34.72C315.058 33.04 317.928 32.2 321.148 32.2C322.968 32.2 324.624 32.48 326.118 33.04C327.658 33.5533 328.988 34.2767 330.108 35.21C331.274 36.1433 332.254 37.2167 333.048 38.43C333.841 39.6433 334.401 40.95 334.728 42.35L332.628 42V32.97H342.498V70H332.488V61.11L334.728 60.9C334.354 62.2067 333.748 63.4433 332.908 64.61C332.068 65.7767 331.018 66.8267 329.758 67.76C328.544 68.6467 327.168 69.37 325.628 69.93C324.088 70.4433 322.454 70.7 320.728 70.7ZM323.458 62.09C325.324 62.09 326.958 61.6467 328.358 60.76C329.758 59.8733 330.831 58.6367 331.578 57.05C332.371 55.4167 332.768 53.5267 332.768 51.38C332.768 49.28 332.371 47.4367 331.578 45.85C330.831 44.2633 329.758 43.0267 328.358 42.14C326.958 41.2067 325.324 40.74 323.458 40.74C321.638 40.74 320.028 41.2067 318.628 42.14C317.274 43.0267 316.201 44.2633 315.408 45.85C314.614 47.4367 314.218 49.28 314.218 51.38C314.218 53.5267 314.614 55.4167 315.408 57.05C316.201 58.6367 317.274 59.8733 318.628 60.76C320.028 61.6467 321.638 62.09 323.458 62.09ZM368.563 70.7C365.017 70.7 361.843 69.86 359.043 68.18C356.243 66.5 354.027 64.2133 352.393 61.32C350.807 58.4267 350.013 55.1367 350.013 51.45C350.013 47.81 350.807 44.5433 352.393 41.65C354.027 38.71 356.243 36.4 359.043 34.72C361.843 33.04 365.017 32.2 368.563 32.2C371.877 32.2 374.91 32.8067 377.663 34.02C380.417 35.2333 382.563 36.9133 384.103 39.06L378.643 45.64C377.99 44.7533 377.173 43.96 376.193 43.26C375.213 42.5133 374.14 41.93 372.973 41.51C371.853 41.09 370.687 40.88 369.473 40.88C367.56 40.88 365.857 41.3467 364.363 42.28C362.917 43.1667 361.773 44.4033 360.933 45.99C360.093 47.5767 359.673 49.3967 359.673 51.45C359.673 53.4567 360.093 55.2533 360.933 56.84C361.82 58.38 363.01 59.64 364.503 60.62C365.997 61.5533 367.677 62.02 369.543 62.02C370.757 62.02 371.9 61.8567 372.973 61.53C374.047 61.1567 375.05 60.62 375.983 59.92C376.963 59.22 377.85 58.38 378.643 57.4L384.033 63.98C382.447 65.9867 380.253 67.62 377.453 68.88C374.653 70.0933 371.69 70.7 368.563 70.7ZM391.243 70V32.97H401.183V70H391.243ZM396.143 25.34C394.23 25.34 392.736 24.8733 391.663 23.94C390.59 23.0067 390.053 21.6767 390.053 19.95C390.053 18.3633 390.59 17.08 391.663 16.1C392.783 15.0733 394.276 14.56 396.143 14.56C398.056 14.56 399.55 15.05 400.623 16.03C401.696 16.9633 402.233 18.27 402.233 19.95C402.233 21.5833 401.673 22.89 400.553 23.87C399.48 24.85 398.01 25.34 396.143 25.34ZM429.019 70.7C425.239 70.7 421.856 69.8833 418.869 68.25C415.929 66.57 413.596 64.2833 411.869 61.39C410.189 58.4967 409.349 55.1833 409.349 51.45C409.349 47.7167 410.189 44.4267 411.869 41.58C413.596 38.6867 415.929 36.4 418.869 34.72C421.856 33.04 425.239 32.2 429.019 32.2C432.753 32.2 436.089 33.04 439.029 34.72C442.016 36.4 444.349 38.6867 446.029 41.58C447.709 44.4267 448.549 47.7167 448.549 51.45C448.549 55.1833 447.709 58.4967 446.029 61.39C444.349 64.2833 442.016 66.57 439.029 68.25C436.089 69.8833 432.753 70.7 429.019 70.7ZM429.019 62.02C430.839 62.02 432.473 61.5767 433.919 60.69C435.366 59.7567 436.486 58.4967 437.279 56.91C438.119 55.2767 438.539 53.4567 438.539 51.45C438.539 49.3967 438.119 47.5767 437.279 45.99C436.486 44.3567 435.366 43.0967 433.919 42.21C432.473 41.2767 430.839 40.81 429.019 40.81C427.153 40.81 425.496 41.2767 424.049 42.21C422.603 43.1433 421.459 44.4033 420.619 45.99C419.779 47.5767 419.383 49.3967 419.429 51.45C419.383 53.4567 419.779 55.2767 420.619 56.91C421.459 58.4967 422.603 59.7567 424.049 60.69C425.496 61.5767 427.153 62.02 429.019 62.02ZM423.699 28.42L420.689 23.8L432.379 14.28L437.349 21.07L423.699 28.42ZM456.028 70V32.97H465.548L465.828 40.53L463.868 41.37C464.381 39.69 465.291 38.1733 466.598 36.82C467.951 35.42 469.561 34.3 471.428 33.46C473.295 32.62 475.255 32.2 477.308 32.2C480.108 32.2 482.441 32.76 484.308 33.88C486.221 35 487.645 36.7033 488.578 38.99C489.558 41.23 490.048 44.0067 490.048 47.32V70H480.108V48.09C480.108 46.41 479.875 45.01 479.408 43.89C478.941 42.77 478.218 41.9533 477.238 41.44C476.305 40.88 475.138 40.6467 473.738 40.74C472.618 40.74 471.568 40.9267 470.588 41.3C469.655 41.6267 468.838 42.1167 468.138 42.77C467.485 43.4233 466.948 44.17 466.528 45.01C466.155 45.85 465.968 46.76 465.968 47.74V70H461.068C459.995 70 459.038 70 458.198 70C457.358 70 456.635 70 456.028 70Z" fill="black"/>
</svg>
