<svg width="440" height="91" viewBox="0 0 440 91" fill="none" xmlns="http://www.w3.org/2000/svg">
<path d="M41.2623 0C64.0327 0 82.5248 18.5015 82.5248 41.2835V49.1546C82.5248 71.9366 64.0327 90.4381 41.2623 90.4381H4.33128C1.94464 90.4381 0 88.4924 0 86.1045V41.2835C0 18.5015 18.492 0 41.2623 0Z" fill="#F087B5"/>
<path d="M120.895 70V21H140.985C144.578 21 147.822 21.6067 150.715 22.82C153.655 23.9867 156.175 25.6667 158.275 27.86C160.422 30.0067 162.055 32.5733 163.175 35.56C164.295 38.5467 164.855 41.86 164.855 45.5C164.855 49.0933 164.295 52.4067 163.175 55.44C162.055 58.4267 160.445 61.0167 158.345 63.21C156.245 65.3567 153.725 67.0367 150.785 68.25C147.845 69.4167 144.578 70 140.985 70H120.895ZM131.395 62.37L130.275 60.55H140.635C142.735 60.55 144.625 60.2 146.305 59.5C147.985 58.7533 149.408 57.75 150.575 56.49C151.788 55.1833 152.698 53.5967 153.305 51.73C153.912 49.8633 154.215 47.7867 154.215 45.5C154.215 43.2133 153.912 41.16 153.305 39.34C152.698 37.4733 151.788 35.8867 150.575 34.58C149.408 33.2733 147.985 32.27 146.305 31.57C144.625 30.8233 142.735 30.45 140.635 30.45H130.065L131.395 28.77V62.37ZM190.522 70.7C186.509 70.7 183.009 69.8833 180.022 68.25C177.035 66.6167 174.702 64.3767 173.022 61.53C171.342 58.6833 170.502 55.4167 170.502 51.73C170.502 48.8833 170.969 46.27 171.902 43.89C172.835 41.51 174.142 39.4567 175.822 37.73C177.502 35.9567 179.485 34.6033 181.772 33.67C184.105 32.69 186.625 32.2 189.332 32.2C191.852 32.2 194.185 32.6667 196.332 33.6C198.479 34.4867 200.322 35.77 201.862 37.45C203.449 39.0833 204.662 41.02 205.502 43.26C206.342 45.5 206.715 47.95 206.622 50.61L206.552 53.69H176.802L175.192 47.6H198.362L197.242 48.86V47.32C197.149 46.06 196.729 44.9167 195.982 43.89C195.282 42.8633 194.372 42.07 193.252 41.51C192.132 40.95 190.872 40.67 189.472 40.67C187.419 40.67 185.669 41.0667 184.222 41.86C182.822 42.6533 181.749 43.82 181.002 45.36C180.255 46.9 179.882 48.7667 179.882 50.96C179.882 53.2 180.349 55.1367 181.282 56.77C182.262 58.4033 183.615 59.6867 185.342 60.62C187.115 61.5067 189.192 61.95 191.572 61.95C193.205 61.95 194.699 61.6933 196.052 61.18C197.405 60.6667 198.852 59.78 200.392 58.52L205.152 65.17C203.799 66.3833 202.305 67.41 200.672 68.25C199.039 69.0433 197.359 69.65 195.632 70.07C193.905 70.49 192.202 70.7 190.522 70.7ZM213.968 70V32.97H223.558L223.908 44.87L222.228 42.42C222.788 40.5067 223.698 38.78 224.958 37.24C226.218 35.6533 227.688 34.4167 229.368 33.53C231.094 32.6433 232.891 32.2 234.758 32.2C235.551 32.2 236.321 32.27 237.068 32.41C237.814 32.55 238.444 32.7133 238.958 32.9L236.298 43.82C235.738 43.54 235.061 43.3067 234.268 43.12C233.474 42.8867 232.658 42.77 231.818 42.77C230.698 42.77 229.648 42.98 228.668 43.4C227.734 43.7733 226.918 44.3333 226.218 45.08C225.518 45.78 224.958 46.62 224.538 47.6C224.164 48.58 223.978 49.6533 223.978 50.82V70H213.968ZM260.659 70.7C256.645 70.7 253.145 69.8833 250.159 68.25C247.172 66.6167 244.839 64.3767 243.159 61.53C241.479 58.6833 240.639 55.4167 240.639 51.73C240.639 48.8833 241.105 46.27 242.039 43.89C242.972 41.51 244.279 39.4567 245.959 37.73C247.639 35.9567 249.622 34.6033 251.909 33.67C254.242 32.69 256.762 32.2 259.469 32.2C261.989 32.2 264.322 32.6667 266.469 33.6C268.615 34.4867 270.459 35.77 271.999 37.45C273.585 39.0833 274.799 41.02 275.639 43.26C276.479 45.5 276.852 47.95 276.759 50.61L276.689 53.69H246.939L245.329 47.6H268.499L267.379 48.86V47.32C267.285 46.06 266.865 44.9167 266.119 43.89C265.419 42.8633 264.509 42.07 263.389 41.51C262.269 40.95 261.009 40.67 259.609 40.67C257.555 40.67 255.805 41.0667 254.359 41.86C252.959 42.6533 251.885 43.82 251.139 45.36C250.392 46.9 250.019 48.7667 250.019 50.96C250.019 53.2 250.485 55.1367 251.419 56.77C252.399 58.4033 253.752 59.6867 255.479 60.62C257.252 61.5067 259.329 61.95 261.709 61.95C263.342 61.95 264.835 61.6933 266.189 61.18C267.542 60.6667 268.989 59.78 270.529 58.52L275.289 65.17C273.935 66.3833 272.442 67.41 270.809 68.25C269.175 69.0433 267.495 69.65 265.769 70.07C264.042 70.49 262.339 70.7 260.659 70.7ZM300.204 70.7C296.658 70.7 293.484 69.86 290.684 68.18C287.884 66.5 285.668 64.2133 284.034 61.32C282.448 58.4267 281.654 55.1367 281.654 51.45C281.654 47.81 282.448 44.5433 284.034 41.65C285.668 38.71 287.884 36.4 290.684 34.72C293.484 33.04 296.658 32.2 300.204 32.2C303.518 32.2 306.551 32.8067 309.304 34.02C312.058 35.2333 314.204 36.9133 315.744 39.06L310.284 45.64C309.631 44.7533 308.814 43.96 307.834 43.26C306.854 42.5133 305.781 41.93 304.614 41.51C303.494 41.09 302.328 40.88 301.114 40.88C299.201 40.88 297.498 41.3467 296.004 42.28C294.558 43.1667 293.414 44.4033 292.574 45.99C291.734 47.5767 291.314 49.3967 291.314 51.45C291.314 53.4567 291.734 55.2533 292.574 56.84C293.461 58.38 294.651 59.64 296.144 60.62C297.638 61.5533 299.318 62.02 301.184 62.02C302.398 62.02 303.541 61.8567 304.614 61.53C305.688 61.1567 306.691 60.62 307.624 59.92C308.604 59.22 309.491 58.38 310.284 57.4L315.674 63.98C314.088 65.9867 311.894 67.62 309.094 68.88C306.294 70.0933 303.331 70.7 300.204 70.7ZM322.044 70V18.2H331.844V40.53L329.884 41.37C330.397 39.69 331.307 38.1733 332.614 36.82C333.967 35.42 335.577 34.3 337.444 33.46C339.31 32.62 341.27 32.2 343.324 32.2C346.124 32.2 348.457 32.76 350.324 33.88C352.237 35 353.66 36.7033 354.594 38.99C355.574 41.23 356.064 44.0067 356.064 47.32V70H346.124V48.09C346.124 46.41 345.89 45.01 345.424 43.89C344.957 42.77 344.234 41.9533 343.254 41.44C342.32 40.88 341.154 40.6467 339.754 40.74C338.634 40.74 337.584 40.9267 336.604 41.3C335.67 41.6267 334.854 42.1167 334.154 42.77C333.5 43.4233 332.964 44.17 332.544 45.01C332.17 45.85 331.984 46.76 331.984 47.74V70H327.084C326.01 70 325.054 70 324.214 70C323.374 70 322.65 70 322.044 70ZM382.809 70.7C379.029 70.7 375.645 69.8833 372.659 68.25C369.719 66.57 367.385 64.2833 365.659 61.39C363.979 58.4967 363.139 55.1833 363.139 51.45C363.139 47.7167 363.979 44.4267 365.659 41.58C367.385 38.6867 369.719 36.4 372.659 34.72C375.645 33.04 379.029 32.2 382.809 32.2C386.542 32.2 389.879 33.04 392.819 34.72C395.805 36.4 398.139 38.6867 399.819 41.58C401.499 44.4267 402.339 47.7167 402.339 51.45C402.339 55.1833 401.499 58.4967 399.819 61.39C398.139 64.2833 395.805 66.57 392.819 68.25C389.879 69.8833 386.542 70.7 382.809 70.7ZM382.809 62.02C384.629 62.02 386.262 61.5767 387.709 60.69C389.155 59.7567 390.275 58.4967 391.069 56.91C391.909 55.2767 392.329 53.4567 392.329 51.45C392.329 49.3967 391.909 47.5767 391.069 45.99C390.275 44.3567 389.155 43.0967 387.709 42.21C386.262 41.2767 384.629 40.81 382.809 40.81C380.942 40.81 379.285 41.2767 377.839 42.21C376.392 43.1433 375.249 44.4033 374.409 45.99C373.569 47.5767 373.172 49.3967 373.219 51.45C373.172 53.4567 373.569 55.2767 374.409 56.91C375.249 58.4967 376.392 59.7567 377.839 60.69C379.285 61.5767 380.942 62.02 382.809 62.02ZM422.277 70.7C418.824 70.7 415.744 70.14 413.037 69.02C410.377 67.8533 408.231 66.2667 406.597 64.26L412.757 58.94C414.204 60.48 415.814 61.6 417.587 62.3C419.361 62.9533 421.134 63.28 422.907 63.28C423.607 63.28 424.237 63.21 424.797 63.07C425.404 62.8833 425.917 62.65 426.337 62.37C426.757 62.0433 427.061 61.67 427.247 61.25C427.481 60.7833 427.597 60.2933 427.597 59.78C427.597 58.7533 427.177 57.9367 426.337 57.33C425.871 57.0967 425.147 56.8167 424.167 56.49C423.187 56.1167 421.927 55.72 420.387 55.3C418.007 54.6933 415.977 53.9933 414.297 53.2C412.664 52.36 411.357 51.4267 410.377 50.4C409.537 49.42 408.884 48.37 408.417 47.25C407.997 46.0833 407.787 44.8 407.787 43.4C407.787 41.72 408.161 40.2033 408.907 38.85C409.654 37.45 410.681 36.26 411.987 35.28C413.341 34.3 414.881 33.5533 416.607 33.04C418.334 32.48 420.154 32.2 422.067 32.2C423.981 32.2 425.847 32.4333 427.667 32.9C429.487 33.3667 431.167 34.0433 432.707 34.93C434.294 35.77 435.671 36.7733 436.837 37.94L431.517 43.82C430.677 43.0267 429.721 42.3033 428.647 41.65C427.621 40.9967 426.547 40.4833 425.427 40.11C424.307 39.7367 423.304 39.55 422.417 39.55C421.624 39.55 420.901 39.62 420.247 39.76C419.641 39.9 419.127 40.11 418.707 40.39C418.287 40.67 417.961 41.0433 417.727 41.51C417.541 41.93 417.447 42.3967 417.447 42.91C417.447 43.4233 417.564 43.9133 417.797 44.38C418.077 44.8467 418.451 45.2433 418.917 45.57C419.431 45.85 420.177 46.1767 421.157 46.55C422.184 46.9233 423.561 47.3433 425.287 47.81C427.527 48.4167 429.417 49.0933 430.957 49.84C432.544 50.5867 433.804 51.45 434.737 52.43C435.531 53.27 436.114 54.2267 436.487 55.3C436.861 56.3733 437.047 57.5633 437.047 58.87C437.047 61.1567 436.394 63.21 435.087 65.03C433.827 66.8033 432.077 68.2033 429.837 69.23C427.597 70.21 425.077 70.7 422.277 70.7Z" fill="black"/>
</svg>
