<svg width="501" height="93" viewBox="0 0 501 93" fill="none" xmlns="http://www.w3.org/2000/svg">
<path d="M81.0044 92.7552H0V42.3448C0 18.9614 18.1385 0 40.5022 0C62.8659 0 81.0044 18.9614 81.0044 42.3448V92.7552Z" fill="#2EAA53"/>
<path d="M119.374 70V21H140.164C143.058 21 145.671 21.7 148.004 23.1C150.384 24.4533 152.251 26.32 153.604 28.7C155.004 31.08 155.704 33.7633 155.704 36.75C155.704 39.7833 155.004 42.5133 153.604 44.94C152.251 47.3667 150.384 49.3033 148.004 50.75C145.671 52.15 143.058 52.85 140.164 52.85H129.874V70H119.374ZM129.734 43.4H138.974C140.094 43.4 141.098 43.12 141.984 42.56C142.871 41.9533 143.571 41.16 144.084 40.18C144.644 39.2 144.924 38.08 144.924 36.82C144.924 35.56 144.644 34.4633 144.084 33.53C143.571 32.55 142.871 31.8033 141.984 31.29C141.098 30.73 140.094 30.45 138.974 30.45H129.734V43.4ZM163.707 70V32.97H173.297L173.647 44.87L171.967 42.42C172.527 40.5067 173.437 38.78 174.697 37.24C175.957 35.6533 177.427 34.4167 179.107 33.53C180.833 32.6433 182.63 32.2 184.497 32.2C185.29 32.2 186.06 32.27 186.807 32.41C187.553 32.55 188.183 32.7133 188.697 32.9L186.037 43.82C185.477 43.54 184.8 43.3067 184.007 43.12C183.213 42.8867 182.397 42.77 181.557 42.77C180.437 42.77 179.387 42.98 178.407 43.4C177.473 43.7733 176.657 44.3333 175.957 45.08C175.257 45.78 174.697 46.62 174.277 47.6C173.903 48.58 173.717 49.6533 173.717 50.82V70H163.707ZM210.398 70.7C206.385 70.7 202.885 69.8833 199.898 68.25C196.911 66.6167 194.578 64.3767 192.898 61.53C191.218 58.6833 190.378 55.4167 190.378 51.73C190.378 48.8833 190.845 46.27 191.778 43.89C192.711 41.51 194.018 39.4567 195.698 37.73C197.378 35.9567 199.361 34.6033 201.648 33.67C203.981 32.69 206.501 32.2 209.208 32.2C211.728 32.2 214.061 32.6667 216.208 33.6C218.355 34.4867 220.198 35.77 221.738 37.45C223.325 39.0833 224.538 41.02 225.378 43.26C226.218 45.5 226.591 47.95 226.498 50.61L226.428 53.69H196.678L195.068 47.6H218.238L217.118 48.86V47.32C217.025 46.06 216.605 44.9167 215.858 43.89C215.158 42.8633 214.248 42.07 213.128 41.51C212.008 40.95 210.748 40.67 209.348 40.67C207.295 40.67 205.545 41.0667 204.098 41.86C202.698 42.6533 201.625 43.82 200.878 45.36C200.131 46.9 199.758 48.7667 199.758 50.96C199.758 53.2 200.225 55.1367 201.158 56.77C202.138 58.4033 203.491 59.6867 205.218 60.62C206.991 61.5067 209.068 61.95 211.448 61.95C213.081 61.95 214.575 61.6933 215.928 61.18C217.281 60.6667 218.728 59.78 220.268 58.52L225.028 65.17C223.675 66.3833 222.181 67.41 220.548 68.25C218.915 69.0433 217.235 69.65 215.508 70.07C213.781 70.49 212.078 70.7 210.398 70.7ZM244.78 70L229.24 32.97H240.16L250.03 60.62L247.72 61.04L258.08 32.97H268.72L252.41 70H244.78ZM291.335 70.7C287.322 70.7 283.822 69.8833 280.835 68.25C277.849 66.6167 275.515 64.3767 273.835 61.53C272.155 58.6833 271.315 55.4167 271.315 51.73C271.315 48.8833 271.782 46.27 272.715 43.89C273.649 41.51 274.955 39.4567 276.635 37.73C278.315 35.9567 280.299 34.6033 282.585 33.67C284.919 32.69 287.439 32.2 290.145 32.2C292.665 32.2 294.999 32.6667 297.145 33.6C299.292 34.4867 301.135 35.77 302.675 37.45C304.262 39.0833 305.475 41.02 306.315 43.26C307.155 45.5 307.529 47.95 307.435 50.61L307.365 53.69H277.615L276.005 47.6H299.175L298.055 48.86V47.32C297.962 46.06 297.542 44.9167 296.795 43.89C296.095 42.8633 295.185 42.07 294.065 41.51C292.945 40.95 291.685 40.67 290.285 40.67C288.232 40.67 286.482 41.0667 285.035 41.86C283.635 42.6533 282.562 43.82 281.815 45.36C281.069 46.9 280.695 48.7667 280.695 50.96C280.695 53.2 281.162 55.1367 282.095 56.77C283.075 58.4033 284.429 59.6867 286.155 60.62C287.929 61.5067 290.005 61.95 292.385 61.95C294.019 61.95 295.512 61.6933 296.865 61.18C298.219 60.6667 299.665 59.78 301.205 58.52L305.965 65.17C304.612 66.3833 303.119 67.41 301.485 68.25C299.852 69.0433 298.172 69.65 296.445 70.07C294.719 70.49 293.015 70.7 291.335 70.7ZM314.781 70V32.97H324.301L324.581 40.53L322.621 41.37C323.134 39.69 324.044 38.1733 325.351 36.82C326.704 35.42 328.314 34.3 330.181 33.46C332.048 32.62 334.008 32.2 336.061 32.2C338.861 32.2 341.194 32.76 343.061 33.88C344.974 35 346.398 36.7033 347.331 38.99C348.311 41.23 348.801 44.0067 348.801 47.32V70H338.861V48.09C338.861 46.41 338.628 45.01 338.161 43.89C337.694 42.77 336.971 41.9533 335.991 41.44C335.058 40.88 333.891 40.6467 332.491 40.74C331.371 40.74 330.321 40.9267 329.341 41.3C328.408 41.6267 327.591 42.1167 326.891 42.77C326.238 43.4233 325.701 44.17 325.281 45.01C324.908 45.85 324.721 46.76 324.721 47.74V70H319.821C318.748 70 317.791 70 316.951 70C316.111 70 315.388 70 314.781 70ZM374.426 70.7C370.879 70.7 367.706 69.86 364.906 68.18C362.106 66.5 359.889 64.2133 358.256 61.32C356.669 58.4267 355.876 55.1367 355.876 51.45C355.876 47.81 356.669 44.5433 358.256 41.65C359.889 38.71 362.106 36.4 364.906 34.72C367.706 33.04 370.879 32.2 374.426 32.2C377.739 32.2 380.773 32.8067 383.526 34.02C386.279 35.2333 388.426 36.9133 389.966 39.06L384.506 45.64C383.853 44.7533 383.036 43.96 382.056 43.26C381.076 42.5133 380.003 41.93 378.836 41.51C377.716 41.09 376.549 40.88 375.336 40.88C373.423 40.88 371.719 41.3467 370.226 42.28C368.779 43.1667 367.636 44.4033 366.796 45.99C365.956 47.5767 365.536 49.3967 365.536 51.45C365.536 53.4567 365.956 55.2533 366.796 56.84C367.683 58.38 368.873 59.64 370.366 60.62C371.859 61.5533 373.539 62.02 375.406 62.02C376.619 62.02 377.763 61.8567 378.836 61.53C379.909 61.1567 380.913 60.62 381.846 59.92C382.826 59.22 383.713 58.38 384.506 57.4L389.896 63.98C388.309 65.9867 386.116 67.62 383.316 68.88C380.516 70.0933 377.553 70.7 374.426 70.7ZM397.105 70V32.97H407.045V70H397.105ZM402.005 25.34C400.092 25.34 398.599 24.8733 397.525 23.94C396.452 23.0067 395.915 21.6767 395.915 19.95C395.915 18.3633 396.452 17.08 397.525 16.1C398.645 15.0733 400.139 14.56 402.005 14.56C403.919 14.56 405.412 15.05 406.485 16.03C407.559 16.9633 408.095 18.27 408.095 19.95C408.095 21.5833 407.535 22.89 406.415 23.87C405.342 24.85 403.872 25.34 402.005 25.34ZM434.882 70.7C431.102 70.7 427.719 69.8833 424.732 68.25C421.792 66.57 419.459 64.2833 417.732 61.39C416.052 58.4967 415.212 55.1833 415.212 51.45C415.212 47.7167 416.052 44.4267 417.732 41.58C419.459 38.6867 421.792 36.4 424.732 34.72C427.719 33.04 431.102 32.2 434.882 32.2C438.615 32.2 441.952 33.04 444.892 34.72C447.879 36.4 450.212 38.6867 451.892 41.58C453.572 44.4267 454.412 47.7167 454.412 51.45C454.412 55.1833 453.572 58.4967 451.892 61.39C450.212 64.2833 447.879 66.57 444.892 68.25C441.952 69.8833 438.615 70.7 434.882 70.7ZM434.882 62.02C436.702 62.02 438.335 61.5767 439.782 60.69C441.229 59.7567 442.349 58.4967 443.142 56.91C443.982 55.2767 444.402 53.4567 444.402 51.45C444.402 49.3967 443.982 47.5767 443.142 45.99C442.349 44.3567 441.229 43.0967 439.782 42.21C438.335 41.2767 436.702 40.81 434.882 40.81C433.015 40.81 431.359 41.2767 429.912 42.21C428.465 43.1433 427.322 44.4033 426.482 45.99C425.642 47.5767 425.245 49.3967 425.292 51.45C425.245 53.4567 425.642 55.2767 426.482 56.91C427.322 58.4967 428.465 59.7567 429.912 60.69C431.359 61.5767 433.015 62.02 434.882 62.02ZM429.562 28.42L426.552 23.8L438.242 14.28L443.212 21.07L429.562 28.42ZM461.89 70V32.97H471.41L471.69 40.53L469.73 41.37C470.244 39.69 471.154 38.1733 472.46 36.82C473.814 35.42 475.424 34.3 477.29 33.46C479.157 32.62 481.117 32.2 483.17 32.2C485.97 32.2 488.304 32.76 490.17 33.88C492.084 35 493.507 36.7033 494.44 38.99C495.42 41.23 495.91 44.0067 495.91 47.32V70H485.97V48.09C485.97 46.41 485.737 45.01 485.27 43.89C484.804 42.77 484.08 41.9533 483.1 41.44C482.167 40.88 481 40.6467 479.6 40.74C478.48 40.74 477.43 40.9267 476.45 41.3C475.517 41.6267 474.7 42.1167 474 42.77C473.347 43.4233 472.81 44.17 472.39 45.01C472.017 45.85 471.83 46.76 471.83 47.74V70H466.93C465.857 70 464.9 70 464.06 70C463.22 70 462.497 70 461.89 70Z" fill="black"/>
</svg>
