<svg width="275" height="305" viewBox="0 0 275 305" fill="none" xmlns="http://www.w3.org/2000/svg">
<path d="M274.721 134.425V175.708C274.721 182.501 272.405 188.638 268.693 193.096C264.962 197.535 259.818 200.277 254.125 200.277C242.775 200.277 233.547 189.275 233.547 175.708C233.547 182.501 231.231 188.638 227.519 193.096C223.806 197.535 218.662 200.277 212.969 200.277C201.619 200.277 192.408 189.275 192.408 175.708V134.425C192.408 127.633 194.724 121.495 198.437 117.038C202.167 112.598 207.294 109.856 212.987 109.856C224.354 109.856 233.565 120.858 233.565 134.425C233.565 127.633 235.881 121.495 239.593 117.038C243.323 112.598 248.468 109.856 254.143 109.856C265.51 109.856 274.721 120.858 274.721 134.425Z" fill="#1D1D1B"/>
<path d="M194.348 225.417L210.771 250.304L217.701 260.811L210.771 271.317L194.348 296.204C191.996 299.777 194.33 304.765 198.361 304.765H267.343C271.374 304.765 273.708 299.777 271.357 296.204L254.933 271.317L248.003 260.811L254.933 250.304L271.357 225.417C273.708 221.844 271.374 216.856 267.343 216.856H198.361C194.33 216.856 191.996 221.844 194.348 225.417Z" fill="#1D1D1B"/>
<path d="M144.043 93.7708C137.078 93.7708 130.643 92.6211 124.791 90.3217C118.922 88.0223 113.848 84.8207 109.552 80.6818C105.256 76.5605 101.95 71.661 99.5988 66.0009C97.2652 60.3407 96.0984 54.1146 96.0984 47.3048C96.0984 40.4949 97.3182 34.3926 99.7402 28.7325C102.162 23.0724 105.539 18.1552 109.888 13.9985C114.219 9.82418 119.364 6.605 125.322 4.30557C131.279 2.00615 137.785 0.856445 144.839 0.856445C149.082 0.856445 153.236 1.38707 157.267 2.44834C161.298 3.50961 165.117 5.06616 168.688 7.10026C172.259 9.13437 175.441 11.6991 178.252 14.7591L163.084 32.3762C161.634 30.7666 160.025 29.3162 158.239 28.0427C156.454 26.7692 154.439 25.761 152.176 25.0358C149.93 24.3106 147.438 23.9568 144.715 23.9568C141.568 23.9568 138.616 24.4874 135.858 25.5487C133.1 26.61 130.696 28.1665 128.645 30.2006C126.612 32.2347 125.003 34.711 123.854 37.5941C122.705 40.4949 122.139 43.8026 122.139 47.5524C122.139 51.3022 122.705 54.3445 123.854 57.1923C125.003 60.04 126.665 62.4633 128.822 64.462C130.996 66.4607 133.578 68.0173 136.601 69.1139C139.624 70.2282 143 70.7766 146.748 70.7766C149.382 70.7766 151.875 70.3874 154.209 69.6269C156.542 68.8663 158.699 67.8404 160.644 66.5669C162.606 65.2933 164.339 63.896 165.877 62.3571L177.863 81.3716C175.742 83.7595 172.86 85.882 169.253 87.7569C165.647 89.6318 161.634 91.1 157.267 92.1612C152.883 93.2225 148.481 93.7531 144.061 93.7531L144.043 93.7708Z" fill="#1D1D1B"/>
<path d="M264.772 70.9355V90.9759H200.386V4.90674H262.933V24.9471H223.739V37.8592H258.019V56.8029H223.739V70.9355H264.772Z" fill="#1D1D1B"/>
<path d="M45.6076 201.189C39.1018 201.189 33.3031 200.446 28.2116 198.978C23.1378 197.51 18.6651 195.37 14.7934 192.593C10.9217 189.816 7.47435 186.562 4.43359 182.812L19.549 165.743C23.898 171.385 28.3707 175.153 32.9672 177.01C37.5637 178.885 42.0365 179.805 46.3855 179.805C48.2948 179.805 50.0273 179.61 51.6007 179.221C53.1565 178.832 54.3586 178.177 55.1895 177.258C56.0204 176.338 56.427 175.188 56.427 173.809C56.427 172.588 56.0735 171.544 55.384 170.678C54.6945 169.811 53.7399 169.05 52.52 168.396C51.3002 167.742 49.9566 167.158 48.4893 166.645C47.0042 166.114 45.5369 165.707 44.0519 165.407C42.5668 165.106 41.1349 164.77 39.7559 164.434C34.629 163.302 30.1563 161.869 26.3377 160.136C22.519 158.402 19.3192 156.333 16.7557 153.945C14.1923 151.557 12.283 148.798 11.0278 145.667C9.7726 142.536 9.13616 139.017 9.13616 135.107C9.13616 130.845 10.1262 126.936 12.1416 123.38C14.1393 119.825 16.7911 116.747 20.0794 114.183C23.3853 111.618 27.1863 109.672 31.4822 108.31C35.7782 106.966 40.2686 106.294 44.9712 106.294C51.3886 106.294 56.869 106.931 61.3771 108.187C65.8852 109.442 69.6862 111.247 72.78 113.599C75.8561 115.952 78.5256 118.675 80.7885 121.806L65.4079 136.664C63.587 134.665 61.6069 133.02 59.4855 131.711C57.364 130.402 55.1718 129.43 52.909 128.775C50.6461 128.121 48.3478 127.802 45.9965 127.802C43.822 127.802 41.9304 128.015 40.3216 128.457C38.7129 128.899 37.4753 129.518 36.6091 130.349C35.7428 131.181 35.3008 132.277 35.3008 133.675C35.3008 134.895 35.7782 135.957 36.7328 136.876C37.6875 137.796 38.9073 138.557 40.3747 139.158C41.842 139.759 43.4331 140.272 45.1303 140.661C46.8274 141.051 48.3655 141.387 49.7621 141.634C54.5354 142.589 58.9021 143.828 62.8621 145.349C66.8045 146.87 70.2696 148.78 73.2219 151.08C76.1743 153.379 78.4372 156.191 79.9929 159.481C81.5487 162.789 82.3442 166.645 82.3442 171.085C82.3442 177.594 80.7178 183.095 77.4649 187.57C74.212 192.045 69.8276 195.441 64.3118 197.74C58.796 200.04 52.5731 201.189 45.6253 201.189H45.6076Z" fill="#1D1D1B"/>
<path d="M111.408 198.766V177.93H127.089V129.554H111.408V108.717H168.122V129.554H152.565V177.93H168.122V198.766H111.408Z" fill="#1D1D1B"/>
<path d="M81.9907 242.155C79.8515 236.901 76.8285 232.355 72.8684 228.535C68.926 224.714 64.2942 221.725 58.9375 219.585C53.5985 217.445 47.6761 216.383 41.1879 216.383H3.9563V302.718H41.1879C47.6761 302.718 53.5985 301.657 58.9375 299.516C64.2942 297.376 68.926 294.404 72.8684 290.566C76.8285 286.746 79.8515 282.182 81.9907 276.876C84.1298 271.569 85.2082 265.803 85.2082 259.559C85.2082 253.316 84.1298 247.426 81.9907 242.155ZM59.0612 268.563C58.0889 271.269 56.7276 273.586 54.9951 275.532C53.2802 277.46 51.1941 278.963 48.7721 280.024C46.3501 281.103 43.6099 281.634 40.5692 281.634H28.3708V237.467H40.5692C43.6099 237.467 46.3325 238.016 48.7191 239.077C51.0881 240.138 53.1742 241.642 54.9421 243.587C56.7099 245.515 58.0889 247.832 59.0612 250.556C60.0512 253.263 60.5462 256.269 60.5462 259.559C60.5462 262.849 60.0512 265.839 59.0612 268.563Z" fill="#1D1D1B"/>
<path d="M148.375 216.524H128.698L94.4189 302.576H118.144L123.412 288.319H152.936L158.204 302.576H182.407L148.375 216.524ZM129.759 271.109L132.888 262.619C133.701 260.337 134.462 258.232 135.151 256.357C135.858 254.465 136.495 252.661 137.06 250.945C137.467 249.725 137.856 248.469 138.245 247.16C138.616 248.451 139.005 249.707 139.394 250.945C139.977 252.749 140.578 254.589 141.233 256.481C141.887 258.356 142.629 260.408 143.46 262.619L146.589 271.109H129.759Z" fill="#1D1D1B"/>
<path d="M83.0173 5.85266V88.2781C83.0173 90.4007 81.3025 92.1164 79.181 92.1164H4.48792C2.36646 92.1164 0.651611 90.4007 0.651611 88.2781V61.4102C0.651611 23.8943 18.684 4.08387 41.6665 2.01439C43.8764 1.81983 45.768 3.62398 45.768 5.85266V24.8141C53.1401 10.9114 65.0733 3.3056 78.7744 2.03207C81.055 1.81982 83.035 3.57091 83.035 5.87033L83.0173 5.85266Z" fill="#1D1D1B"/>
</svg>
