<svg width="288" height="305" viewBox="0 0 288 305" fill="none" xmlns="http://www.w3.org/2000/svg">
<path d="M50.0148 93.6746C43.0494 93.6746 36.6142 92.5249 30.7625 90.2255C24.8932 87.9261 19.8193 84.7246 15.5234 80.5856C11.2274 76.4643 7.92148 71.5648 5.5702 65.9047C3.23659 60.2446 2.06982 54.0184 2.06982 47.2086C2.06982 40.3988 3.28966 34.2965 5.71166 28.6364C8.13366 22.9762 11.5103 18.059 15.8593 13.9024C20.1906 9.72802 25.3352 6.50883 31.2929 4.20941C37.2507 1.90999 43.7565 0.760254 50.8103 0.760254C55.0533 0.760254 59.2078 1.29091 63.2386 2.35218C67.2693 3.41345 71.088 4.96996 74.6591 7.00407C78.2302 9.03817 81.4124 11.6029 84.2233 14.6629L69.0549 32.28C67.6052 30.6705 65.9965 29.2201 64.2109 27.9465C62.4254 26.673 60.4099 25.6648 58.147 24.9396C55.9018 24.2144 53.4092 23.8606 50.6866 23.8606C47.5398 23.8606 44.5874 24.3913 41.8295 25.4525C39.0716 26.5138 36.6673 28.0703 34.6165 30.1044C32.5834 32.1386 30.9747 34.6148 29.8256 37.498C28.6764 40.3988 28.1107 43.7064 28.1107 47.4562C28.1107 51.2061 28.6764 54.2484 29.8256 57.0961C30.9747 59.9439 32.6365 62.3671 34.7933 64.3658C36.9678 66.3646 39.5489 67.9211 42.572 69.0178C45.5951 70.1321 48.9718 70.6804 52.7197 70.6804C55.3538 70.6804 57.8465 70.2913 60.1801 69.5307C62.5138 68.7701 64.6705 67.7442 66.6152 66.4707C68.5776 65.1972 70.3101 63.7998 71.8481 62.261L83.8344 81.2754C81.713 83.6633 78.8313 85.7858 75.2248 87.6608C71.6183 89.5357 67.6052 91.0037 63.2386 92.065C58.8542 93.1263 54.4522 93.657 50.0325 93.657L50.0148 93.6746Z" fill="#1D1D1B"/>
<path d="M171.451 69.5131V89.5534H107.064V3.50195H169.612V23.5423H130.418V36.4545H164.697V55.3805H130.418V69.5131H171.451Z" fill="#1D1D1B"/>
<path d="M141.485 199.766C134.979 199.766 129.181 199.024 124.089 197.556C119.015 196.087 114.543 193.947 110.671 191.17C106.799 188.393 103.352 185.139 100.311 181.389L115.426 164.32C119.775 169.962 124.248 173.73 128.845 175.587C133.441 177.462 137.914 178.382 142.263 178.382C144.172 178.382 145.905 178.187 147.478 177.798C149.034 177.409 150.236 176.755 151.067 175.835C151.898 174.915 152.304 173.765 152.304 172.386C152.304 171.165 151.951 170.122 151.261 169.255C150.572 168.388 149.617 167.628 148.397 166.973C147.178 166.319 145.834 165.735 144.367 165.222C142.882 164.691 141.414 164.285 139.929 163.984C138.444 163.683 137.012 163.347 135.633 163.011C130.507 161.879 126.034 160.446 122.215 158.713C118.397 156.98 115.197 154.91 112.633 152.522C110.07 150.134 108.16 147.375 106.905 144.244C105.65 141.113 105.014 137.594 105.014 133.685C105.014 129.422 106.004 125.513 108.019 121.958C110.017 118.402 112.669 115.325 115.957 112.76C119.263 110.195 123.064 108.249 127.36 106.887C131.656 105.543 136.146 104.871 140.849 104.871C147.266 104.871 152.746 105.508 157.255 106.764C161.763 108.019 165.564 109.824 168.657 112.176C171.734 114.529 174.403 117.253 176.666 120.383L161.285 135.241C159.464 133.242 157.484 131.597 155.363 130.289C153.241 128.98 151.049 128.007 148.786 127.352C146.524 126.698 144.225 126.38 141.874 126.38C139.699 126.38 137.808 126.592 136.199 127.034C134.59 127.476 133.353 128.095 132.487 128.927C131.62 129.758 131.178 130.855 131.178 132.252C131.178 133.472 131.656 134.534 132.61 135.453C133.565 136.373 134.785 137.134 136.252 137.735C137.719 138.337 139.311 138.849 141.008 139.239C142.705 139.628 144.243 139.964 145.64 140.211C150.413 141.167 154.78 142.405 158.74 143.926C162.682 145.447 166.147 147.357 169.099 149.657C172.052 151.956 174.315 154.769 175.87 158.058C177.426 161.366 178.222 165.222 178.222 169.662C178.222 176.171 176.595 181.672 173.342 186.147C170.089 190.622 165.705 194.018 160.189 196.317C154.673 198.617 148.451 199.766 141.503 199.766H141.485Z" fill="#1D1D1B"/>
<path d="M205.323 197.361V176.525H221.004V128.148H205.323V107.312H262.037V128.148H246.48V176.525H262.037V197.361H205.323Z" fill="#1D1D1B"/>
<path d="M83.092 240.749C80.9529 235.478 77.9121 230.933 73.9697 227.112C70.0274 223.291 65.3778 220.32 60.0388 218.18C54.6998 216.039 48.7774 214.96 42.2893 214.96H5.05762V301.313H42.2893C48.7774 301.313 54.6998 300.234 60.0388 298.093C65.3778 295.971 70.0274 292.982 73.9697 289.161C77.9121 285.34 80.9529 280.777 83.092 275.471C85.2312 270.164 86.2919 264.38 86.2919 258.137C86.2919 251.893 85.2312 246.003 83.092 240.749ZM60.1626 267.14C59.1726 269.846 57.8113 272.181 56.0965 274.109C54.3639 276.037 52.2955 277.54 49.8735 278.619C47.4338 279.68 44.7113 280.211 41.6705 280.211H29.4721V236.062H41.6705C44.7113 236.062 47.4162 236.593 49.8028 237.654C52.1894 238.733 54.2578 240.236 56.0257 242.164C57.7936 244.092 59.1726 246.427 60.1626 249.133C61.1526 251.84 61.6476 254.847 61.6476 258.137C61.6476 261.426 61.1526 264.433 60.1626 267.14Z" fill="#1D1D1B"/>
<path d="M149.458 215.102H129.799L95.52 301.171H119.227L124.496 286.897H154.019L159.288 301.171H183.49L149.458 215.102ZM130.842 269.687L133.971 261.214C134.802 258.915 135.545 256.828 136.252 254.935C136.942 253.06 137.578 251.256 138.161 249.523C138.568 248.302 138.957 247.029 139.328 245.72C139.699 247.011 140.088 248.285 140.495 249.523C141.061 251.327 141.679 253.184 142.334 255.059C142.988 256.952 143.73 259.003 144.543 261.214L147.673 269.687H130.842Z" fill="#1D1D1B"/>
<path d="M256.595 45.1391C256.383 45.1391 256.189 45.1391 255.977 45.1391C255.977 45.1037 255.977 45.0861 255.977 45.0507C256.542 45.0861 257.09 45.1214 257.656 45.1214C269.907 45.1214 279.825 35.1985 279.825 22.9408C279.825 10.6831 269.907 0.760254 257.656 0.760254C245.405 0.760254 235.876 10.3117 235.504 22.2333C235.504 22.2333 235.487 22.2333 235.469 22.2333C235.098 10.3117 225.321 0.760254 213.317 0.760254C201.314 0.760254 191.148 10.6831 191.148 22.9408C191.148 35.1985 201.066 45.1214 213.317 45.1214C213.317 45.1214 213.317 45.1391 213.317 45.1568C212.964 45.1568 212.61 45.1214 212.239 45.1214C199.988 45.1214 190.07 55.0443 190.07 67.302C190.07 79.5597 199.988 89.4826 212.239 89.4826C224.49 89.4826 234.408 79.5597 234.408 67.302C234.408 79.5597 244.326 89.4826 256.578 89.4826C268.829 89.4826 278.747 79.5597 278.747 67.302C278.747 55.0443 268.829 45.1214 256.578 45.1214L256.595 45.1391Z" fill="#1D1D1B"/>
<path d="M223.16 212.433L195.271 240.336C188.532 247.078 188.532 258.009 195.271 264.751L223.16 292.654C229.898 299.396 240.823 299.396 247.562 292.654L275.451 264.751C282.189 258.009 282.189 247.078 275.451 240.336L247.562 212.433C240.823 205.691 229.898 205.691 223.16 212.433Z" fill="#1D1D1B"/>
<path d="M4.4188 113.76H78.2633C80.65 113.76 82.5947 115.706 82.5947 118.094V162.915C82.5947 185.697 64.1026 204.198 41.3322 204.198C18.5619 204.198 0.0698242 185.697 0.0698242 162.915V118.094C0.0698242 115.706 2.01446 113.76 4.40111 113.76H4.4188Z" fill="#1D1D1B"/>
</svg>
