<svg width="282" height="306" viewBox="0 0 282 306" fill="none" xmlns="http://www.w3.org/2000/svg">
<path d="M78.4242 266.454C82.4903 270.505 85.0007 276.112 85.0007 282.302C85.0007 294.702 74.9592 304.748 62.584 304.748H24.9104C18.7228 304.748 13.1186 302.237 9.07018 298.168C5.00405 294.118 2.49365 288.493 2.49365 282.302C2.49365 269.921 12.5352 259.874 24.9104 259.874C18.7228 259.874 13.1186 257.362 9.07018 253.294C5.00405 249.244 2.49365 243.637 2.49365 237.446C2.49365 225.047 12.5352 215 24.9104 215H62.584C68.7716 215 74.3758 217.512 78.4242 221.58C82.4903 225.63 85.0007 231.255 85.0007 237.446C85.0007 249.827 74.9592 259.874 62.584 259.874C68.7716 259.874 74.3758 262.386 78.4242 266.454Z" fill="#1D1D1B"/>
<path d="M47.0751 94.9943C40.3395 94.9943 34.1342 93.8799 28.4593 91.669C22.7844 89.4403 17.8697 86.3449 13.7328 82.3475C9.57829 78.3677 6.37842 73.6273 4.11553 68.1618C1.85264 62.6962 0.721191 56.6647 0.721191 50.0848C0.721191 43.5049 1.88799 37.5972 4.23928 32.1316C6.59056 26.6661 9.84347 21.908 14.0334 17.8752C18.2232 13.8423 23.191 10.7116 28.9543 8.50061C34.6999 6.27194 40.9936 5.17529 47.8176 5.17529C51.9191 5.17529 55.9322 5.68824 59.8392 6.71414C63.7462 7.74003 67.4234 9.2435 70.8708 11.2245C74.3182 13.2056 77.412 15.6642 80.1168 18.6181L65.4434 35.6515C64.0468 34.095 62.491 32.6976 60.7585 31.4595C59.026 30.2213 57.0813 29.2662 54.9068 28.5587C52.7323 27.8688 50.328 27.5151 47.6939 27.5151C44.6531 27.5151 41.7891 28.028 39.1196 29.0539C36.4501 30.0798 34.1165 31.5833 32.1542 33.5643C30.1918 35.5454 28.6361 37.9155 27.5223 40.7279C26.4085 43.5226 25.8605 46.7418 25.8605 50.3501C25.8605 53.9584 26.4085 56.9123 27.5223 59.6716C28.6361 62.4309 30.2272 64.7657 32.3309 66.7114C34.4347 68.6394 36.9274 70.1428 39.8445 71.2218C42.7615 72.2831 46.032 72.8314 49.6562 72.8314C52.202 72.8314 54.6063 72.4599 56.8692 71.717C59.1321 70.9742 61.2005 69.9836 63.0921 68.7632C64.9838 67.525 66.6632 66.1807 68.1483 64.695L79.7456 83.0727C77.6948 85.3721 74.9193 87.4239 71.4189 89.2457C67.9184 91.0499 64.0645 92.4826 59.8215 93.5085C55.5786 94.5344 51.3357 95.0473 47.0574 95.0473L47.0751 94.9943Z" fill="#1D1D1B"/>
<path d="M168.794 73.8393V93.8797H104.39V7.81055H166.938V27.8509H127.744V40.763H162.023V59.6891H127.744V73.8393H168.794Z" fill="#1D1D1B"/>
<path d="M137.095 204.093C130.59 204.093 124.791 203.35 119.699 201.882C114.626 200.414 110.153 198.274 106.281 195.497C102.41 192.72 98.9621 189.465 95.9214 185.715L111.037 168.647C115.386 174.289 119.859 178.057 124.455 179.914C129.052 181.789 133.524 182.709 137.873 182.709C139.783 182.709 141.515 182.514 143.089 182.125C144.644 181.736 145.846 181.081 146.677 180.161C147.508 179.242 147.915 178.092 147.915 176.712C147.915 175.492 147.561 174.448 146.872 173.582C146.182 172.715 145.228 171.954 144.008 171.3C142.788 170.645 141.444 170.062 139.977 169.549C138.492 169.018 137.025 168.611 135.54 168.311C134.055 168.01 132.623 167.674 131.244 167.338C126.117 166.206 121.644 164.773 117.825 163.04C114.007 161.306 110.807 159.237 108.244 156.849C105.68 154.461 103.771 151.702 102.516 148.571C101.26 145.44 100.624 141.92 100.624 138.011C100.624 133.749 101.614 129.839 103.629 126.284C105.627 122.729 108.279 119.651 111.567 117.087C114.873 114.522 118.674 112.576 122.97 111.214C127.266 109.87 131.756 109.198 136.459 109.198C142.876 109.198 148.357 109.835 152.865 111.09C157.373 112.346 161.174 114.15 164.268 116.503C167.344 118.855 170.013 121.579 172.276 124.71L156.896 139.568C155.075 137.569 153.095 135.924 150.973 134.615C148.852 133.306 146.66 132.333 144.397 131.679C142.134 131.025 139.836 130.706 137.484 130.706C135.31 130.706 133.418 130.918 131.809 131.361C130.201 131.803 128.963 132.422 128.097 133.253C127.231 134.085 126.789 135.181 126.789 136.579C126.789 137.799 127.266 138.86 128.221 139.78C129.175 140.7 130.395 141.46 131.862 142.062C133.33 142.663 134.921 143.176 136.618 143.565C138.315 143.954 139.853 144.29 141.25 144.538C146.023 145.493 150.39 146.731 154.35 148.253C158.292 149.774 161.757 151.684 164.71 153.983C167.662 156.283 169.925 159.095 171.481 162.385C173.036 165.693 173.832 169.549 173.832 173.988C173.832 180.498 172.206 185.998 168.953 190.473C165.7 194.949 161.315 198.345 155.8 200.644C150.284 202.943 144.061 204.093 137.113 204.093H137.095Z" fill="#1D1D1B"/>
<path d="M202.649 201.67V180.834H218.33V132.457H202.649V111.621H259.363V132.457H243.805V180.834H259.363V201.67H202.649Z" fill="#1D1D1B"/>
<path d="M176.396 245.058C174.275 239.805 171.234 235.259 167.274 231.439C163.332 227.618 158.7 224.629 153.343 222.489C148.004 220.348 142.082 219.287 135.593 219.287H98.3618V305.622H135.593C142.082 305.622 148.004 304.56 153.343 302.42C158.7 300.28 163.332 297.291 167.274 293.47C171.234 289.649 174.275 285.086 176.396 279.78C178.535 274.473 179.614 268.707 179.614 262.463C179.614 256.219 178.535 250.329 176.396 245.058ZM153.467 271.466C152.494 274.173 151.133 276.49 149.401 278.435C147.686 280.363 145.6 281.867 143.178 282.928C140.756 284.007 138.015 284.538 134.975 284.538H122.776V240.371H134.975C138.015 240.371 140.738 240.919 143.125 241.981C145.494 243.042 147.58 244.545 149.348 246.473C151.115 248.419 152.494 250.736 153.467 253.46C154.457 256.166 154.952 259.173 154.952 262.463C154.952 265.753 154.457 268.742 153.467 271.466Z" fill="#1D1D1B"/>
<path d="M242.78 219.429H223.103L188.824 305.48H212.549L217.817 291.224H247.341L252.609 305.48H276.811L242.78 219.429ZM224.164 274.013L227.293 265.523C228.106 263.242 228.866 261.137 229.556 259.262C230.263 257.369 230.899 255.565 231.465 253.849C231.872 252.629 232.261 251.373 232.65 250.064C233.021 251.355 233.41 252.611 233.799 253.849C234.382 255.653 234.983 257.493 235.637 259.386C236.309 261.261 237.034 263.312 237.865 265.523L240.994 274.013H224.164Z" fill="#1D1D1B"/>
<path d="M238.49 8.46389L245.208 2.25545C250.83 -2.9271 259.881 1.44181 259.333 9.06528L258.662 18.1922C258.343 22.5788 261.455 26.4701 265.786 27.1423L274.82 28.5219C282.369 29.6716 284.614 39.4884 278.303 43.8042L270.754 48.9691C267.13 51.4631 266.016 56.3096 268.208 60.1301L272.769 68.0543C276.57 74.6873 270.312 82.5584 262.993 80.312L254.242 77.6411C250.034 76.3499 245.544 78.5078 243.935 82.6114L240.576 91.1193C237.765 98.2298 227.706 98.2298 224.895 91.1193L221.536 82.6114C219.927 78.5255 215.437 76.3499 211.229 77.6411L202.478 80.312C195.177 82.5584 188.901 74.6873 192.702 68.0543L197.263 60.1301C199.455 56.3096 198.341 51.4631 194.717 48.9691L187.168 43.8042C180.857 39.4884 183.102 29.6716 190.651 28.5219L199.685 27.1423C204.034 26.4701 207.128 22.5788 206.809 18.1922L206.138 9.06528C205.59 1.44181 214.641 -2.9271 220.263 2.25545L226.981 8.46389C230.216 11.4531 235.184 11.4531 238.419 8.46389H238.49Z" fill="#1D1D1B"/>
<path d="M84.5944 198.853H12.0581C6.77215 198.853 2.4939 194.573 2.4939 189.284V108.857C47.8401 108.857 84.5944 145.631 84.5944 191V198.836V198.853Z" fill="#1D1D1B"/>
</svg>
