<svg width="277" height="307" viewBox="0 0 277 307" fill="none" xmlns="http://www.w3.org/2000/svg">
<path d="M143.299 95.1518C136.21 95.1518 129.669 93.9844 123.711 91.6496C117.735 89.3148 112.573 86.0425 108.207 81.8505C103.84 77.6585 100.463 72.6882 98.0943 66.9219C95.7077 61.1734 94.5232 54.8234 94.5232 47.9075C94.5232 40.9915 95.7607 34.7831 98.2181 29.0168C100.675 23.2683 104.123 18.2626 108.525 14.0175C112.927 9.77245 118.16 6.4825 124.224 4.14771C130.27 1.81291 136.899 0.645508 144.077 0.645508C148.408 0.645508 152.616 1.19383 156.717 2.27279C160.819 3.35175 164.69 4.92597 168.332 7.01314C171.974 9.10031 175.209 11.6827 178.056 14.7958L162.622 32.7136C161.155 31.0686 159.511 29.6005 157.69 28.3093C155.869 27.0181 153.818 25.9922 151.52 25.267C149.221 24.5418 146.693 24.1704 143.936 24.1704C140.736 24.1704 137.73 24.7187 134.919 25.7977C132.108 26.8766 129.669 28.4508 127.583 30.538C125.496 32.6252 123.888 35.1192 122.721 38.073C121.554 41.0092 120.971 44.3876 120.971 48.1905C120.971 51.9934 121.554 55.0888 122.721 57.9896C123.888 60.8904 125.567 63.349 127.777 65.3831C129.987 67.4172 132.621 68.9914 135.697 70.1235C138.773 71.2555 142.203 71.8038 146.004 71.8038C148.691 71.8038 151.219 71.4147 153.588 70.6364C155.975 69.8581 158.149 68.8145 160.147 67.5233C162.127 66.2321 163.913 64.7994 165.468 63.2429L177.667 82.5757C175.51 84.9989 172.593 87.1569 168.916 89.0672C165.239 90.9774 161.172 92.4632 156.717 93.5422C152.262 94.6211 147.79 95.1695 143.299 95.1695V95.1518Z" fill="#1D1D1B"/>
<path d="M264.24 70.9017V90.9421H199.854V4.89062H262.401V24.931H223.208V37.8254H257.487V56.7691H223.208V70.9017H264.24Z" fill="#1D1D1B"/>
<path d="M41.5751 201.774C35.0693 201.774 29.2707 201.031 24.1792 199.563C19.1054 198.095 14.6326 195.955 10.7609 193.178C6.88928 190.401 3.44188 187.146 0.401123 183.397L15.5166 166.328C19.8656 171.97 24.3383 175.738 28.9348 177.595C33.5313 179.47 38.004 180.39 42.353 180.39C44.2623 180.39 45.9948 180.195 47.5682 179.806C49.124 179.417 50.3262 178.762 51.1571 177.843C51.988 176.923 52.3946 175.773 52.3946 174.393C52.3946 173.173 52.041 172.129 51.3515 171.263C50.6621 170.396 49.7074 169.635 48.4876 168.981C47.2677 168.327 45.9241 167.743 44.4568 167.23C42.9718 166.699 41.5044 166.292 40.0194 165.992C38.5344 165.691 37.1024 165.355 35.7235 165.019C30.5966 163.887 26.1239 162.454 22.3052 160.721C18.4866 158.987 15.2867 156.918 12.7233 154.53C10.1598 152.142 8.25055 149.383 6.99535 146.252C5.74015 143.121 5.1037 139.601 5.1037 135.692C5.1037 131.43 6.09374 127.521 8.10912 123.965C10.1068 120.41 12.7586 117.332 16.0469 114.768C19.3528 112.203 23.1538 110.257 27.4498 108.895C31.7457 107.551 36.2361 106.879 40.9387 106.879C47.3561 106.879 52.8366 107.516 57.3447 108.772C61.8528 110.027 65.6537 111.832 68.7475 114.184C71.8236 116.536 74.4931 119.26 76.756 122.391L61.3755 137.249C59.5545 135.25 57.5745 133.605 55.453 132.296C53.3316 130.987 51.1394 130.015 48.8765 129.36C46.6136 128.706 44.3154 128.387 41.9641 128.387C39.7896 128.387 37.898 128.6 36.2892 129.042C34.6804 129.484 33.4429 130.103 32.5766 130.934C31.7104 131.766 31.2684 132.862 31.2684 134.26C31.2684 135.48 31.7457 136.541 32.7004 137.461C33.655 138.381 34.8749 139.142 36.3422 139.743C37.8096 140.344 39.4007 140.857 41.0978 141.246C42.795 141.636 44.3331 141.972 45.7297 142.219C50.503 143.174 54.8696 144.413 58.8297 145.934C62.7721 147.455 66.2371 149.365 69.1895 151.665C72.1418 153.964 74.4048 156.776 75.9605 160.066C77.5162 163.374 78.3118 167.23 78.3118 171.67C78.3118 178.179 76.6853 183.68 73.4324 188.155C70.1795 192.63 65.7951 196.026 60.2793 198.325C54.7635 200.625 48.5406 201.774 41.5928 201.774H41.5751Z" fill="#1D1D1B"/>
<path d="M107.535 199.351V178.515H123.216V130.139H107.535V109.302H164.249V130.139H148.691V178.515H164.249V199.351H107.535Z" fill="#1D1D1B"/>
<path d="M176.005 242.739C173.866 237.486 170.825 232.94 166.883 229.12C162.94 225.299 158.291 222.31 152.952 220.17C147.613 218.03 141.69 216.968 135.202 216.968H97.9707V303.303H135.202C141.69 303.303 147.613 302.241 152.952 300.101C158.291 297.961 162.94 294.972 166.883 291.151C170.825 287.331 173.866 282.767 176.005 277.461C178.144 272.154 179.205 266.388 179.205 260.144C179.205 253.901 178.144 248.01 176.005 242.739ZM153.076 269.147C152.086 271.854 150.742 274.171 149.009 276.116C147.277 278.044 145.209 279.548 142.787 280.609C140.365 281.688 137.624 282.219 134.584 282.219H122.385V238.052H134.584C137.624 238.052 140.329 238.601 142.716 239.662C145.102 240.723 147.171 242.227 148.939 244.155C150.707 246.1 152.086 248.417 153.076 251.141C154.066 253.847 154.561 256.854 154.561 260.144C154.561 263.434 154.066 266.424 153.076 269.147Z" fill="#1D1D1B"/>
<path d="M242.371 217.109H222.713L188.433 303.161H212.141L217.409 288.904H246.933L252.201 303.161H276.421L242.371 217.109ZM223.756 271.694L226.885 263.204C227.716 260.922 228.476 258.817 229.165 256.942C229.855 255.05 230.491 253.246 231.075 251.53C231.481 250.309 231.87 249.036 232.259 247.727C232.613 249.018 233.002 250.274 233.408 251.53C233.974 253.334 234.593 255.174 235.247 257.066C235.901 258.941 236.644 260.993 237.457 263.204L240.586 271.694H223.756Z" fill="#1D1D1B"/>
<path d="M86.791 40.8444C84.5635 70.2416 61.1037 93.6957 31.7392 95.9243C29.2465 96.1189 27.1427 94.0848 27.1427 91.5909V61.0439C21.4854 63.3787 15.4039 64.8468 9.0572 65.3421C6.56449 65.5366 4.46069 63.5025 4.46069 61.0085V9.979C4.46069 7.59114 6.40539 5.64551 8.79203 5.64551H59.7955C62.2882 5.64551 64.3036 7.75036 64.1268 10.2267C63.4196 19.672 60.5026 28.5159 55.9061 36.2101H82.4774C84.9701 36.2101 87.0032 38.315 86.8087 40.809L86.791 40.8444Z" fill="#1D1D1B"/>
<path d="M4.79201 215.646H78.6365C81.0231 215.646 82.9678 217.591 82.9678 219.979V264.8C82.9678 287.582 64.4758 306.084 41.7054 306.084C18.9528 306.084 0.460693 287.6 0.460693 264.818V219.997C0.460693 217.591 2.40537 215.646 4.79201 215.646Z" fill="#1D1D1B"/>
<path d="M270.826 114.498V196.924C270.826 199.046 269.112 200.762 266.99 200.762H192.297C190.176 200.762 188.461 199.046 188.461 196.924V170.056C188.461 132.54 206.493 112.729 229.476 110.66C231.685 110.465 233.577 112.269 233.577 114.498V133.46C240.949 119.557 252.882 111.951 266.583 110.678C268.864 110.465 270.844 112.216 270.844 114.516L270.826 114.498Z" fill="#1D1D1B"/>
</svg>
