<svg width="284" height="307" viewBox="0 0 284 307" fill="none" xmlns="http://www.w3.org/2000/svg">
<path d="M42.944 215.646C65.7143 215.646 84.2064 234.147 84.2064 256.929V264.8C84.2064 287.582 65.7143 306.084 42.944 306.084H6.01292C3.62628 306.084 1.68164 304.138 1.68164 301.75V256.929C1.68164 234.147 20.1736 215.646 42.944 215.646Z" fill="#1D1D1B"/>
<path d="M47.5561 93.586C40.6436 93.586 34.2793 92.4539 28.4629 90.1722C22.6466 87.8905 17.6081 84.7067 13.3475 80.6208C9.08693 76.5349 5.79866 71.6884 3.48273 66.0813C1.16681 60.4743 0 54.3012 0 47.5444C0 40.7877 1.20218 34.7561 3.6065 29.1491C6.01082 23.542 9.35211 18.6778 13.6481 14.5389C17.944 10.3999 23.0532 7.19842 28.9402 4.91669C34.845 2.63495 41.2801 1.50293 48.2809 1.50293C52.4885 1.50293 56.6076 2.03357 60.603 3.07715C64.5985 4.13842 68.3818 5.67727 71.9175 7.69368C75.4533 9.7101 78.6178 12.2395 81.3934 15.2818L66.3487 32.7397C64.9167 31.1301 63.3079 29.6974 61.54 28.4415C59.7721 27.168 57.7744 26.1775 55.5292 25.47C53.3017 24.7625 50.8266 24.391 48.1395 24.391C45.028 24.391 42.0933 24.9217 39.3531 25.9653C36.6129 27.0265 34.2262 28.5654 32.2108 30.5818C30.1955 32.5982 28.6044 35.0568 27.4729 37.9222C26.3415 40.7877 25.7581 44.0776 25.7581 47.7921C25.7581 51.5065 26.3238 54.5135 27.4729 57.3435C28.6044 60.1736 30.2485 62.5791 32.4053 64.5602C34.5621 66.5412 37.1256 68.0801 40.1133 69.1767C43.101 70.2734 46.46 70.8217 50.1725 70.8217C52.789 70.8217 55.2464 70.4502 57.5623 69.6897C59.8782 68.9291 61.9997 67.9209 63.9443 66.6473C65.889 65.3915 67.6039 63.9942 69.1243 62.473L81.0044 81.3283C78.9007 83.6984 76.0544 85.8033 72.4656 87.6605C68.8768 89.5178 64.9167 90.9682 60.5854 92.0294C56.2364 93.0907 51.8874 93.6037 47.503 93.6037L47.5561 93.586Z" fill="#1D1D1B"/>
<path d="M169.752 71.1577V91.1981H105.365V5.12891H167.913V25.1693H128.719V38.0814H162.998V57.0074H128.719V71.1577H169.752Z" fill="#1D1D1B"/>
<path d="M42.9416 201.411C36.4358 201.411 30.6371 200.668 25.5456 199.2C20.4718 197.732 15.999 195.592 12.1274 192.815C8.25571 190.038 4.80834 186.783 1.76758 183.033L16.883 165.965C21.232 171.607 25.7047 175.374 30.3012 177.232C34.8977 179.107 39.3704 180.026 43.7194 180.026C45.6288 180.026 47.3613 179.832 48.9347 179.443C50.4905 179.054 51.6926 178.399 52.5235 177.479C53.3544 176.56 53.761 175.41 53.761 174.03C53.761 172.81 53.4075 171.766 52.718 170.899C52.0285 170.033 51.0738 169.272 49.854 168.618C48.6342 167.963 47.2906 167.38 45.8232 166.867C44.3382 166.336 42.8709 165.929 41.3859 165.628C39.9008 165.328 38.4688 164.992 37.0899 164.656C31.963 163.524 27.4903 162.091 23.6717 160.357C19.853 158.624 16.6532 156.555 14.0897 154.167C11.5263 151.779 9.61697 149.02 8.36178 145.889C7.10658 142.758 6.47015 139.238 6.47015 135.329C6.47015 131.066 7.46016 127.157 9.47555 123.602C11.4733 120.047 14.1251 116.969 17.4134 114.404C20.7193 111.84 24.5202 109.894 28.8162 108.532C33.1122 107.188 37.6026 106.516 42.3052 106.516C48.7226 106.516 54.203 107.152 58.7111 108.408C63.2192 109.664 67.0202 111.468 70.114 113.821C73.1901 116.173 75.8596 118.897 78.1225 122.028L62.7419 136.886C60.921 134.887 58.9409 133.242 56.8195 131.933C54.698 130.624 52.5058 129.651 50.2429 128.997C47.98 128.342 45.6818 128.024 43.3305 128.024C41.156 128.024 39.2644 128.236 37.6556 128.679C36.0468 129.121 34.8093 129.74 33.9431 130.571C33.0768 131.402 32.6348 132.499 32.6348 133.896C32.6348 135.117 33.1122 136.178 34.0668 137.098C35.0215 138.018 36.2413 138.778 37.7087 139.38C39.176 139.981 40.7671 140.494 42.4643 140.883C44.1614 141.272 45.6995 141.608 47.0961 141.856C51.8694 142.811 56.2361 144.049 60.1961 145.57C64.1385 147.092 67.6036 149.002 70.5559 151.301C73.5083 153.601 75.7712 156.413 77.3269 159.703C78.8827 163.011 79.6782 166.867 79.6782 171.306C79.6782 177.815 78.0517 183.316 74.7988 187.791C71.5459 192.266 67.1616 195.662 61.6458 197.962C56.13 200.261 49.907 201.411 42.9593 201.411H42.9416Z" fill="#1D1D1B"/>
<path d="M109.22 198.988V178.152H124.901V129.775H109.22V108.939H165.933V129.775H150.376V178.152H165.933V198.988H109.22Z" fill="#1D1D1B"/>
<path d="M177.371 242.376C175.232 237.123 172.191 232.577 168.249 228.757C164.307 224.936 159.657 221.947 154.318 219.806C148.979 217.666 143.057 216.605 136.569 216.605H99.3369V302.939H136.569C143.057 302.939 148.979 301.878 154.318 299.738C159.657 297.598 164.307 294.608 168.249 290.788C172.191 286.967 175.232 282.404 177.371 277.097C179.51 271.791 180.589 266.025 180.589 259.781C180.589 253.537 179.51 247.647 177.371 242.376ZM154.442 268.784C153.452 271.49 152.108 273.808 150.376 275.753C148.661 277.681 146.575 279.185 144.153 280.246C141.731 281.325 138.991 281.856 135.95 281.856H123.751V237.689H135.95C138.991 237.689 141.713 238.237 144.082 239.299C146.469 240.36 148.555 241.863 150.323 243.791C152.091 245.737 153.452 248.054 154.442 250.778C155.432 253.484 155.927 256.491 155.927 259.781C155.927 263.071 155.432 266.06 154.442 268.784Z" fill="#1D1D1B"/>
<path d="M246.62 216.746H226.961L192.682 302.798H216.407L221.675 288.541H251.181L256.449 302.798H280.669L246.62 216.746ZM228.022 271.331L231.151 262.841C231.964 260.559 232.724 258.454 233.414 256.579C234.121 254.687 234.757 252.882 235.323 251.167C235.73 249.946 236.118 248.69 236.507 247.381C236.879 248.673 237.268 249.929 237.657 251.167C238.222 252.971 238.841 254.81 239.495 256.703C240.149 258.578 240.892 260.63 241.705 262.841L244.834 271.331H228.022Z" fill="#1D1D1B"/>
<path d="M276.686 93.4007H195.682V42.9903C195.682 19.6069 213.82 0.645508 236.184 0.645508C258.548 0.645508 276.686 19.6069 276.686 42.9903V93.4007Z" fill="#1D1D1B"/>
<path d="M203.814 198.061C192.8 199.441 185.552 186.882 192.27 178.038C205.511 160.563 216.49 141.513 224.993 121.313C229.307 111.09 243.786 111.09 248.1 121.313C256.603 141.513 267.599 160.563 280.823 178.038C287.524 186.882 280.275 199.441 269.279 198.061C247.552 195.337 225.559 195.337 203.814 198.061Z" fill="#1D1D1B"/>
</svg>
