<svg width="297" height="313" viewBox="0 0 297 313" fill="none" xmlns="http://www.w3.org/2000/svg">
<path d="M40.511 12.8288L12.6217 40.7324C5.8834 47.4742 5.8834 58.4047 12.6217 65.1465L40.511 93.0501C47.2494 99.7918 58.1744 99.7918 64.9127 93.0501L92.802 65.1465C99.5403 58.4047 99.5403 47.4742 92.802 40.7324L64.9127 12.8288C58.1744 6.08706 47.2494 6.08706 40.511 12.8288Z" fill="#1D1D1B"/>
<path d="M209.421 230.217V307.512C209.421 310.254 211.808 312.394 214.53 312.076C229.663 310.307 242.41 300.756 248.703 287.525C249.64 285.562 252.557 286.181 252.557 288.357V307.512C252.557 310.254 254.944 312.394 257.649 312.076C279.27 309.547 296.047 291.169 296.047 268.864C296.047 246.56 279.27 228.182 257.649 225.653C254.926 225.335 252.557 227.475 252.557 230.217V249.372C252.557 251.548 249.64 252.167 248.703 250.204C242.427 236.973 229.663 227.422 214.53 225.653C211.808 225.335 209.421 227.475 209.421 230.217Z" fill="#1D1D1B"/>
<path d="M160.179 102.536C153.213 102.536 146.778 101.386 140.927 99.0868C135.057 96.7874 129.983 93.5859 125.687 89.4469C121.392 85.3256 118.086 80.4261 115.734 74.766C113.401 69.1059 112.234 62.8797 112.234 56.0699C112.234 49.2601 113.454 43.1578 115.876 37.4977C118.298 31.8375 121.674 26.9203 126.023 22.7637C130.355 18.5893 135.499 15.3701 141.457 13.0707C147.415 10.7713 153.921 9.62158 160.974 9.62158C165.217 9.62158 169.372 10.1522 173.403 11.2135C177.433 12.2748 181.252 13.8313 184.823 15.8654C188.394 17.8995 191.576 20.4642 194.387 23.5242L179.219 41.1413C177.769 39.5317 176.161 38.0814 174.375 36.8078C172.589 35.5343 170.574 34.5261 168.311 33.8009C166.066 33.0757 163.573 32.7219 160.851 32.7219C157.704 32.7219 154.751 33.2526 151.994 34.3138C149.236 35.3751 146.831 36.9316 144.781 38.9657C142.73 40.9999 141.139 43.4761 139.99 46.3593C138.841 49.2601 138.275 52.5677 138.275 56.3175C138.275 60.0674 138.841 63.1097 139.99 65.9574C141.139 68.8052 142.801 71.2284 144.957 73.2271C147.132 75.2259 149.713 76.7824 152.736 77.8791C155.759 78.9934 159.136 79.5417 162.884 79.5417C165.518 79.5417 168.011 79.1526 170.344 78.392C172.678 77.6314 174.835 76.6055 176.779 75.332C178.742 74.0585 180.474 72.6611 182.012 71.1223L193.998 90.1367C191.877 92.5246 188.995 94.6471 185.389 96.522C181.782 98.397 177.769 99.8651 173.403 100.926C169.018 101.988 164.616 102.518 160.197 102.518L160.179 102.536Z" fill="#1D1D1B"/>
<path d="M280.908 79.7007V99.741H216.521V13.6719H279.069V33.7122H239.858V46.6244H274.154V65.5681H239.858V79.7007H280.908Z" fill="#1D1D1B"/>
<path d="M156.519 209.954C150.014 209.954 144.215 209.212 139.124 207.743C134.05 206.275 129.577 204.135 125.705 201.358C121.834 198.581 118.386 195.327 115.345 191.577L130.461 174.508C134.81 180.15 139.283 183.918 143.879 185.775C148.476 187.65 152.948 188.57 157.297 188.57C159.207 188.57 160.939 188.375 162.513 187.986C164.068 187.597 165.27 186.943 166.101 186.023C166.932 185.103 167.339 183.953 167.339 182.574C167.339 181.353 166.985 180.31 166.296 179.443C165.606 178.576 164.652 177.816 163.432 177.161C162.212 176.507 160.868 175.923 159.401 175.41C157.916 174.879 156.449 174.473 154.964 174.172C153.479 173.871 152.047 173.535 150.668 173.199C145.541 172.067 141.068 170.634 137.25 168.901C133.431 167.168 130.231 165.098 127.668 162.71C125.104 160.322 123.195 157.563 121.94 154.432C120.684 151.302 120.048 147.782 120.048 143.873C120.048 139.61 121.038 135.701 123.053 132.146C125.051 128.59 127.703 125.513 130.991 122.948C134.297 120.383 138.098 118.437 142.394 117.075C146.69 115.731 151.18 115.059 155.883 115.059C162.3 115.059 167.781 115.696 172.289 116.952C176.797 118.208 180.598 120.012 183.692 122.364C186.768 124.717 189.437 127.441 191.7 130.571L176.32 145.429C174.499 143.43 172.519 141.785 170.397 140.477C168.276 139.168 166.084 138.195 163.821 137.54C161.558 136.886 159.26 136.568 156.908 136.568C154.734 136.568 152.842 136.78 151.233 137.222C149.625 137.664 148.387 138.283 147.521 139.115C146.655 139.946 146.213 141.043 146.213 142.44C146.213 143.66 146.69 144.722 147.645 145.641C148.599 146.561 149.819 147.322 151.287 147.923C152.754 148.525 154.345 149.037 156.042 149.427C157.739 149.816 159.277 150.152 160.674 150.399C165.447 151.355 169.814 152.593 173.774 154.114C177.716 155.635 181.181 157.545 184.134 159.845C187.086 162.144 189.349 164.957 190.905 168.247C192.461 171.554 193.256 175.41 193.256 179.85C193.256 186.359 191.63 191.86 188.377 196.335C185.124 200.81 180.739 204.206 175.224 206.505C169.708 208.805 163.485 209.954 156.537 209.954H156.519Z" fill="#1D1D1B"/>
<path d="M220.357 207.531V186.695H236.039V138.319H220.357V117.482H277.071V138.319H261.514V186.695H277.071V207.531H220.357Z" fill="#1D1D1B"/>
<path d="M98.1262 250.92C95.9871 245.666 92.9463 241.121 89.0039 237.3C85.0615 233.479 80.412 230.49 75.073 228.35C69.734 226.21 63.8116 225.148 57.3234 225.148H20.0918V311.483H57.3234C63.8116 311.483 69.734 310.422 75.073 308.281C80.412 306.141 85.0615 303.17 89.0039 299.331C92.9463 295.511 95.9871 290.947 98.1262 285.641C100.265 280.335 101.326 274.568 101.326 268.325C101.326 262.081 100.265 256.191 98.1262 250.92ZM75.1968 277.328C74.2067 280.034 72.8631 282.351 71.1306 284.297C69.3981 286.225 67.3297 287.728 64.9077 288.789C62.4857 289.868 59.7454 290.399 56.7047 290.399H44.5063V246.232H56.7047C59.7454 246.232 62.468 246.781 64.837 247.842C67.2236 248.903 69.3097 250.407 71.0776 252.352C72.8278 254.28 74.2067 256.597 75.1968 259.321C76.1868 262.028 76.6818 265.035 76.6818 268.325C76.6818 271.614 76.1868 274.604 75.1968 277.328Z" fill="#1D1D1B"/>
<path d="M164.493 225.29H144.834L110.554 311.341H134.262L139.53 297.085H169.054L174.322 311.341H198.542L164.493 225.29ZM145.894 279.874L149.024 271.384C149.837 269.102 150.597 266.998 151.286 265.123C151.976 263.23 152.612 261.426 153.196 259.71C153.602 258.49 153.991 257.216 154.38 255.907C154.734 257.198 155.123 258.454 155.529 259.71C156.095 261.514 156.714 263.354 157.368 265.246C158.022 267.121 158.765 269.173 159.578 271.384L162.707 279.874H145.894Z" fill="#1D1D1B"/>
<path d="M56.057 119.743C51.9025 119.442 47.854 119.707 44.0001 120.468C41.7725 120.91 41.0654 123.705 42.7626 125.208C47.6419 129.577 50.5412 136.104 49.9755 143.303C49.1446 153.757 40.7472 162.3 30.3167 163.29C23.3689 163.945 17.0222 161.362 12.6025 156.87C11.0114 155.26 8.23583 156.056 7.91761 158.302C7.44028 161.468 7.29885 164.741 7.52867 168.101C9.10209 191.043 28.0184 209.403 50.9832 210.269C77.5015 211.26 99.1934 189.451 97.9912 162.883C96.9659 140.119 78.7921 121.441 56.0924 119.76L56.057 119.743Z" fill="#1D1D1B"/>
</svg>
